<?xml version="1.0" standalone="yes"?>

<svg version="1.1" viewBox="0.0 0.0 250.0 150.0" fill="none" stroke="none" stroke-linecap="square" stroke-miterlimit="10" xmlns="http://www.w3.org/2000/svg" xmlns:xlink="http://www.w3.org/1999/xlink"><clipPath id="p.0"><path d="m0 0l250.0 0l0 150.0l-250.0 0l0 -150.0z" clip-rule="nonzero"></path></clipPath><g clip-path="url(#p.0)"><path fill="#000000" fill-opacity="0.0" d="m0 0l250.0 0l0 150.0l-250.0 0z" fill-rule="nonzero"></path><path fill="#000000" fill-opacity="0.0" d="m98.681114 14.181134l23.161102 5.7554636" fill-rule="nonzero"></path><path stroke="#000000" stroke-width="2.0" stroke-linejoin="round" stroke-linecap="butt" d="m98.681114 14.181134l23.161102 5.7554636" fill-rule="nonzero"></path><path fill="#000000" fill-opacity="0.0" d="m98.681114 14.181134l20.40429 -8.45231" fill-rule="nonzero"></path><path stroke="#000000" stroke-width="2.0" stroke-linejoin="round" stroke-linecap="butt" d="m98.681114 14.181134l20.40429 -8.45231" fill-rule="nonzero"></path><path fill="#000000" fill-opacity="0.0" d="m24.056631 46.82956l201.888 0l0 56.33777l-201.888 0z" fill-rule="nonzero"></path><path fill="#000000" d="m67.324646 61.219692q-0.59375 -0.296875 -1.359375 -0.609375q-0.765625 -0.328125 -1.765625 -0.578125q-0.984375 -0.265625 -2.234375 -0.4375q-1.234375 -0.1875 -2.75 -0.1875q-1.828125 0 -3.265625 0.21875q-1.421875 0.203125 -2.421875 0.65625q-0.984375 0.453125 -1.515625 1.140625q-0.515625 0.671875 -0.515625 1.609375q0 0.78125 0.484375 1.3750038q0.5 0.59375 1.328125 1.046875q0.84375 0.453125 1.96875 0.828125q1.140625 0.359375 2.390625 0.6875q1.265625 0.328125 2.609375 0.671875q1.34375 0.328125 2.609375 0.71875q1.265625 0.375 2.390625 0.859375q1.125 0.46875 1.96875 1.109375q0.84375 0.625 1.328125 1.453125q0.5 0.8125 0.5 1.890625q0 1.15625 -0.453125 2.03125q-0.4375 0.875 -1.1875 1.5q-0.75 0.625 -1.75 1.046875q-1.0 0.421875 -2.15625 0.671875q-1.140625 0.234375 -2.359375 0.328125q-1.21875 0.09375 -2.390625 0.09375q-2.71875 0 -4.921875 -0.390625q-2.203125 -0.390625 -4.1875 -1.078125l0 -2.3125q2.046875 1.21875 4.34375 1.6875q2.296875 0.453125 4.828125 0.453125q1.78125 0 3.296875 -0.21875q1.515625 -0.21875 2.609375 -0.671875q1.109375 -0.46875 1.71875 -1.203125q0.625 -0.75 0.625 -1.8125q0 -0.875 -0.5 -1.515625q-0.484375 -0.65625 -1.328125 -1.140625q-0.84375 -0.5 -1.96875 -0.875q-1.125 -0.375 -2.390625 -0.703125q-1.25 -0.328125 -2.59375 -0.640625q-1.34375 -0.3125 -2.59375 -0.671875q-1.25 -0.359375 -2.390625 -0.8125q-1.125 -0.453125 -1.96875 -1.0625q-0.828125 -0.625 -1.328125 -1.421875q-0.484375 -0.796875 -0.484375 -1.8593788q0 -1.046875 0.390625 -1.859375q0.390625 -0.8125 1.078125 -1.390625q0.6875 -0.59375 1.609375 -1.0q0.9375 -0.40625 1.984375 -0.640625q1.046875 -0.234375 2.1875 -0.328125q1.140625 -0.109375 2.234375 -0.109375q1.21875 0 2.296875 0.109375q1.078125 0.09375 2.078125 0.28125q1.015625 0.171875 1.96875 0.40625q0.96875 0.21875 1.953125 0.46875l0 2.1875zm7.332947 17.718754l0 -20.796879l17.328125 0l0 1.765625l-15.265625 0l0 7.156254l14.5 0l0 1.765625l-14.5 0l0 8.34375l15.5 0l0 1.765625l-17.5625 0zm49.579376 0l0 -17.687504l-11.421875 17.687504l-1.6875 0l-11.4375 -17.765629l0 17.765629l-1.890625 0l0 -20.796879l2.03125 0l12.1875 18.843754l12.078125 -18.843754l2.0 0l0 20.796879l-1.859375 0zm19.031754 0l-2.828125 0l-10.390625 -20.796879l2.125 0l9.734375 19.500004l9.734375 -19.500004l2.09375 0l-10.46875 20.796879zm14.52597 0l0 -20.796879l17.328125 0l0 1.765625l-15.265625 0l0 7.156254l14.5 0l0 1.765625l-14.5 0l0 8.34375l15.5 0l0 1.765625l-17.5625 0zm25.032501 -8.90625l0 8.90625l-1.890625 0l0 -20.796879l10.34375 0q2.390625 0 4.078125 0.375q1.703125 0.359375 2.78125 1.109375q1.078125 0.75 1.578125 1.875q0.5 1.125 0.5 2.6250038q0 2.328125 -1.234375 3.734375q-1.21875 1.390625 -3.9375 1.90625l7.09375 9.171875l-2.375 0l-6.703125 -8.96875q-0.421875 0.03125 -0.875 0.046875q-0.4375 0.015625 -0.90625 0.015625l-8.453125 0zm15.4375 -5.90625q0 -1.3437538 -0.46875 -2.1562538q-0.46875 -0.828125 -1.53125 -1.28125q-1.0625 -0.453125 -2.78125 -0.609375q-1.71875 -0.171875 -4.203125 -0.171875l-6.453125 0l0 8.359379l6.390625 0q2.5 0 4.21875 -0.140625q1.71875 -0.140625 2.796875 -0.59375q1.078125 -0.453125 1.546875 -1.25q0.484375 -0.8125 0.484375 -2.15625z" fill-rule="nonzero"></path><path fill="#000000" d="m46.401016 95.89345q0 0.53125 -0.203125 0.953125q-0.1875 0.40625 -0.546875 0.703125q-0.34375 0.28125 -0.8125 0.4375q-0.46875 0.140625 -1.015625 0.140625q-0.375 0 -0.703125 -0.0625q-0.328125 -0.0625 -0.578125 -0.15625q-0.25 -0.09375 -0.4375 -0.1875q-0.171875 -0.109375 -0.234375 -0.171875q-0.0625 -0.078125 -0.09375 -0.1875q-0.03125 -0.109375 -0.03125 -0.28125q0 -0.140625 0 -0.21875q0.015625 -0.09375 0.03125 -0.140625q0.03125 -0.046875 0.0625 -0.0625q0.046875 -0.03125 0.09375 -0.03125q0.078125 0 0.21875 0.109375q0.15625 0.09375 0.390625 0.21875q0.234375 0.109375 0.5625 0.21875q0.328125 0.09375 0.765625 0.09375q0.328125 0 0.59375 -0.078125q0.28125 -0.09375 0.46875 -0.25q0.203125 -0.171875 0.3125 -0.40625q0.109375 -0.234375 0.109375 -0.53125q0 -0.328125 -0.15625 -0.546875q-0.140625 -0.234375 -0.390625 -0.40625q-0.234375 -0.171875 -0.546875 -0.3125q-0.296875 -0.140625 -0.625 -0.296875q-0.3125 -0.15625 -0.625 -0.328125q-0.296875 -0.1875 -0.546875 -0.421875q-0.234375 -0.25 -0.390625 -0.578125q-0.140625 -0.34375 -0.140625 -0.796875q0 -0.484375 0.171875 -0.84375q0.171875 -0.375 0.46875 -0.625q0.3125 -0.265625 0.734375 -0.390625q0.4375 -0.125 0.921875 -0.125q0.25 0 0.5 0.046875q0.265625 0.03125 0.484375 0.109375q0.234375 0.078125 0.40625 0.171875q0.171875 0.078125 0.21875 0.140625q0.0625 0.046875 0.078125 0.078125q0.03125 0.03125 0.03125 0.09375q0.015625 0.046875 0.015625 0.125q0.015625 0.0625 0.015625 0.171875q0 0.109375 -0.015625 0.1875q0 0.078125 -0.03125 0.140625q-0.015625 0.046875 -0.046875 0.078125q-0.03125 0.03125 -0.0625 0.03125q-0.0625 0 -0.203125 -0.078125q-0.140625 -0.09375 -0.34375 -0.1875q-0.203125 -0.109375 -0.46875 -0.1875q-0.265625 -0.09375 -0.609375 -0.09375q-0.3125 0 -0.546875 0.09375q-0.234375 0.078125 -0.390625 0.21875q-0.15625 0.140625 -0.234375 0.34375q-0.078125 0.1875 -0.078125 0.40625q0 0.3125 0.140625 0.546875q0.15625 0.21875 0.390625 0.40625q0.25 0.171875 0.5625 0.3125q0.3125 0.140625 0.625 0.296875q0.328125 0.15625 0.640625 0.328125q0.3125 0.171875 0.546875 0.421875q0.25 0.25 0.390625 0.578125q0.15625 0.328125 0.15625 0.78125zm5.826172 -0.890625q0 0.234375 -0.109375 0.328125q-0.109375 0.09375 -0.265625 0.09375l-3.453125 0q0 0.4375 0.078125 0.796875q0.09375 0.34375 0.296875 0.609375q0.21875 0.25 0.546875 0.390625q0.328125 0.125 0.796875 0.125q0.375 0 0.671875 -0.0625q0.296875 -0.0625 0.5 -0.140625q0.21875 -0.078125 0.359375 -0.140625q0.140625 -0.0625 0.203125 -0.0625q0.046875 0 0.078125 0.03125q0.03125 0.015625 0.046875 0.0625q0.015625 0.03125 0.015625 0.109375q0.015625 0.078125 0.015625 0.171875q0 0.078125 -0.015625 0.140625q0 0.046875 -0.015625 0.09375q0 0.046875 -0.015625 0.078125q-0.015625 0.03125 -0.046875 0.078125q-0.03125 0.03125 -0.203125 0.109375q-0.15625 0.0625 -0.40625 0.140625q-0.25 0.0625 -0.578125 0.109375q-0.328125 0.0625 -0.703125 0.0625q-0.65625 0 -1.15625 -0.171875q-0.484375 -0.1875 -0.8125 -0.546875q-0.328125 -0.359375 -0.5 -0.890625q-0.171875 -0.546875 -0.171875 -1.265625q0 -0.671875 0.171875 -1.21875q0.171875 -0.546875 0.5 -0.921875q0.34375 -0.375 0.8125 -0.578125q0.46875 -0.203125 1.046875 -0.203125q0.625 0 1.0625 0.203125q0.4375 0.203125 0.71875 0.546875q0.28125 0.328125 0.40625 0.78125q0.125 0.453125 0.125 0.96875l0 0.171875zm-0.96875 -0.28125q0.015625 -0.765625 -0.34375 -1.1875q-0.34375 -0.4375 -1.046875 -0.4375q-0.359375 0 -0.625 0.140625q-0.265625 0.125 -0.453125 0.34375q-0.171875 0.21875 -0.28125 0.515625q-0.09375 0.296875 -0.109375 0.625l2.859375 0zm10.267578 3.15625q0 0.046875 -0.03125 0.078125q-0.015625 0.03125 -0.078125 0.0625q-0.046875 0.015625 -0.140625 0.015625q-0.09375 0.015625 -0.234375 0.015625q-0.140625 0 -0.234375 -0.015625q-0.09375 0 -0.15625 -0.015625q-0.046875 -0.03125 -0.078125 -0.0625q-0.015625 -0.03125 -0.015625 -0.078125l0 -3.21875q0 -0.328125 -0.0625 -0.59375q-0.0625 -0.28125 -0.1875 -0.484375q-0.125 -0.203125 -0.328125 -0.296875q-0.203125 -0.109375 -0.46875 -0.109375q-0.328125 0 -0.671875 0.265625q-0.328125 0.25 -0.734375 0.75l0 3.6875q0 0.046875 -0.03125 0.078125q-0.015625 0.03125 -0.078125 0.0625q-0.046875 0.015625 -0.140625 0.015625q-0.09375 0.015625 -0.234375 0.015625q-0.140625 0 -0.234375 -0.015625q-0.09375 0 -0.15625 -0.015625q-0.0625 -0.03125 -0.078125 -0.0625q-0.015625 -0.03125 -0.015625 -0.078125l0 -3.21875q0 -0.328125 -0.0625 -0.59375q-0.0625 -0.28125 -0.203125 -0.484375q-0.125 -0.203125 -0.328125 -0.296875q-0.1875 -0.109375 -0.453125 -0.109375q-0.34375 0 -0.6875 0.265625q-0.328125 0.25 -0.734375 0.75l0 3.6875q0 0.046875 -0.03125 0.078125q-0.015625 0.03125 -0.0625 0.0625q-0.046875 0.015625 -0.140625 0.015625q-0.09375 0.015625 -0.25 0.015625q-0.140625 0 -0.234375 -0.015625q-0.09375 0 -0.15625 -0.015625q-0.046875 -0.03125 -0.078125 -0.0625q-0.015625 -0.03125 -0.015625 -0.078125l0 -5.28125q0 -0.046875 0.015625 -0.078125q0.03125 -0.03125 0.078125 -0.046875q0.046875 -0.03125 0.125 -0.046875q0.09375 -0.015625 0.234375 -0.015625q0.125 0 0.203125 0.015625q0.09375 0.015625 0.140625 0.046875q0.046875 0.015625 0.0625 0.046875q0.015625 0.03125 0.015625 0.078125l0 0.703125q0.453125 -0.5 0.859375 -0.734375q0.421875 -0.234375 0.859375 -0.234375q0.328125 0 0.578125 0.078125q0.265625 0.078125 0.46875 0.21875q0.203125 0.140625 0.34375 0.328125q0.140625 0.1875 0.234375 0.421875q0.265625 -0.28125 0.5 -0.484375q0.234375 -0.203125 0.453125 -0.328125q0.21875 -0.125 0.421875 -0.171875q0.21875 -0.0625 0.421875 -0.0625q0.515625 0 0.859375 0.1875q0.34375 0.171875 0.546875 0.46875q0.21875 0.296875 0.3125 0.703125q0.09375 0.40625 0.09375 0.84375l0 3.34375zm5.7421875 0q0 0.0625 -0.046875 0.109375q-0.046875 0.03125 -0.140625 0.046875q-0.078125 0.015625 -0.234375 0.015625q-0.15625 0 -0.25 -0.015625q-0.078125 -0.015625 -0.125 -0.046875q-0.046875 -0.046875 -0.046875 -0.109375l0 -0.53125q-0.34375 0.375 -0.765625 0.578125q-0.421875 0.203125 -0.890625 0.203125q-0.421875 0 -0.765625 -0.109375q-0.328125 -0.109375 -0.578125 -0.3125q-0.234375 -0.203125 -0.359375 -0.5q-0.125 -0.296875 -0.125 -0.6875q0 -0.4375 0.171875 -0.765625q0.1875 -0.328125 0.515625 -0.546875q0.34375 -0.21875 0.828125 -0.328125q0.5 -0.109375 1.125 -0.109375l0.71875 0l0 -0.40625q0 -0.3125 -0.0625 -0.546875q-0.0625 -0.234375 -0.203125 -0.375q-0.140625 -0.15625 -0.375 -0.234375q-0.234375 -0.09375 -0.5625 -0.09375q-0.359375 0 -0.640625 0.09375q-0.28125 0.078125 -0.5 0.1875q-0.21875 0.09375 -0.359375 0.1875q-0.140625 0.078125 -0.21875 0.078125q-0.046875 0 -0.078125 -0.015625q-0.03125 -0.03125 -0.0625 -0.078125q-0.015625 -0.046875 -0.03125 -0.109375q-0.015625 -0.078125 -0.015625 -0.171875q0 -0.140625 0.015625 -0.21875q0.03125 -0.09375 0.109375 -0.171875q0.078125 -0.078125 0.265625 -0.171875q0.203125 -0.109375 0.453125 -0.1875q0.25 -0.09375 0.546875 -0.140625q0.296875 -0.0625 0.609375 -0.0625q0.5625 0 0.953125 0.140625q0.40625 0.125 0.640625 0.375q0.25 0.25 0.359375 0.625q0.125 0.359375 0.125 0.84375l0 3.5625zm-0.96875 -2.40625l-0.828125 0q-0.390625 0 -0.6875 0.0625q-0.296875 0.0625 -0.484375 0.203125q-0.1875 0.125 -0.28125 0.3125q-0.09375 0.1875 -0.09375 0.421875q0 0.421875 0.25 0.671875q0.265625 0.234375 0.734375 0.234375q0.390625 0 0.703125 -0.1875q0.328125 -0.203125 0.6875 -0.609375l0 -1.109375zm7.279297 2.40625q0 0.046875 -0.03125 0.078125q-0.015625 0.03125 -0.078125 0.0625q-0.046875 0.015625 -0.140625 0.015625q-0.09375 0.015625 -0.234375 0.015625q-0.140625 0 -0.234375 -0.015625q-0.09375 0 -0.15625 -0.015625q-0.046875 -0.03125 -0.078125 -0.0625q-0.015625 -0.03125 -0.015625 -0.078125l0 -3.09375q0 -0.453125 -0.078125 -0.71875q-0.0625 -0.28125 -0.203125 -0.484375q-0.125 -0.203125 -0.34375 -0.296875q-0.203125 -0.109375 -0.484375 -0.109375q-0.375 0 -0.734375 0.265625q-0.359375 0.25 -0.765625 0.75l0 3.6875q0 0.046875 -0.03125 0.078125q-0.015625 0.03125 -0.0625 0.0625q-0.046875 0.015625 -0.140625 0.015625q-0.09375 0.015625 -0.25 0.015625q-0.140625 0 -0.234375 -0.015625q-0.09375 0 -0.15625 -0.015625q-0.046875 -0.03125 -0.078125 -0.0625q-0.015625 -0.03125 -0.015625 -0.078125l0 -5.28125q0 -0.046875 0.015625 -0.078125q0.03125 -0.03125 0.078125 -0.046875q0.046875 -0.03125 0.125 -0.046875q0.09375 -0.015625 0.234375 -0.015625q0.125 0 0.203125 0.015625q0.09375 0.015625 0.140625 0.046875q0.046875 0.015625 0.0625 0.046875q0.015625 0.03125 0.015625 0.078125l0 0.703125q0.453125 -0.5 0.890625 -0.734375q0.4375 -0.234375 0.890625 -0.234375q0.53125 0 0.890625 0.1875q0.359375 0.171875 0.578125 0.46875q0.234375 0.296875 0.328125 0.703125q0.09375 0.40625 0.09375 0.96875l0 3.21875zm4.5078125 -0.390625q0 0.171875 -0.03125 0.265625q-0.015625 0.09375 -0.0625 0.140625q-0.046875 0.046875 -0.140625 0.09375q-0.09375 0.046875 -0.21875 0.0625q-0.109375 0.03125 -0.25 0.046875q-0.140625 0.015625 -0.265625 0.015625q-0.421875 0 -0.71875 -0.109375q-0.28125 -0.109375 -0.46875 -0.328125q-0.1875 -0.21875 -0.28125 -0.546875q-0.078125 -0.34375 -0.078125 -0.796875l0 -3.078125l-0.734375 0q-0.09375 0 -0.15625 -0.09375q-0.046875 -0.09375 -0.046875 -0.3125q0 -0.109375 0.015625 -0.1875q0.015625 -0.078125 0.03125 -0.125q0.03125 -0.046875 0.0625 -0.0625q0.046875 -0.03125 0.09375 -0.03125l0.734375 0l0 -1.25q0 -0.046875 0.015625 -0.078125q0.03125 -0.03125 0.078125 -0.046875q0.0625 -0.03125 0.15625 -0.046875q0.09375 -0.015625 0.234375 -0.015625q0.140625 0 0.234375 0.015625q0.09375 0.015625 0.140625 0.046875q0.0625 0.015625 0.078125 0.046875q0.03125 0.03125 0.03125 0.078125l0 1.25l1.359375 0q0.046875 0 0.078125 0.03125q0.03125 0.015625 0.046875 0.0625q0.03125 0.046875 0.046875 0.125q0.015625 0.078125 0.015625 0.1875q0 0.21875 -0.0625 0.3125q-0.046875 0.09375 -0.125 0.09375l-1.359375 0l0 2.9375q0 0.546875 0.15625 0.828125q0.171875 0.265625 0.578125 0.265625q0.140625 0 0.234375 -0.015625q0.109375 -0.03125 0.1875 -0.0625q0.09375 -0.03125 0.140625 -0.046875q0.0625 -0.03125 0.109375 -0.03125q0.03125 0 0.0625 0.015625q0.03125 0.015625 0.03125 0.0625q0.015625 0.03125 0.03125 0.109375q0.015625 0.0625 0.015625 0.171875zm2.2382812 0.390625q0 0.046875 -0.03125 0.078125q-0.015625 0.03125 -0.0625 0.0625q-0.046875 0.015625 -0.140625 0.015625q-0.09375 0.015625 -0.25 0.015625q-0.140625 0 -0.234375 -0.015625q-0.09375 0 -0.15625 -0.015625q-0.046875 -0.03125 -0.078125 -0.0625q-0.015625 -0.03125 -0.015625 -0.078125l0 -5.28125q0 -0.046875 0.015625 -0.078125q0.03125 -0.03125 0.078125 -0.046875q0.0625 -0.03125 0.15625 -0.046875q0.09375 -0.015625 0.234375 -0.015625q0.15625 0 0.25 0.015625q0.09375 0.015625 0.140625 0.046875q0.046875 0.015625 0.0625 0.046875q0.03125 0.03125 0.03125 0.078125l0 5.28125zm0.109375 -7.0625q0 0.34375 -0.125 0.46875q-0.125 0.125 -0.46875 0.125q-0.34375 0 -0.46875 -0.125q-0.125 -0.125 -0.125 -0.453125q0 -0.34375 0.125 -0.46875q0.125 -0.125 0.484375 -0.125q0.328125 0 0.453125 0.125q0.125 0.125 0.125 0.453125zm5.4726562 6.25q0 0.109375 -0.015625 0.1875q0 0.0625 -0.015625 0.109375q-0.015625 0.046875 -0.03125 0.09375q-0.015625 0.03125 -0.09375 0.109375q-0.078125 0.078125 -0.25 0.1875q-0.171875 0.09375 -0.390625 0.1875q-0.21875 0.078125 -0.484375 0.125q-0.25 0.0625 -0.53125 0.0625q-0.5625 0 -1.0 -0.1875q-0.4375 -0.1875 -0.734375 -0.546875q-0.296875 -0.359375 -0.453125 -0.875q-0.15625 -0.53125 -0.15625 -1.21875q0 -0.78125 0.1875 -1.34375q0.1875 -0.5625 0.515625 -0.90625q0.34375 -0.359375 0.78125 -0.53125q0.453125 -0.171875 0.96875 -0.171875q0.25 0 0.484375 0.046875q0.25 0.046875 0.4375 0.125q0.203125 0.0625 0.359375 0.171875q0.15625 0.09375 0.21875 0.171875q0.078125 0.0625 0.109375 0.109375q0.03125 0.03125 0.046875 0.09375q0.015625 0.046875 0.015625 0.125q0.015625 0.0625 0.015625 0.171875q0 0.234375 -0.0625 0.328125q-0.046875 0.078125 -0.125 0.078125q-0.09375 0 -0.203125 -0.09375q-0.109375 -0.09375 -0.296875 -0.203125q-0.171875 -0.125 -0.421875 -0.21875q-0.25 -0.09375 -0.578125 -0.09375q-0.703125 0 -1.078125 0.53125q-0.375 0.53125 -0.375 1.5625q0 0.5 0.09375 0.890625q0.109375 0.375 0.296875 0.640625q0.1875 0.25 0.453125 0.375q0.28125 0.125 0.625 0.125q0.328125 0 0.578125 -0.09375q0.265625 -0.109375 0.4375 -0.234375q0.1875 -0.125 0.3125 -0.21875q0.125 -0.109375 0.203125 -0.109375q0.046875 0 0.0625 0.03125q0.03125 0.015625 0.046875 0.078125q0.03125 0.046875 0.03125 0.140625q0.015625 0.078125 0.015625 0.1875zm7.1777344 0.78125q-0.03125 0.0625 -0.078125 0.109375q-0.03125 0.03125 -0.109375 0.0625q-0.0625 0.015625 -0.1875 0.015625q-0.109375 0.015625 -0.28125 0.015625q-0.125 0 -0.234375 0q-0.09375 0 -0.171875 -0.015625q-0.0625 -0.015625 -0.109375 -0.03125q-0.046875 -0.015625 -0.078125 -0.03125q-0.03125 -0.03125 -0.0625 -0.0625q-0.015625 -0.03125 -0.03125 -0.078125l-2.484375 -7.03125q-0.046875 -0.140625 -0.046875 -0.21875q0 -0.078125 0.046875 -0.109375q0.0625 -0.046875 0.171875 -0.0625q0.125 -0.015625 0.3125 -0.015625q0.171875 0 0.265625 0.015625q0.09375 0.015625 0.140625 0.046875q0.0625 0.015625 0.078125 0.046875q0.03125 0.03125 0.0625 0.09375l2.171875 6.390625l0 0l2.125 -6.375q0.015625 -0.0625 0.03125 -0.09375q0.03125 -0.046875 0.078125 -0.0625q0.0625 -0.03125 0.171875 -0.046875q0.109375 -0.015625 0.28125 -0.015625q0.1875 0 0.28125 0.015625q0.109375 0.015625 0.140625 0.0625q0.046875 0.046875 0.03125 0.125q0 0.078125 -0.046875 0.203125l-2.46875 7.046875zm8.121094 -2.84375q0 0.234375 -0.109375 0.328125q-0.109375 0.09375 -0.265625 0.09375l-3.453125 0q0 0.4375 0.078125 0.796875q0.09375 0.34375 0.296875 0.609375q0.21875 0.25 0.546875 0.390625q0.328125 0.125 0.796875 0.125q0.375 0 0.671875 -0.0625q0.296875 -0.0625 0.5 -0.140625q0.21875 -0.078125 0.359375 -0.140625q0.140625 -0.0625 0.203125 -0.0625q0.046875 0 0.078125 0.03125q0.03125 0.015625 0.046875 0.0625q0.015625 0.03125 0.015625 0.109375q0.015625 0.078125 0.015625 0.171875q0 0.078125 -0.015625 0.140625q0 0.046875 -0.015625 0.09375q0 0.046875 -0.015625 0.078125q-0.015625 0.03125 -0.046875 0.078125q-0.03125 0.03125 -0.203125 0.109375q-0.15625 0.0625 -0.40625 0.140625q-0.25 0.0625 -0.578125 0.109375q-0.328125 0.0625 -0.703125 0.0625q-0.65625 0 -1.15625 -0.171875q-0.484375 -0.1875 -0.8125 -0.546875q-0.328125 -0.359375 -0.5 -0.890625q-0.171875 -0.546875 -0.171875 -1.265625q0 -0.671875 0.171875 -1.21875q0.171875 -0.546875 0.5 -0.921875q0.34375 -0.375 0.8125 -0.578125q0.46875 -0.203125 1.046875 -0.203125q0.625 0 1.0625 0.203125q0.4375 0.203125 0.71875 0.546875q0.28125 0.328125 0.40625 0.78125q0.125 0.453125 0.125 0.96875l0 0.171875zm-0.96875 -0.28125q0.015625 -0.765625 -0.34375 -1.1875q-0.34375 -0.4375 -1.046875 -0.4375q-0.359375 0 -0.625 0.140625q-0.265625 0.125 -0.453125 0.34375q-0.171875 0.21875 -0.28125 0.515625q-0.09375 0.296875 -0.109375 0.625l2.859375 0zm5.533203 -1.78125q0 0.125 -0.015625 0.21875q0 0.09375 -0.015625 0.140625q-0.015625 0.046875 -0.046875 0.078125q-0.03125 0.015625 -0.078125 0.015625q-0.046875 0 -0.109375 -0.015625q-0.0625 -0.03125 -0.15625 -0.046875q-0.078125 -0.03125 -0.1875 -0.046875q-0.109375 -0.03125 -0.234375 -0.03125q-0.140625 0 -0.28125 0.0625q-0.140625 0.046875 -0.296875 0.1875q-0.15625 0.125 -0.328125 0.359375q-0.171875 0.21875 -0.375 0.546875l0 3.46875q0 0.046875 -0.03125 0.078125q-0.015625 0.03125 -0.0625 0.0625q-0.046875 0.015625 -0.140625 0.015625q-0.09375 0.015625 -0.25 0.015625q-0.140625 0 -0.234375 -0.015625q-0.09375 0 -0.15625 -0.015625q-0.046875 -0.03125 -0.078125 -0.0625q-0.015625 -0.03125 -0.015625 -0.078125l0 -5.28125q0 -0.046875 0.015625 -0.078125q0.03125 -0.03125 0.078125 -0.046875q0.046875 -0.03125 0.125 -0.046875q0.09375 -0.015625 0.234375 -0.015625q0.125 0 0.203125 0.015625q0.09375 0.015625 0.140625 0.046875q0.046875 0.015625 0.0625 0.046875q0.015625 0.03125 0.015625 0.078125l0 0.765625q0.21875 -0.3125 0.40625 -0.515625q0.203125 -0.203125 0.359375 -0.3125q0.171875 -0.109375 0.34375 -0.15625q0.171875 -0.046875 0.34375 -0.046875q0.0625 0 0.15625 0.015625q0.109375 0 0.203125 0.03125q0.109375 0.015625 0.1875 0.046875q0.09375 0.03125 0.125 0.0625q0.046875 0.03125 0.046875 0.0625q0.015625 0.015625 0.015625 0.0625q0.015625 0.03125 0.015625 0.125q0.015625 0.078125 0.015625 0.203125zm4.4023438 3.5q0 0.40625 -0.15625 0.71875q-0.140625 0.3125 -0.421875 0.53125q-0.265625 0.21875 -0.65625 0.328125q-0.375 0.109375 -0.828125 0.109375q-0.28125 0 -0.546875 -0.046875q-0.25 -0.03125 -0.453125 -0.09375q-0.203125 -0.078125 -0.34375 -0.15625q-0.140625 -0.078125 -0.203125 -0.125q-0.0625 -0.0625 -0.09375 -0.171875q-0.03125 -0.109375 -0.03125 -0.28125q0 -0.109375 0.015625 -0.1875q0.015625 -0.078125 0.03125 -0.125q0.015625 -0.046875 0.046875 -0.0625q0.03125 -0.03125 0.078125 -0.03125q0.0625 0 0.1875 0.078125q0.125 0.078125 0.3125 0.171875q0.1875 0.09375 0.4375 0.1875q0.25 0.078125 0.578125 0.078125q0.25 0 0.4375 -0.046875q0.203125 -0.0625 0.34375 -0.15625q0.15625 -0.109375 0.234375 -0.265625q0.078125 -0.171875 0.078125 -0.375q0 -0.234375 -0.109375 -0.375q-0.109375 -0.15625 -0.296875 -0.265625q-0.1875 -0.125 -0.421875 -0.21875q-0.234375 -0.09375 -0.484375 -0.1875q-0.25 -0.109375 -0.5 -0.234375q-0.234375 -0.125 -0.421875 -0.296875q-0.1875 -0.1875 -0.296875 -0.4375q-0.109375 -0.25 -0.109375 -0.609375q0 -0.3125 0.109375 -0.59375q0.125 -0.28125 0.359375 -0.484375q0.25 -0.21875 0.609375 -0.34375q0.359375 -0.140625 0.84375 -0.140625q0.203125 0 0.40625 0.046875q0.21875 0.03125 0.390625 0.078125q0.171875 0.046875 0.28125 0.109375q0.125 0.0625 0.1875 0.109375q0.0625 0.046875 0.078125 0.09375q0.03125 0.03125 0.03125 0.078125q0.015625 0.03125 0.015625 0.109375q0.015625 0.0625 0.015625 0.15625q0 0.09375 -0.015625 0.171875q0 0.0625 -0.03125 0.109375q-0.015625 0.046875 -0.046875 0.078125q-0.015625 0.015625 -0.0625 0.015625q-0.046875 0 -0.15625 -0.0625q-0.09375 -0.0625 -0.25 -0.140625q-0.15625 -0.078125 -0.375 -0.140625q-0.203125 -0.0625 -0.484375 -0.0625q-0.25 0 -0.4375 0.0625q-0.1875 0.046875 -0.3125 0.15625q-0.109375 0.09375 -0.171875 0.234375q-0.0625 0.140625 -0.0625 0.3125q0 0.234375 0.109375 0.390625q0.125 0.140625 0.3125 0.265625q0.1875 0.109375 0.421875 0.203125q0.25 0.09375 0.5 0.203125q0.25 0.09375 0.484375 0.21875q0.25 0.125 0.4375 0.296875q0.1875 0.171875 0.296875 0.421875q0.109375 0.25 0.109375 0.59375zm2.3496094 1.4375q0 0.046875 -0.03125 0.078125q-0.015625 0.03125 -0.0625 0.0625q-0.046875 0.015625 -0.140625 0.015625q-0.09375 0.015625 -0.25 0.015625q-0.140625 0 -0.234375 -0.015625q-0.09375 0 -0.15625 -0.015625q-0.046875 -0.03125 -0.078125 -0.0625q-0.015625 -0.03125 -0.015625 -0.078125l0 -5.28125q0 -0.046875 0.015625 -0.078125q0.03125 -0.03125 0.078125 -0.046875q0.0625 -0.03125 0.15625 -0.046875q0.09375 -0.015625 0.234375 -0.015625q0.15625 0 0.25 0.015625q0.09375 0.015625 0.140625 0.046875q0.046875 0.015625 0.0625 0.046875q0.03125 0.03125 0.03125 0.078125l0 5.28125zm0.109375 -7.0625q0 0.34375 -0.125 0.46875q-0.125 0.125 -0.46875 0.125q-0.34375 0 -0.46875 -0.125q-0.125 -0.125 -0.125 -0.453125q0 -0.34375 0.125 -0.46875q0.125 -0.125 0.484375 -0.125q0.328125 0 0.453125 0.125q0.125 0.125 0.125 0.453125zm6.5820312 4.359375q0 0.640625 -0.171875 1.1875q-0.15625 0.546875 -0.5 0.9375q-0.34375 0.390625 -0.84375 0.609375q-0.5 0.21875 -1.171875 0.21875q-0.65625 0 -1.140625 -0.1875q-0.484375 -0.203125 -0.8125 -0.5625q-0.3125 -0.375 -0.46875 -0.890625q-0.15625 -0.53125 -0.15625 -1.203125q0 -0.640625 0.15625 -1.1875q0.171875 -0.546875 0.5 -0.9375q0.34375 -0.390625 0.84375 -0.609375q0.515625 -0.21875 1.1875 -0.21875q0.65625 0 1.125 0.203125q0.484375 0.1875 0.8125 0.5625q0.328125 0.359375 0.484375 0.890625q0.15625 0.53125 0.15625 1.1875zm-1.015625 0.0625q0 -0.421875 -0.078125 -0.796875q-0.078125 -0.390625 -0.265625 -0.671875q-0.171875 -0.296875 -0.484375 -0.453125q-0.3125 -0.171875 -0.78125 -0.171875q-0.421875 0 -0.734375 0.15625q-0.296875 0.140625 -0.5 0.421875q-0.203125 0.28125 -0.296875 0.671875q-0.09375 0.375 -0.09375 0.828125q0 0.421875 0.078125 0.8125q0.078125 0.375 0.25 0.671875q0.1875 0.28125 0.5 0.453125q0.3125 0.15625 0.78125 0.15625q0.421875 0 0.734375 -0.15625q0.3125 -0.15625 0.5 -0.421875q0.203125 -0.28125 0.296875 -0.65625q0.09375 -0.390625 0.09375 -0.84375zm6.984375 2.640625q0 0.046875 -0.03125 0.078125q-0.015625 0.03125 -0.078125 0.0625q-0.046875 0.015625 -0.140625 0.015625q-0.09375 0.015625 -0.234375 0.015625q-0.140625 0 -0.234375 -0.015625q-0.09375 0 -0.15625 -0.015625q-0.046875 -0.03125 -0.078125 -0.0625q-0.015625 -0.03125 -0.015625 -0.078125l0 -3.09375q0 -0.453125 -0.078125 -0.71875q-0.0625 -0.28125 -0.203125 -0.484375q-0.125 -0.203125 -0.34375 -0.296875q-0.203125 -0.109375 -0.484375 -0.109375q-0.375 0 -0.734375 0.265625q-0.359375 0.25 -0.765625 0.75l0 3.6875q0 0.046875 -0.03125 0.078125q-0.015625 0.03125 -0.0625 0.0625q-0.046875 0.015625 -0.140625 0.015625q-0.09375 0.015625 -0.25 0.015625q-0.140625 0 -0.234375 -0.015625q-0.09375 0 -0.15625 -0.015625q-0.046875 -0.03125 -0.078125 -0.0625q-0.015625 -0.03125 -0.015625 -0.078125l0 -5.28125q0 -0.046875 0.015625 -0.078125q0.03125 -0.03125 0.078125 -0.046875q0.046875 -0.03125 0.125 -0.046875q0.09375 -0.015625 0.234375 -0.015625q0.125 0 0.203125 0.015625q0.09375 0.015625 0.140625 0.046875q0.046875 0.015625 0.0625 0.046875q0.015625 0.03125 0.015625 0.078125l0 0.703125q0.453125 -0.5 0.890625 -0.734375q0.4375 -0.234375 0.890625 -0.234375q0.53125 0 0.890625 0.1875q0.359375 0.171875 0.578125 0.46875q0.234375 0.296875 0.328125 0.703125q0.09375 0.40625 0.09375 0.96875l0 3.21875zm2.7265625 0q0 0.046875 -0.03125 0.078125q-0.015625 0.03125 -0.0625 0.0625q-0.046875 0.015625 -0.140625 0.015625q-0.09375 0.015625 -0.25 0.015625q-0.140625 0 -0.234375 -0.015625q-0.09375 0 -0.15625 -0.015625q-0.046875 -0.03125 -0.078125 -0.0625q-0.015625 -0.03125 -0.015625 -0.078125l0 -5.28125q0 -0.046875 0.015625 -0.078125q0.03125 -0.03125 0.078125 -0.046875q0.0625 -0.03125 0.15625 -0.046875q0.09375 -0.015625 0.234375 -0.015625q0.15625 0 0.25 0.015625q0.09375 0.015625 0.140625 0.046875q0.046875 0.015625 0.0625 0.046875q0.03125 0.03125 0.03125 0.078125l0 5.28125zm0.109375 -7.0625q0 0.34375 -0.125 0.46875q-0.125 0.125 -0.46875 0.125q-0.34375 0 -0.46875 -0.125q-0.125 -0.125 -0.125 -0.453125q0 -0.34375 0.125 -0.46875q0.125 -0.125 0.484375 -0.125q0.328125 0 0.453125 0.125q0.125 0.125 0.125 0.453125zm6.2226562 7.0625q0 0.046875 -0.03125 0.078125q-0.015625 0.03125 -0.078125 0.0625q-0.046875 0.015625 -0.140625 0.015625q-0.09375 0.015625 -0.234375 0.015625q-0.140625 0 -0.234375 -0.015625q-0.09375 0 -0.15625 -0.015625q-0.046875 -0.03125 -0.078125 -0.0625q-0.015625 -0.03125 -0.015625 -0.078125l0 -3.09375q0 -0.453125 -0.078125 -0.71875q-0.0625 -0.28125 -0.203125 -0.484375q-0.125 -0.203125 -0.34375 -0.296875q-0.203125 -0.109375 -0.484375 -0.109375q-0.375 0 -0.734375 0.265625q-0.359375 0.25 -0.765625 0.75l0 3.6875q0 0.046875 -0.03125 0.078125q-0.015625 0.03125 -0.0625 0.0625q-0.046875 0.015625 -0.140625 0.015625q-0.09375 0.015625 -0.25 0.015625q-0.140625 0 -0.234375 -0.015625q-0.09375 0 -0.15625 -0.015625q-0.046875 -0.03125 -0.078125 -0.0625q-0.015625 -0.03125 -0.015625 -0.078125l0 -5.28125q0 -0.046875 0.015625 -0.078125q0.03125 -0.03125 0.078125 -0.046875q0.046875 -0.03125 0.125 -0.046875q0.09375 -0.015625 0.234375 -0.015625q0.125 0 0.203125 0.015625q0.09375 0.015625 0.140625 0.046875q0.046875 0.015625 0.0625 0.046875q0.015625 0.03125 0.015625 0.078125l0 0.703125q0.453125 -0.5 0.890625 -0.734375q0.4375 -0.234375 0.890625 -0.234375q0.53125 0 0.890625 0.1875q0.359375 0.171875 0.578125 0.46875q0.234375 0.296875 0.328125 0.703125q0.09375 0.40625 0.09375 0.96875l0 3.21875zm6.1640625 -5.046875q0 0.21875 -0.0625 0.3125q-0.046875 0.078125 -0.125 0.078125l-0.765625 0q0.203125 0.21875 0.28125 0.46875q0.09375 0.25 0.09375 0.53125q0 0.453125 -0.15625 0.8125q-0.140625 0.34375 -0.421875 0.59375q-0.265625 0.234375 -0.640625 0.375q-0.375 0.125 -0.828125 0.125q-0.328125 0 -0.625 -0.078125q-0.28125 -0.09375 -0.4375 -0.21875q-0.109375 0.09375 -0.171875 0.234375q-0.0625 0.140625 -0.0625 0.3125q0 0.203125 0.1875 0.34375q0.1875 0.125 0.5 0.140625l1.390625 0.0625q0.390625 0.015625 0.71875 0.109375q0.328125 0.09375 0.5625 0.28125q0.234375 0.171875 0.375 0.4375q0.140625 0.25 0.140625 0.59375q0 0.375 -0.15625 0.703125q-0.15625 0.328125 -0.46875 0.578125q-0.3125 0.25 -0.796875 0.390625q-0.484375 0.140625 -1.15625 0.140625q-0.625 0 -1.078125 -0.109375q-0.453125 -0.109375 -0.75 -0.296875q-0.28125 -0.1875 -0.40625 -0.453125q-0.125 -0.25 -0.125 -0.5625q0 -0.1875 0.046875 -0.375q0.046875 -0.171875 0.140625 -0.34375q0.09375 -0.171875 0.234375 -0.3125q0.15625 -0.15625 0.34375 -0.296875q-0.296875 -0.140625 -0.4375 -0.359375q-0.125 -0.234375 -0.125 -0.484375q0 -0.359375 0.140625 -0.640625q0.140625 -0.28125 0.359375 -0.515625q-0.171875 -0.203125 -0.28125 -0.46875q-0.109375 -0.28125 -0.109375 -0.671875q0 -0.453125 0.15625 -0.8125q0.15625 -0.359375 0.421875 -0.59375q0.265625 -0.25 0.640625 -0.375q0.390625 -0.140625 0.828125 -0.140625q0.234375 0 0.4375 0.03125q0.21875 0.015625 0.40625 0.0625l1.59375 0q0.09375 0 0.140625 0.109375q0.046875 0.09375 0.046875 0.28125zm-1.5 1.390625q0 -0.53125 -0.296875 -0.828125q-0.296875 -0.3125 -0.84375 -0.3125q-0.28125 0 -0.5 0.09375q-0.203125 0.09375 -0.34375 0.265625q-0.125 0.15625 -0.203125 0.375q-0.0625 0.21875 -0.0625 0.453125q0 0.515625 0.296875 0.8125q0.296875 0.296875 0.828125 0.296875q0.28125 0 0.484375 -0.078125q0.21875 -0.09375 0.359375 -0.25q0.140625 -0.171875 0.203125 -0.375q0.078125 -0.21875 0.078125 -0.453125zm0.484375 4.1875q0 -0.34375 -0.28125 -0.53125q-0.28125 -0.1875 -0.75 -0.1875l-1.375 -0.046875q-0.1875 0.140625 -0.3125 0.28125q-0.109375 0.125 -0.1875 0.234375q-0.0625 0.125 -0.09375 0.234375q-0.015625 0.125 -0.015625 0.25q0 0.390625 0.375 0.578125q0.390625 0.203125 1.078125 0.203125q0.453125 0 0.734375 -0.09375q0.296875 -0.078125 0.484375 -0.21875q0.1875 -0.140625 0.265625 -0.328125q0.078125 -0.171875 0.078125 -0.375zm10.783203 -6.9375q0 0.109375 -0.015625 0.203125q0 0.078125 -0.03125 0.140625q-0.015625 0.046875 -0.0625 0.078125q-0.03125 0.015625 -0.078125 0.015625q-0.0625 0 -0.234375 -0.109375q-0.15625 -0.109375 -0.4375 -0.25q-0.265625 -0.140625 -0.65625 -0.25q-0.375 -0.109375 -0.90625 -0.109375q-0.625 0 -1.125 0.234375q-0.5 0.21875 -0.84375 0.625q-0.34375 0.40625 -0.53125 0.96875q-0.1875 0.546875 -0.1875 1.203125q0 0.71875 0.203125 1.28125q0.203125 0.5625 0.5625 0.953125q0.359375 0.390625 0.84375 0.59375q0.5 0.1875 1.09375 0.1875q0.34375 0 0.703125 -0.078125q0.375 -0.078125 0.671875 -0.25l0 -2.21875l-1.75 0q-0.09375 0 -0.15625 -0.09375q-0.046875 -0.09375 -0.046875 -0.3125q0 -0.109375 0.015625 -0.1875q0.015625 -0.078125 0.03125 -0.125q0.03125 -0.0625 0.0625 -0.078125q0.046875 -0.03125 0.09375 -0.03125l2.40625 0q0.0625 0 0.125 0.03125q0.0625 0.015625 0.109375 0.0625q0.0625 0.046875 0.09375 0.140625q0.03125 0.078125 0.03125 0.1875l0 2.890625q0 0.140625 -0.0625 0.265625q-0.046875 0.109375 -0.21875 0.1875q-0.171875 0.078125 -0.4375 0.1875q-0.265625 0.09375 -0.5625 0.171875q-0.28125 0.0625 -0.578125 0.09375q-0.28125 0.046875 -0.578125 0.046875q-0.875 0 -1.5625 -0.265625q-0.6875 -0.28125 -1.171875 -0.78125q-0.484375 -0.515625 -0.734375 -1.21875q-0.25 -0.703125 -0.25 -1.5625q0 -0.90625 0.265625 -1.640625q0.28125 -0.734375 0.765625 -1.25q0.5 -0.515625 1.1875 -0.796875q0.703125 -0.28125 1.546875 -0.28125q0.4375 0 0.8125 0.078125q0.390625 0.078125 0.6875 0.1875q0.296875 0.09375 0.5 0.21875q0.203125 0.109375 0.265625 0.1875q0.078125 0.078125 0.109375 0.1875q0.03125 0.09375 0.03125 0.28125zm4.8515625 1.46875q0 0.125 -0.015625 0.21875q0 0.09375 -0.015625 0.140625q-0.015625 0.046875 -0.046875 0.078125q-0.03125 0.015625 -0.078125 0.015625q-0.046875 0 -0.109375 -0.015625q-0.0625 -0.03125 -0.15625 -0.046875q-0.078125 -0.03125 -0.1875 -0.046875q-0.109375 -0.03125 -0.234375 -0.03125q-0.140625 0 -0.28125 0.0625q-0.140625 0.046875 -0.296875 0.1875q-0.15625 0.125 -0.328125 0.359375q-0.171875 0.21875 -0.375 0.546875l0 3.46875q0 0.046875 -0.03125 0.078125q-0.015625 0.03125 -0.0625 0.0625q-0.046875 0.015625 -0.140625 0.015625q-0.09375 0.015625 -0.25 0.015625q-0.140625 0 -0.234375 -0.015625q-0.09375 0 -0.15625 -0.015625q-0.046875 -0.03125 -0.078125 -0.0625q-0.015625 -0.03125 -0.015625 -0.078125l0 -5.28125q0 -0.046875 0.015625 -0.078125q0.03125 -0.03125 0.078125 -0.046875q0.046875 -0.03125 0.125 -0.046875q0.09375 -0.015625 0.234375 -0.015625q0.125 0 0.203125 0.015625q0.09375 0.015625 0.140625 0.046875q0.046875 0.015625 0.0625 0.046875q0.015625 0.03125 0.015625 0.078125l0 0.765625q0.21875 -0.3125 0.40625 -0.515625q0.203125 -0.203125 0.359375 -0.3125q0.171875 -0.109375 0.34375 -0.15625q0.171875 -0.046875 0.34375 -0.046875q0.0625 0 0.15625 0.015625q0.109375 0 0.203125 0.03125q0.109375 0.015625 0.1875 0.046875q0.09375 0.03125 0.125 0.0625q0.046875 0.03125 0.046875 0.0625q0.015625 0.015625 0.015625 0.0625q0.015625 0.03125 0.015625 0.125q0.015625 0.078125 0.015625 0.203125zm5.0742188 4.9375q0 0.0625 -0.046875 0.109375q-0.046875 0.03125 -0.140625 0.046875q-0.078125 0.015625 -0.234375 0.015625q-0.15625 0 -0.25 -0.015625q-0.078125 -0.015625 -0.125 -0.046875q-0.046875 -0.046875 -0.046875 -0.109375l0 -0.53125q-0.34375 0.375 -0.765625 0.578125q-0.421875 0.203125 -0.890625 0.203125q-0.421875 0 -0.765625 -0.109375q-0.328125 -0.109375 -0.578125 -0.3125q-0.234375 -0.203125 -0.359375 -0.5q-0.125 -0.296875 -0.125 -0.6875q0 -0.4375 0.171875 -0.765625q0.1875 -0.328125 0.515625 -0.546875q0.34375 -0.21875 0.828125 -0.328125q0.5 -0.109375 1.125 -0.109375l0.71875 0l0 -0.40625q0 -0.3125 -0.0625 -0.546875q-0.0625 -0.234375 -0.203125 -0.375q-0.140625 -0.15625 -0.375 -0.234375q-0.234375 -0.09375 -0.5625 -0.09375q-0.359375 0 -0.640625 0.09375q-0.28125 0.078125 -0.5 0.1875q-0.21875 0.09375 -0.359375 0.1875q-0.140625 0.078125 -0.21875 0.078125q-0.046875 0 -0.078125 -0.015625q-0.03125 -0.03125 -0.0625 -0.078125q-0.015625 -0.046875 -0.03125 -0.109375q-0.015625 -0.078125 -0.015625 -0.171875q0 -0.140625 0.015625 -0.21875q0.03125 -0.09375 0.109375 -0.171875q0.078125 -0.078125 0.265625 -0.171875q0.203125 -0.109375 0.453125 -0.1875q0.25 -0.09375 0.546875 -0.140625q0.296875 -0.0625 0.609375 -0.0625q0.5625 0 0.953125 0.140625q0.40625 0.125 0.640625 0.375q0.25 0.25 0.359375 0.625q0.125 0.359375 0.125 0.84375l0 3.5625zm-0.96875 -2.40625l-0.828125 0q-0.390625 0 -0.6875 0.0625q-0.296875 0.0625 -0.484375 0.203125q-0.1875 0.125 -0.28125 0.3125q-0.09375 0.1875 -0.09375 0.421875q0 0.421875 0.25 0.671875q0.265625 0.234375 0.734375 0.234375q0.390625 0 0.703125 -0.1875q0.328125 -0.203125 0.6875 -0.609375l0 -1.109375zm7.263672 2.40625q0 0.046875 -0.03125 0.078125q-0.015625 0.03125 -0.0625 0.0625q-0.046875 0.015625 -0.140625 0.015625q-0.078125 0.015625 -0.1875 0.015625q-0.125 0 -0.21875 -0.015625q-0.078125 0 -0.140625 -0.015625q-0.046875 -0.03125 -0.078125 -0.0625q-0.015625 -0.03125 -0.015625 -0.078125l0 -0.703125q-0.40625 0.453125 -0.859375 0.703125q-0.453125 0.25 -0.984375 0.25q-0.578125 0 -0.984375 -0.21875q-0.40625 -0.234375 -0.671875 -0.609375q-0.25 -0.390625 -0.375 -0.90625q-0.109375 -0.515625 -0.109375 -1.09375q0 -0.6875 0.140625 -1.234375q0.15625 -0.546875 0.4375 -0.921875q0.296875 -0.390625 0.71875 -0.59375q0.421875 -0.21875 0.984375 -0.21875q0.453125 0 0.828125 0.203125q0.390625 0.203125 0.765625 0.59375l0 -3.0625q0 -0.046875 0.015625 -0.078125q0.03125 -0.03125 0.078125 -0.046875q0.0625 -0.03125 0.15625 -0.046875q0.09375 -0.015625 0.234375 -0.015625q0.140625 0 0.234375 0.015625q0.09375 0.015625 0.140625 0.046875q0.0625 0.015625 0.09375 0.046875q0.03125 0.03125 0.03125 0.078125l0 7.8125zm-0.984375 -3.71875q-0.390625 -0.484375 -0.765625 -0.734375q-0.359375 -0.265625 -0.75 -0.265625q-0.375 0 -0.640625 0.1875q-0.25 0.171875 -0.40625 0.46875q-0.15625 0.28125 -0.234375 0.640625q-0.078125 0.359375 -0.078125 0.734375q0 0.40625 0.0625 0.78125q0.0625 0.375 0.21875 0.671875q0.15625 0.296875 0.40625 0.484375q0.25 0.171875 0.625 0.171875q0.203125 0 0.375 -0.046875q0.171875 -0.0625 0.359375 -0.171875q0.1875 -0.125 0.390625 -0.3125q0.21875 -0.203125 0.4375 -0.5l0 -2.109375zm3.7265625 3.71875q0 0.046875 -0.03125 0.078125q-0.015625 0.03125 -0.0625 0.0625q-0.046875 0.015625 -0.140625 0.015625q-0.09375 0.015625 -0.25 0.015625q-0.140625 0 -0.234375 -0.015625q-0.09375 0 -0.15625 -0.015625q-0.046875 -0.03125 -0.078125 -0.0625q-0.015625 -0.03125 -0.015625 -0.078125l0 -7.828125q0 -0.046875 0.015625 -0.078125q0.03125 -0.046875 0.078125 -0.0625q0.0625 -0.03125 0.15625 -0.03125q0.09375 -0.015625 0.234375 -0.015625q0.15625 0 0.25 0.015625q0.09375 0 0.140625 0.03125q0.046875 0.015625 0.0625 0.0625q0.03125 0.03125 0.03125 0.078125l0 7.828125zm6.2851562 -2.875q0 0.234375 -0.109375 0.328125q-0.109375 0.09375 -0.265625 0.09375l-3.453125 0q0 0.4375 0.078125 0.796875q0.09375 0.34375 0.296875 0.609375q0.21875 0.25 0.546875 0.390625q0.328125 0.125 0.796875 0.125q0.375 0 0.671875 -0.0625q0.296875 -0.0625 0.5 -0.140625q0.21875 -0.078125 0.359375 -0.140625q0.140625 -0.0625 0.203125 -0.0625q0.046875 0 0.078125 0.03125q0.03125 0.015625 0.046875 0.0625q0.015625 0.03125 0.015625 0.109375q0.015625 0.078125 0.015625 0.171875q0 0.078125 -0.015625 0.140625q0 0.046875 -0.015625 0.09375q0 0.046875 -0.015625 0.078125q-0.015625 0.03125 -0.046875 0.078125q-0.03125 0.03125 -0.203125 0.109375q-0.15625 0.0625 -0.40625 0.140625q-0.25 0.0625 -0.578125 0.109375q-0.328125 0.0625 -0.703125 0.0625q-0.65625 0 -1.15625 -0.171875q-0.484375 -0.1875 -0.8125 -0.546875q-0.328125 -0.359375 -0.5 -0.890625q-0.171875 -0.546875 -0.171875 -1.265625q0 -0.671875 0.171875 -1.21875q0.171875 -0.546875 0.5 -0.921875q0.34375 -0.375 0.8125 -0.578125q0.46875 -0.203125 1.046875 -0.203125q0.625 0 1.0625 0.203125q0.4375 0.203125 0.71875 0.546875q0.28125 0.328125 0.40625 0.78125q0.125 0.453125 0.125 0.96875l0 0.171875zm-0.96875 -0.28125q0.015625 -0.765625 -0.34375 -1.1875q-0.34375 -0.4375 -1.046875 -0.4375q-0.359375 0 -0.625 0.140625q-0.265625 0.125 -0.453125 0.34375q-0.171875 0.21875 -0.28125 0.515625q-0.09375 0.296875 -0.109375 0.625l2.859375 0zm9.933594 -2.0625q0 0.5625 -0.1875 1.03125q-0.1875 0.453125 -0.546875 0.78125q-0.34375 0.3125 -0.859375 0.484375q-0.5 0.171875 -1.203125 0.171875l-0.859375 0l0 2.734375q0 0.046875 -0.03125 0.09375q-0.015625 0.03125 -0.078125 0.046875q-0.046875 0.015625 -0.15625 0.03125q-0.09375 0.015625 -0.234375 0.015625q-0.15625 0 -0.25 -0.015625q-0.09375 -0.015625 -0.15625 -0.03125q-0.046875 -0.015625 -0.078125 -0.046875q-0.015625 -0.046875 -0.015625 -0.09375l0 -7.0q0 -0.234375 0.109375 -0.328125q0.125 -0.09375 0.28125 -0.09375l1.625 0q0.25 0 0.46875 0.015625q0.234375 0.015625 0.53125 0.09375q0.3125 0.0625 0.625 0.25q0.328125 0.1875 0.546875 0.453125q0.21875 0.265625 0.34375 0.625q0.125 0.34375 0.125 0.78125zm-1.0625 0.078125q0 -0.46875 -0.171875 -0.765625q-0.171875 -0.3125 -0.4375 -0.46875q-0.25 -0.15625 -0.53125 -0.1875q-0.265625 -0.046875 -0.515625 -0.046875l-0.9375 0l0 3.046875l0.90625 0q0.453125 0 0.75 -0.109375q0.3125 -0.125 0.515625 -0.328125q0.203125 -0.21875 0.3125 -0.5q0.109375 -0.296875 0.109375 -0.640625zm3.4492188 5.140625q0 0.046875 -0.03125 0.078125q-0.015625 0.03125 -0.0625 0.0625q-0.046875 0.015625 -0.140625 0.015625q-0.09375 0.015625 -0.25 0.015625q-0.140625 0 -0.234375 -0.015625q-0.09375 0 -0.15625 -0.015625q-0.046875 -0.03125 -0.078125 -0.0625q-0.015625 -0.03125 -0.015625 -0.078125l0 -7.828125q0 -0.046875 0.015625 -0.078125q0.03125 -0.046875 0.078125 -0.0625q0.0625 -0.03125 0.15625 -0.03125q0.09375 -0.015625 0.234375 -0.015625q0.15625 0 0.25 0.015625q0.09375 0 0.140625 0.03125q0.046875 0.015625 0.0625 0.0625q0.03125 0.03125 0.03125 0.078125l0 7.828125zm6.3164062 0q0 0.046875 -0.03125 0.078125q-0.015625 0.03125 -0.078125 0.0625q-0.046875 0.015625 -0.140625 0.015625q-0.078125 0.015625 -0.203125 0.015625q-0.125 0 -0.21875 -0.015625q-0.078125 0 -0.125 -0.015625q-0.046875 -0.03125 -0.078125 -0.0625q-0.015625 -0.03125 -0.015625 -0.078125l0 -0.703125q-0.453125 0.5 -0.890625 0.734375q-0.4375 0.21875 -0.890625 0.21875q-0.515625 0 -0.890625 -0.171875q-0.359375 -0.171875 -0.578125 -0.46875q-0.21875 -0.3125 -0.3125 -0.703125q-0.09375 -0.40625 -0.09375 -0.984375l0 -3.203125q0 -0.046875 0.015625 -0.078125q0.015625 -0.03125 0.078125 -0.046875q0.0625 -0.03125 0.15625 -0.046875q0.09375 -0.015625 0.234375 -0.015625q0.140625 0 0.234375 0.015625q0.09375 0.015625 0.140625 0.046875q0.0625 0.015625 0.078125 0.046875q0.03125 0.03125 0.03125 0.078125l0 3.078125q0 0.453125 0.0625 0.734375q0.0625 0.28125 0.203125 0.484375q0.140625 0.1875 0.34375 0.296875q0.21875 0.109375 0.5 0.109375q0.359375 0 0.71875 -0.25q0.359375 -0.265625 0.765625 -0.765625l0 -3.6875q0 -0.046875 0.015625 -0.078125q0.03125 -0.03125 0.078125 -0.046875q0.0625 -0.03125 0.15625 -0.046875q0.09375 -0.015625 0.234375 -0.015625q0.140625 0 0.234375 0.015625q0.09375 0.015625 0.140625 0.046875q0.0625 0.015625 0.09375 0.046875q0.03125 0.03125 0.03125 0.078125l0 5.28125zm6.1796875 -5.046875q0 0.21875 -0.0625 0.3125q-0.046875 0.078125 -0.125 0.078125l-0.765625 0q0.203125 0.21875 0.28125 0.46875q0.09375 0.25 0.09375 0.53125q0 0.453125 -0.15625 0.8125q-0.140625 0.34375 -0.421875 0.59375q-0.265625 0.234375 -0.640625 0.375q-0.375 0.125 -0.828125 0.125q-0.328125 0 -0.625 -0.078125q-0.28125 -0.09375 -0.4375 -0.21875q-0.109375 0.09375 -0.171875 0.234375q-0.0625 0.140625 -0.0625 0.3125q0 0.203125 0.1875 0.34375q0.1875 0.125 0.5 0.140625l1.390625 0.0625q0.390625 0.015625 0.71875 0.109375q0.328125 0.09375 0.5625 0.28125q0.234375 0.171875 0.375 0.4375q0.140625 0.25 0.140625 0.59375q0 0.375 -0.15625 0.703125q-0.15625 0.328125 -0.46875 0.578125q-0.3125 0.25 -0.796875 0.390625q-0.484375 0.140625 -1.15625 0.140625q-0.625 0 -1.078125 -0.109375q-0.453125 -0.109375 -0.75 -0.296875q-0.28125 -0.1875 -0.40625 -0.453125q-0.125 -0.25 -0.125 -0.5625q0 -0.1875 0.046875 -0.375q0.046875 -0.171875 0.140625 -0.34375q0.09375 -0.171875 0.234375 -0.3125q0.15625 -0.15625 0.34375 -0.296875q-0.296875 -0.140625 -0.4375 -0.359375q-0.125 -0.234375 -0.125 -0.484375q0 -0.359375 0.140625 -0.640625q0.140625 -0.28125 0.359375 -0.515625q-0.171875 -0.203125 -0.28125 -0.46875q-0.109375 -0.28125 -0.109375 -0.671875q0 -0.453125 0.15625 -0.8125q0.15625 -0.359375 0.421875 -0.59375q0.265625 -0.25 0.640625 -0.375q0.390625 -0.140625 0.828125 -0.140625q0.234375 0 0.4375 0.03125q0.21875 0.015625 0.40625 0.0625l1.59375 0q0.09375 0 0.140625 0.109375q0.046875 0.09375 0.046875 0.28125zm-1.5 1.390625q0 -0.53125 -0.296875 -0.828125q-0.296875 -0.3125 -0.84375 -0.3125q-0.28125 0 -0.5 0.09375q-0.203125 0.09375 -0.34375 0.265625q-0.125 0.15625 -0.203125 0.375q-0.0625 0.21875 -0.0625 0.453125q0 0.515625 0.296875 0.8125q0.296875 0.296875 0.828125 0.296875q0.28125 0 0.484375 -0.078125q0.21875 -0.09375 0.359375 -0.25q0.140625 -0.171875 0.203125 -0.375q0.078125 -0.21875 0.078125 -0.453125zm0.484375 4.1875q0 -0.34375 -0.28125 -0.53125q-0.28125 -0.1875 -0.75 -0.1875l-1.375 -0.046875q-0.1875 0.140625 -0.3125 0.28125q-0.109375 0.125 -0.1875 0.234375q-0.0625 0.125 -0.09375 0.234375q-0.015625 0.125 -0.015625 0.25q0 0.390625 0.375 0.578125q0.390625 0.203125 1.078125 0.203125q0.453125 0 0.734375 -0.09375q0.296875 -0.078125 0.484375 -0.21875q0.1875 -0.140625 0.265625 -0.328125q0.078125 -0.171875 0.078125 -0.375zm3.2265625 -0.53125q0 0.046875 -0.03125 0.078125q-0.015625 0.03125 -0.0625 0.0625q-0.046875 0.015625 -0.140625 0.015625q-0.09375 0.015625 -0.25 0.015625q-0.140625 0 -0.234375 -0.015625q-0.09375 0 -0.15625 -0.015625q-0.046875 -0.03125 -0.078125 -0.0625q-0.015625 -0.03125 -0.015625 -0.078125l0 -5.28125q0 -0.046875 0.015625 -0.078125q0.03125 -0.03125 0.078125 -0.046875q0.0625 -0.03125 0.15625 -0.046875q0.09375 -0.015625 0.234375 -0.015625q0.15625 0 0.25 0.015625q0.09375 0.015625 0.140625 0.046875q0.046875 0.015625 0.0625 0.046875q0.03125 0.03125 0.03125 0.078125l0 5.28125zm0.109375 -7.0625q0 0.34375 -0.125 0.46875q-0.125 0.125 -0.46875 0.125q-0.34375 0 -0.46875 -0.125q-0.125 -0.125 -0.125 -0.453125q0 -0.34375 0.125 -0.46875q0.125 -0.125 0.484375 -0.125q0.328125 0 0.453125 0.125q0.125 0.125 0.125 0.453125zm6.2226562 7.0625q0 0.046875 -0.03125 0.078125q-0.015625 0.03125 -0.078125 0.0625q-0.046875 0.015625 -0.140625 0.015625q-0.09375 0.015625 -0.234375 0.015625q-0.140625 0 -0.234375 -0.015625q-0.09375 0 -0.15625 -0.015625q-0.046875 -0.03125 -0.078125 -0.0625q-0.015625 -0.03125 -0.015625 -0.078125l0 -3.09375q0 -0.453125 -0.078125 -0.71875q-0.0625 -0.28125 -0.203125 -0.484375q-0.125 -0.203125 -0.34375 -0.296875q-0.203125 -0.109375 -0.484375 -0.109375q-0.375 0 -0.734375 0.265625q-0.359375 0.25 -0.765625 0.75l0 3.6875q0 0.046875 -0.03125 0.078125q-0.015625 0.03125 -0.0625 0.0625q-0.046875 0.015625 -0.140625 0.015625q-0.09375 0.015625 -0.25 0.015625q-0.140625 0 -0.234375 -0.015625q-0.09375 0 -0.15625 -0.015625q-0.046875 -0.03125 -0.078125 -0.0625q-0.015625 -0.03125 -0.015625 -0.078125l0 -5.28125q0 -0.046875 0.015625 -0.078125q0.03125 -0.03125 0.078125 -0.046875q0.046875 -0.03125 0.125 -0.046875q0.09375 -0.015625 0.234375 -0.015625q0.125 0 0.203125 0.015625q0.09375 0.015625 0.140625 0.046875q0.046875 0.015625 0.0625 0.046875q0.015625 0.03125 0.015625 0.078125l0 0.703125q0.453125 -0.5 0.890625 -0.734375q0.4375 -0.234375 0.890625 -0.234375q0.53125 0 0.890625 0.1875q0.359375 0.171875 0.578125 0.46875q0.234375 0.296875 0.328125 0.703125q0.09375 0.40625 0.09375 0.96875l0 3.21875z" fill-rule="nonzero"></path><path fill="#000000" fill-opacity="0.0" d="m125.00001 12.56422l0 0c62.179955 0 113.424 27.547607 116.48 62.616932c3.0559998 35.069313 -43.151016 65.32472 -105.03058 68.771866c-61.879562 3.4471436 -117.66555 -21.126503 -126.80401 -55.856987c-9.138458 -34.73048 31.585064 -67.40135 92.56636 -74.26234l22.788223 64.58399z" fill-rule="nonzero"></path><path fill="#000000" fill-opacity="0.0" d="m125.00001 12.56422l0 0c62.179955 0 113.424 27.547607 116.48 62.616932c3.0559998 35.069313 -43.151016 65.32472 -105.03058 68.771866c-61.879562 3.4471436 -117.66555 -21.126503 -126.80401 -55.856987c-9.138458 -34.73048 31.585064 -67.40135 92.56636 -74.26234" fill-rule="nonzero"></path><path stroke="#000000" stroke-width="2.0" stroke-linejoin="round" stroke-linecap="butt" d="m125.00001 12.56422l0 0c62.179955 0 113.424 27.547607 116.48 62.616932c3.0559998 35.069313 -43.151016 65.32472 -105.03058 68.771866c-61.879562 3.4471436 -117.66555 -21.126503 -126.80401 -55.856987c-9.138458 -34.73048 31.585064 -67.40135 92.56636 -74.26234" fill-rule="nonzero"></path></g></svg>

