<?xml version="1.0" encoding="UTF-8" standalone="no"?>
<!-- Created with Inkscape (http://www.inkscape.org/) -->

<svg
   xmlns:dc="http://purl.org/dc/elements/1.1/"
   xmlns:cc="http://creativecommons.org/ns#"
   xmlns:rdf="http://www.w3.org/1999/02/22-rdf-syntax-ns#"
   xmlns:svg="http://www.w3.org/2000/svg"
   xmlns="http://www.w3.org/2000/svg"
   xmlns:xlink="http://www.w3.org/1999/xlink"
   xmlns:sodipodi="http://sodipodi.sourceforge.net/DTD/sodipodi-0.dtd"
   xmlns:inkscape="http://www.inkscape.org/namespaces/inkscape"
   width="1238.8103"
   height="485.37473"
   id="svg2"
   version="1.1"
   inkscape:version="0.48.5 r10040"
   sodipodi:docname="semverLogoText.svg">
  <defs
     id="defs4">
    <linearGradient
       inkscape:collect="always"
       id="linearGradient3974">
      <stop
         style="stop-color:#83c585;stop-opacity:1;"
         offset="0"
         id="stop3976" />
      <stop
         style="stop-color:#83c585;stop-opacity:0;"
         offset="1"
         id="stop3978" />
    </linearGradient>
    <linearGradient
       id="linearGradient3958">
      <stop
         style="stop-color:#b5dd9f;stop-opacity:1;"
         offset="0"
         id="stop3960" />
      <stop
         style="stop-color:#b5dd9f;stop-opacity:0;"
         offset="1"
         id="stop3962" />
    </linearGradient>
    <inkscape:path-effect
       effect="gears"
       id="path-effect3998"
       is_visible="true"
       teeth="10"
       phi="5" />
    <inkscape:path-effect
       effect="envelope"
       id="path-effect3996"
       is_visible="true"
       yy="true"
       xx="true"
       bendpath1="m -132.31518,267.33208 485.65705,0"
       bendpath2="m 353.34187,267.33208 0,481.49953"
       bendpath3="m -132.31518,748.83161 485.65705,0"
       bendpath4="m -132.31518,267.33208 0,481.49953" />
    <inkscape:path-effect
       effect="construct_grid"
       id="path-effect3994"
       is_visible="true"
       nr_x="5"
       nr_y="5" />
    <inkscape:path-effect
       effect="knot"
       id="path-effect3992"
       is_visible="true"
       interruption_width="3"
       prop_to_stroke_width="true"
       add_stroke_width="true"
       add_other_stroke_width="true"
       switcher_size="15"
       crossing_points_vector="" />
    <inkscape:path-effect
       effect="bend_path"
       id="path-effect3990"
       is_visible="true"
       bendpath="m -132.31518,508.08184 485.65705,0"
       prop_scale="1"
       scale_y_rel="false"
       vertical="false" />
    <linearGradient
       inkscape:collect="always"
       xlink:href="#linearGradient3958"
       id="linearGradient3964"
       x1="171.61073"
       y1="977.45251"
       x2="460.4346"
       y2="810.69995"
       gradientUnits="userSpaceOnUse" />
    <linearGradient
       inkscape:collect="always"
       xlink:href="#linearGradient3974"
       id="linearGradient3980"
       x1="34.592781"
       y1="796.78156"
       x2="390.70755"
       y2="1002.3845"
       gradientUnits="userSpaceOnUse" />
    <filter
       inkscape:label="Drop Shadow"
       inkscape:menu="Morphology"
       inkscape:menu-tooltip="Smooth the outside of shapes and pictures without altering their contents"
       color-interpolation-filters="sRGB"
       id="filter4505">
      <feGaussianBlur
         stdDeviation="3"
         result="result1"
         id="feGaussianBlur4507" />
      <feComposite
         operator="arithmetic"
         k2="2"
         k4="-1"
         in="result1"
         result="result2"
         in2="SourceGraphic"
         id="feComposite4509"
         k1="0"
         k3="0" />
      <feColorMatrix
         values="0 0 0 0 0 0 1 0 0 0 0 0 1 0 0 0 0 0 8 -6 "
         result="result3"
         id="feColorMatrix4511" />
      <feComposite
         in="SourceGraphic"
         operator="in"
         in2="result3"
         id="feComposite4513"
         result="fbSourceGraphic" />
      <feColorMatrix
         result="fbSourceGraphicAlpha"
         in="fbSourceGraphic"
         values="0 0 0 -1 0 0 0 0 -1 0 0 0 0 -1 0 0 0 0 1 0"
         id="feColorMatrix4607" />
      <feGaussianBlur
         id="feGaussianBlur4609"
         stdDeviation="3"
         result="result1"
         in="fbSourceGraphic" />
      <feComposite
         in2="fbSourceGraphic"
         id="feComposite4611"
         operator="arithmetic"
         k2="2"
         k4="-1"
         in="result1"
         result="result2"
         k1="0"
         k3="0" />
      <feColorMatrix
         id="feColorMatrix4613"
         values="0 0 0 0 0 0 1 0 0 0 0 0 1 0 0 0 0 0 8 -6 "
         result="result3" />
      <feComposite
         in2="result3"
         id="feComposite4615"
         in="fbSourceGraphic"
         operator="in"
         result="fbSourceGraphic" />
      <feColorMatrix
         result="fbSourceGraphicAlpha"
         in="fbSourceGraphic"
         values="0 0 0 -1 0 0 0 0 -1 0 0 0 0 -1 0 0 0 0 1 0"
         id="feColorMatrix8102" />
      <feFlood
         id="feFlood8104"
         flood-opacity="0.4"
         flood-color="rgb(0,0,0)"
         result="flood"
         in="fbSourceGraphic" />
      <feComposite
         id="feComposite8106"
         in2="fbSourceGraphic"
         in="flood"
         operator="in"
         result="composite1" />
      <feGaussianBlur
         id="feGaussianBlur8108"
         stdDeviation="2"
         result="blur" />
      <feOffset
         id="feOffset8110"
         dx="-2"
         dy="-2.3"
         result="offset" />
      <feComposite
         id="feComposite8112"
         in2="offset"
         in="fbSourceGraphic"
         operator="over"
         result="composite2" />
    </filter>
    <filter
       inkscape:label="Drop Shadow"
       inkscape:menu="Morphology"
       inkscape:menu-tooltip="Smooth the outside of shapes and pictures without altering their contents"
       color-interpolation-filters="sRGB"
       id="filter4587">
      <feGaussianBlur
         stdDeviation="3"
         result="result1"
         id="feGaussianBlur4589" />
      <feComposite
         operator="arithmetic"
         k2="2"
         k4="-1"
         in="result1"
         result="result2"
         in2="SourceGraphic"
         id="feComposite4591"
         k1="0"
         k3="0" />
      <feColorMatrix
         values="0 0 0 0 0 0 1 0 0 0 0 0 1 0 0 0 0 0 8 -6 "
         result="result3"
         id="feColorMatrix4593" />
      <feComposite
         in="SourceGraphic"
         operator="in"
         in2="result3"
         id="feComposite4595"
         result="fbSourceGraphic" />
      <feColorMatrix
         result="fbSourceGraphicAlpha"
         in="fbSourceGraphic"
         values="0 0 0 -1 0 0 0 0 -1 0 0 0 0 -1 0 0 0 0 1 0"
         id="feColorMatrix8078" />
      <feFlood
         id="feFlood8080"
         flood-opacity="0.4"
         flood-color="rgb(0,0,0)"
         result="flood"
         in="fbSourceGraphic" />
      <feComposite
         id="feComposite8082"
         in2="fbSourceGraphic"
         in="flood"
         operator="in"
         result="composite1" />
      <feGaussianBlur
         id="feGaussianBlur8084"
         stdDeviation="2"
         result="blur" />
      <feOffset
         id="feOffset8086"
         dx="-2"
         dy="-2.3"
         result="offset" />
      <feComposite
         id="feComposite8088"
         in2="offset"
         in="fbSourceGraphic"
         operator="over"
         result="composite2" />
    </filter>
    <filter
       inkscape:label="Drop Shadow"
       inkscape:menu="Morphology"
       inkscape:menu-tooltip="Smooth the outside of shapes and pictures without altering their contents"
       color-interpolation-filters="sRGB"
       id="filter4597">
      <feGaussianBlur
         stdDeviation="3"
         result="result1"
         id="feGaussianBlur4599" />
      <feComposite
         operator="arithmetic"
         k2="2"
         k4="-1"
         in="result1"
         result="result2"
         in2="SourceGraphic"
         id="feComposite4601"
         k1="0"
         k3="0" />
      <feColorMatrix
         values="0 0 0 0 0 0 1 0 0 0 0 0 1 0 0 0 0 0 8 -6 "
         result="result3"
         id="feColorMatrix4603" />
      <feComposite
         in="SourceGraphic"
         operator="in"
         in2="result3"
         id="feComposite4605"
         result="fbSourceGraphic" />
      <feColorMatrix
         result="fbSourceGraphicAlpha"
         in="fbSourceGraphic"
         values="0 0 0 -1 0 0 0 0 -1 0 0 0 0 -1 0 0 0 0 1 0"
         id="feColorMatrix8090" />
      <feFlood
         id="feFlood8092"
         flood-opacity="0.4"
         flood-color="rgb(0,0,0)"
         result="flood"
         in="fbSourceGraphic" />
      <feComposite
         id="feComposite8094"
         in2="fbSourceGraphic"
         in="flood"
         operator="in"
         result="composite1" />
      <feGaussianBlur
         id="feGaussianBlur8096"
         stdDeviation="2"
         result="blur" />
      <feOffset
         id="feOffset8098"
         dx="-2"
         dy="-2.3"
         result="offset" />
      <feComposite
         id="feComposite8100"
         in2="offset"
         in="fbSourceGraphic"
         operator="over"
         result="composite2" />
    </filter>
    <filter
       inkscape:label="Drop Shadow"
       id="filter8150"
       color-interpolation-filters="sRGB">
      <feFlood
         flood-opacity="0.4"
         flood-color="rgb(0,0,0)"
         result="flood"
         id="feFlood8152" />
      <feComposite
         in="flood"
         in2="SourceGraphic"
         operator="in"
         result="composite1"
         id="feComposite8154" />
      <feGaussianBlur
         stdDeviation="2"
         result="blur"
         id="feGaussianBlur8156" />
      <feOffset
         dx="-2"
         dy="-2.3"
         result="offset"
         id="feOffset8158" />
      <feComposite
         in="SourceGraphic"
         in2="offset"
         operator="over"
         result="composite2"
         id="feComposite8160" />
    </filter>
    <linearGradient
       inkscape:collect="always"
       xlink:href="#linearGradient3974"
       id="linearGradient8173"
       gradientUnits="userSpaceOnUse"
       x1="34.592781"
       y1="796.78156"
       x2="390.70755"
       y2="1002.3845" />
    <linearGradient
       inkscape:collect="always"
       xlink:href="#linearGradient3958"
       id="linearGradient8175"
       gradientUnits="userSpaceOnUse"
       x1="171.61073"
       y1="977.45251"
       x2="460.4346"
       y2="810.69995" />
    <linearGradient
       inkscape:collect="always"
       xlink:href="#linearGradient3974"
       id="linearGradient4207"
       gradientUnits="userSpaceOnUse"
       x1="34.592781"
       y1="796.78156"
       x2="390.70755"
       y2="1002.3845" />
    <linearGradient
       inkscape:collect="always"
       xlink:href="#linearGradient3958"
       id="linearGradient4209"
       gradientUnits="userSpaceOnUse"
       x1="171.61073"
       y1="977.45251"
       x2="460.4346"
       y2="810.69995" />
  </defs>
  <sodipodi:namedview
     id="base"
     pagecolor="#ffffff"
     bordercolor="#666666"
     borderopacity="1.0"
     inkscape:pageopacity="0.0"
     inkscape:pageshadow="2"
     inkscape:zoom="0.98994949"
     inkscape:cx="606.38864"
     inkscape:cy="253.26481"
     inkscape:document-units="px"
     inkscape:current-layer="layer1"
     showgrid="false"
     inkscape:window-width="1920"
     inkscape:window-height="1018"
     inkscape:window-x="-8"
     inkscape:window-y="-8"
     inkscape:window-maximized="1"
     fit-margin-top="0"
     fit-margin-left="0"
     fit-margin-right="150"
     fit-margin-bottom="0" />
  <metadata
     id="metadata7">
    <rdf:RDF>
      <cc:Work
         rdf:about="">
        <dc:format>image/svg+xml</dc:format>
        <dc:type
           rdf:resource="http://purl.org/dc/dcmitype/StillImage" />
        <dc:title></dc:title>
      </cc:Work>
    </rdf:RDF>
  </metadata>
  <g
     inkscape:label="Layer 1"
     inkscape:groupmode="layer"
     id="layer1"
     transform="translate(-92.611889,-509.77876)">
    <g
       id="g8162"
       transform="matrix(0.81780976,0,0,0.81780976,57.652409,137.17375)">
      <g
         transform="translate(51.499694,-50.350935)"
         style="fill:none;stroke:none;filter:url(#filter4587)"
         id="g3816">
        <path
           inkscape:connector-curvature="0"
           style="fill:#ffffff;fill-opacity:1;fill-rule:evenodd;stroke:none"
           d="m 248.48747,583.52157 c -1.13505,0 -2.24825,0.0282 -3.375,0.0625 -119.50389,1.80649 -215.8125,99.22244 -215.812497,219.15625 3e-6,120.12195 96.611197,217.64788 216.374997,219.15628 -59.22387,-1.5005 -106.78125,-49.97706 -106.78125,-109.56253 0,-60.53127 49.06248,-109.59375 109.59375,-109.59375 60.53127,0 109.625,-49.06248 109.625,-109.59375 0,-60.53127 -49.09373,-109.625 -109.625,-109.625 z"
           id="path3778" />
        <path
           id="path3791"
           d="m 248.51314,1021.9041 c 1.13505,0 2.24825,-0.028 3.375,-0.062 119.50389,-1.8065 215.8125,-99.22246 215.8125,-219.15631 0,-120.12195 -96.6112,-217.64785 -216.375,-219.15625 59.22387,1.5005 106.78125,49.97703 106.78125,109.5625 0,60.53127 -49.06248,109.59375 -109.59375,109.59375 -60.53127,0 -109.625,49.06245 -109.625,109.59375 0,60.5313 49.09373,109.62506 109.625,109.62506 z"
           style="fill:#6cb645;fill-opacity:1;fill-rule:evenodd;stroke:none;filter:url(#filter8150)"
           inkscape:connector-curvature="0" />
        <path
           inkscape:connector-curvature="0"
           id="path3868"
           d="M 246.65625,589.5625 C 168.36434,589.2895 92.377817,636.86506 57.895214,706.87099 24.212195,773.3592 28.357439,857.84397 70.235582,919.77751 c 25.586555,38.6891 63.783058,68.90231 107.670668,84.25369 -34.64063,-26.55551 -52.54798,-73.83616 -42.41257,-116.85213 9.9509,-45.08196 48.82588,-82.7046 94.99526,-89.01491 19.12985,-2.51485 39.40064,-0.45741 57.24858,-9.04408 39.89165,-16.0292 67.52603,-58.63753 64.26847,-101.80598 -2.10174,-40.42476 -29.44214,-78.10034 -67.94433,-91.50356 -11.96899,-4.39715 -24.66925,-6.56632 -37.40541,-6.24804 z"
           style="fill:url(#linearGradient4207);fill-opacity:1;fill-rule:evenodd;stroke:none" />
        <path
           inkscape:connector-curvature="0"
           id="path3940"
           d="m 330.3125,608.4375 c 31.85165,30.82739 44.8313,80.39672 29.63967,122.5693 -15.10611,44.6989 -58.93766,78.81147 -106.67092,79.4307 -17.67509,0.57165 -35.72776,2.50092 -51.3125,11.40625 -38.02666,19.301 -61.68616,64.30194 -53.85236,106.76512 6.3824,40.29336 38.84025,75.34623 79.25861,83.04733 30.80742,5.8069 62.81347,-0.028 92.1267,-9.9683 63.78065,-22.73481 115.55778,-77.37124 132.77773,-143.0853 17.83534,-65.22933 2.90053,-139.36685 -41.17115,-190.68204 C 389.24125,641.6719 360.85315,620.60414 329.25,607.4375 l 0.7282,0.68536 0.3343,0.31464 z"
           style="fill:url(#linearGradient4209);fill-opacity:1;fill-rule:evenodd;stroke:none" />
      </g>
      <g
         style="stroke:#000000;stroke-width:0.89999998;stroke-miterlimit:4;stroke-opacity:1;stroke-dasharray:none;filter:url(#filter4597)"
         id="g3055">
        <g
           id="g3858"
           transform="translate(51.499696,-50.450908)"
           style="fill:none;stroke:#000000;stroke-width:0.89999998;stroke-miterlimit:4;stroke-opacity:1;stroke-dasharray:none">
          <rect
             y="904.7276"
             x="228.29726"
             height="16.162441"
             width="40.406101"
             id="rect3849"
             style="fill:#284929;fill-opacity:1;stroke:#000000;stroke-width:0.89999998;stroke-miterlimit:4;stroke-opacity:1;stroke-dasharray:none"
             ry="8.0812206" />
        </g>
        <path
           style="fill:#6cb645;fill-opacity:1;stroke:#000000;stroke-width:0.89999998;stroke-miterlimit:4;stroke-opacity:1;stroke-dasharray:none"
           d="m 300.01563,622.16327 c -4.477,0 -8.09375,3.61675 -8.09375,8.09375 l 0,4.03125 -4.03125,0 c -4.477,0 -8.09375,3.61675 -8.09375,8.09375 0,4.477 3.61675,8.0625 8.09375,8.0625 l 4.03125,0 0,4.0625 c 0,4.477 3.61675,8.0625 8.09375,8.0625 4.477,0 8.0625,-3.5855 8.0625,-8.0625 l 0,-4.0625 4.0625,0 c 4.477,0 8.0625,-3.5855 8.0625,-8.0625 0,-4.477 -3.5855,-8.09375 -8.0625,-8.09375 l -4.0625,0 0,-4.03125 c 0,-4.477 -3.5855,-8.09375 -8.0625,-8.09375 z"
           id="rect3849-1"
           inkscape:connector-curvature="0" />
      </g>
    </g>
    <g
       id="g3080"
       transform="translate(0,0.37720337)">
      <g
         style="font-size:180px;font-style:normal;font-variant:normal;font-weight:normal;font-stretch:normal;text-align:start;line-height:125%;letter-spacing:0px;word-spacing:0px;writing-mode:lr-tb;text-anchor:start;fill:#006532;fill-opacity:1;stroke:#000000;stroke-width:1;stroke-miterlimit:4;stroke-opacity:1;font-family:Calibri;-inkscape-font-specification:Calibri"
         id="text3829">
        <path
           d="m 651.46912,732.81177 c -8e-5,5.33206 -0.98152,10.07814 -2.94434,14.23828 -1.96296,4.16017 -4.68757,7.69044 -8.17383,10.59082 -3.48639,2.90039 -7.58795,5.08301 -12.30469,6.54785 -4.71684,1.46484 -9.79984,2.19726 -15.24902,2.19727 -3.80863,-10e-6 -7.3389,-0.32227 -10.59082,-0.9668 -3.25198,-0.64453 -6.15236,-1.43555 -8.70117,-2.37305 -2.54884,-0.93749 -4.68751,-1.90429 -6.41602,-2.90039 -1.72852,-0.99609 -2.92969,-1.84569 -3.60351,-2.54883 -0.67384,-0.70311 -1.17188,-1.59667 -1.49414,-2.68066 -0.32227,-1.08397 -0.48341,-2.53417 -0.4834,-4.35059 -1e-5,-1.28904 0.0586,-2.35838 0.17578,-3.208 0.11718,-0.8496 0.29296,-1.53807 0.52734,-2.06543 0.23437,-0.52733 0.52734,-0.89354 0.87891,-1.09864 0.35155,-0.20505 0.76171,-0.30759 1.23047,-0.30761 0.8203,2e-5 1.97753,0.49806 3.47168,1.49414 1.49413,0.99611 3.41307,2.08009 5.75683,3.25195 2.34373,1.17189 5.17088,2.27052 8.48145,3.2959 3.31052,1.0254 7.13375,1.5381 11.46973,1.53808 3.2812,2e-5 6.28413,-0.43944 9.00879,-1.31835 2.72455,-0.8789 5.0683,-2.12401 7.03125,-3.73536 1.96283,-1.61131 3.47162,-3.58884 4.52636,-5.93261 1.05463,-2.34373 1.58197,-5.00974 1.58203,-7.99805 -6e-5,-3.22262 -0.73248,-5.97653 -2.19726,-8.26172 -1.4649,-2.28511 -3.39849,-4.29195 -5.80078,-6.02051 -2.4024,-1.72847 -5.14165,-3.3105 -8.21778,-4.74609 -3.07621,-1.4355 -6.22562,-2.90034 -9.44824,-4.39453 -3.22269,-1.49409 -6.35745,-3.14936 -9.4043,-4.96582 -3.04689,-1.81635 -5.7715,-3.95502 -8.17382,-6.41602 -2.40236,-2.46087 -4.3506,-5.34661 -5.84473,-8.65722 -1.49415,-3.31047 -2.24122,-7.2802 -2.24121,-11.90918 -1e-5,-4.74601 0.86425,-8.9794 2.59277,-12.7002 1.7285,-3.7206 4.13085,-6.84071 7.20703,-9.36035 3.07615,-2.51942 6.73826,-4.43837 10.98633,-5.75684 4.24801,-1.31824 8.83297,-1.97742 13.75488,-1.97754 2.51949,1.2e-4 5.05367,0.21985 7.60254,0.65918 2.54878,0.43957 4.95112,1.02551 7.20703,1.75782 2.2558,0.73253 4.26264,1.55284 6.02051,2.46093 1.75775,0.90832 2.91497,1.64074 3.47168,2.19727 0.55657,0.55675 0.92278,0.9962 1.09863,1.31836 0.17572,0.32237 0.3222,0.73253 0.43946,1.23047 0.11712,0.49815 0.20501,1.09873 0.26367,1.80176 0.0585,0.70322 0.0878,1.61143 0.0879,2.7246 -7e-5,1.05479 -0.044,1.99229 -0.13184,2.8125 -0.088,0.82041 -0.21979,1.50889 -0.3955,2.06543 -0.17585,0.55674 -0.42488,0.9669 -0.74707,1.23047 -0.32234,0.26377 -0.68855,0.39561 -1.09864,0.39551 -0.64459,10e-5 -1.65534,-0.41006 -3.03222,-1.23047 -1.37702,-0.82021 -3.06159,-1.74306 -5.05371,-2.76855 -1.99225,-1.02529 -4.35064,-1.96279 -7.0752,-2.8125 -2.72466,-0.84951 -5.78618,-1.27431 -9.18457,-1.27442 -3.1641,1.1e-4 -5.91801,0.42491 -8.26172,1.27442 -2.34378,0.84971 -4.27737,1.97764 -5.80078,3.38379 -1.52346,1.40634 -2.66604,3.07626 -3.42773,5.00976 -0.76175,1.93369 -1.14261,3.98447 -1.14258,6.15235 -3e-5,3.16414 0.73239,5.88875 2.19726,8.17382 1.46482,2.28524 3.41306,4.30672 5.84473,6.06446 2.43161,1.75788 5.20016,3.36921 8.30566,4.83398 3.10543,1.46491 6.26949,2.9444 9.49219,4.43848 3.2226,1.4942 6.38666,3.13482 9.49219,4.92187 3.10541,1.78717 5.87396,3.89654 8.30566,6.32813 2.43157,2.43169 4.39446,5.30278 5.88868,8.61328 1.49406,3.31059 2.24113,7.22172 2.24121,11.7334 z"
           style="line-height:125%;fill:#006532;stroke:#000000;font-family:Calibri;-inkscape-font-specification:Calibri"
           id="path3865"
           inkscape:connector-curvature="0" />
        <path
           d="m 736.28357,758.47583 c -8e-5,1.05469 -0.0587,1.97754 -0.17578,2.76855 -0.11727,0.79102 -0.32235,1.4502 -0.61524,1.97754 -0.29304,0.52735 -0.62996,0.90821 -1.01074,1.14258 -0.38093,0.23438 -0.80574,0.35156 -1.27441,0.35156 l -54.58008,0 c -1.34768,0 -2.62209,-0.4541 -3.82324,-1.3623 -1.20119,-0.9082 -1.80178,-2.50488 -1.80176,-4.79004 l 0,-101.42578 c -2e-5,-2.28505 0.60057,-3.88173 1.80176,-4.79004 1.20115,-0.90809 2.47556,-1.36219 3.82324,-1.3623 l 53.96484,0 c 0.46868,1.1e-4 0.89348,0.1173 1.27442,0.35156 0.38078,0.23449 0.6884,0.61535 0.92285,1.14258 0.2343,0.52745 0.42473,1.18663 0.57129,1.97754 0.1464,0.79112 0.21965,1.77256 0.21972,2.94433 -7e-5,1.0548 -0.0733,1.97765 -0.21972,2.76856 -0.14656,0.79112 -0.33699,1.43565 -0.57129,1.93359 -0.23445,0.49815 -0.54207,0.86436 -0.92285,1.09863 -0.38094,0.23448 -0.80574,0.35167 -1.27442,0.35157 l -44.47265,0 0,35.68359 38.14453,0 c 0.46868,6e-5 0.89348,0.1319 1.27441,0.39551 0.38079,0.26373 0.70306,0.62994 0.9668,1.09863 0.2636,0.46881 0.45403,1.11334 0.57129,1.93359 0.11711,0.82038 0.17571,1.78717 0.17578,2.90039 -7e-5,1.05475 -0.0587,1.96295 -0.17578,2.72461 -0.11726,0.76178 -0.30769,1.37701 -0.57129,1.84571 -0.26374,0.4688 -0.58601,0.80571 -0.9668,1.01074 -0.38093,0.20513 -0.80573,0.30767 -1.27441,0.30762 l -38.14453,0 0,40.69336 45.08789,0 c 0.46867,1e-5 0.89348,0.1172 1.27441,0.35156 0.38078,0.23438 0.7177,0.6006 1.01074,1.09863 0.29289,0.49806 0.49797,1.14259 0.61524,1.93359 0.11711,0.79103 0.1757,1.77247 0.17578,2.94434 z"
           style="line-height:125%;fill:#006532;stroke:#000000;font-family:Calibri;-inkscape-font-specification:Calibri"
           id="path3867"
           inkscape:connector-curvature="0" />
        <path
           d="m 884.55505,762.43091 c -1.4e-4,0.46875 -0.11732,0.87891 -0.35156,1.23047 -0.23451,0.35156 -0.64467,0.62988 -1.23047,0.83496 -0.58607,0.20508 -1.33314,0.38086 -2.24121,0.52734 -0.90834,0.14649 -2.09486,0.21973 -3.55957,0.21973 -1.34779,0 -2.50501,-0.0732 -3.47168,-0.21973 -0.96692,-0.14648 -1.72864,-0.32226 -2.28515,-0.52734 -0.55677,-0.20508 -0.95228,-0.4834 -1.18653,-0.83496 -0.2345,-0.35156 -0.35168,-0.76172 -0.35156,-1.23047 l 0,-99.05274 -0.17578,0 -40.51758,99.49219 c -0.17586,0.41016 -0.42489,0.76172 -0.74707,1.05469 -0.32235,0.29297 -0.7911,0.54199 -1.40625,0.74707 -0.61532,0.20508 -1.34774,0.35156 -2.19727,0.43945 -0.84968,0.0879 -1.86042,0.13184 -3.03222,0.13184 -1.23055,0 -2.28523,-0.0586 -3.16407,-0.17578 -0.87897,-0.11719 -1.61139,-0.27832 -2.19726,-0.4834 -0.58601,-0.20508 -1.04011,-0.4541 -1.36231,-0.74707 -0.32233,-0.29297 -0.54206,-0.61523 -0.65918,-0.9668 l -38.75976,-99.49219 -0.0879,0 0,99.05274 c -3e-5,0.46875 -0.11722,0.87891 -0.35156,1.23047 -0.23441,0.35156 -0.64456,0.62988 -1.23047,0.83496 -0.58597,0.20508 -1.34769,0.38086 -2.28516,0.52734 -0.93752,0.14649 -2.13869,0.21973 -3.60351,0.21973 -1.40628,0 -2.57815,-0.0732 -3.51563,-0.21973 -0.93752,-0.14648 -1.68459,-0.32226 -2.24121,-0.52734 -0.55666,-0.20508 -0.93752,-0.4834 -1.14258,-0.83496 -0.20509,-0.35156 -0.30763,-0.76172 -0.30762,-1.23047 l 0,-104.58985 c -10e-6,-2.46082 0.64452,-4.21863 1.9336,-5.27343 1.28904,-1.05458 2.72459,-1.58192 4.30664,-1.58203 l 9.14062,0 c 1.87497,1.1e-4 3.51559,0.17589 4.92188,0.52734 1.40621,0.35167 2.63668,0.90831 3.6914,1.66992 1.05465,0.76183 1.93356,1.72863 2.63672,2.90039 0.70309,1.17198 1.31832,2.54894 1.84571,4.13086 l 32.95898,82.35352 0.43945,0 34.27735,-82.08985 c 0.64442,-1.7577 1.34754,-3.25184 2.10937,-4.48242 0.76161,-1.23036 1.59657,-2.2118 2.50489,-2.94433 0.90808,-0.73231 1.91882,-1.25966 3.03222,-1.58204 1.11316,-0.32215 2.40222,-0.48328 3.86719,-0.48339 l 9.58008,0 c 0.87877,1.1e-4 1.71373,0.13195 2.50488,0.3955 0.79088,0.26379 1.46471,0.67394 2.02149,1.23047 0.5565,0.55675 1.0106,1.25988 1.3623,2.10938 0.35142,0.84972 0.5272,1.88975 0.52734,3.12011 z"
           style="line-height:125%;fill:#006532;stroke:#000000;font-family:Calibri;-inkscape-font-specification:Calibri"
           id="path3869"
           inkscape:connector-curvature="0" />
        <path
           d="m 960.84412,762.07935 c -0.23444,0.64453 -0.5567,1.17187 -0.9668,1.58203 -0.41022,0.41015 -0.98151,0.73242 -1.71387,0.96679 -0.73248,0.23438 -1.66998,0.39551 -2.8125,0.4834 -1.14263,0.0879 -2.56353,0.13184 -4.26269,0.13184 -1.28912,0 -2.41704,-0.0147 -3.38379,-0.0439 -0.96685,-0.0293 -1.80181,-0.10254 -2.50489,-0.21972 -0.70316,-0.11719 -1.30375,-0.24903 -1.80175,-0.39551 -0.49809,-0.14649 -0.9229,-0.33692 -1.27442,-0.57129 -0.3516,-0.23437 -0.62992,-0.51269 -0.83496,-0.83496 -0.20512,-0.32227 -0.39555,-0.71777 -0.57129,-1.18652 L 903.53943,656.34692 c -0.46875,-1.28895 -0.71778,-2.32899 -0.74707,-3.12011 -0.0293,-0.79091 0.21972,-1.39149 0.74707,-1.80176 0.52734,-0.41004 1.37695,-0.67372 2.54883,-0.79102 1.17186,-0.11707 2.75389,-0.17566 4.74609,-0.17578 1.64061,1.2e-4 2.94432,0.0441 3.91113,0.13184 0.96678,0.088 1.71385,0.24914 2.24121,0.4834 0.52733,0.23448 0.92284,0.5421 1.18653,0.92285 0.26365,0.38097 0.51267,0.86437 0.74707,1.45019 l 32.60742,95.71289 0.0879,0 31.72852,-95.53711 c 0.17569,-0.64442 0.38077,-1.17176 0.61523,-1.58203 0.23429,-0.41004 0.64445,-0.73231 1.23047,-0.96679 0.58585,-0.23426 1.40616,-0.3954 2.46094,-0.4834 1.0546,-0.0878 2.46084,-0.13172 4.21875,-0.13184 1.81631,1.2e-4 3.25185,0.0734 4.30664,0.21973 1.05459,0.1466 1.77236,0.42492 2.15332,0.83496 0.38076,0.41027 0.52724,1.01085 0.43945,1.80176 -0.088,0.79112 -0.36631,1.83116 -0.83496,3.12011 z"
           style="line-height:125%;fill:#006532;stroke:#000000;font-family:Calibri;-inkscape-font-specification:Calibri"
           id="path3871"
           inkscape:connector-curvature="0" />
        <path
           d="m 1080.4633,758.47583 c -10e-5,1.05469 -0.059,1.97754 -0.1758,2.76855 -0.1173,0.79102 -0.3224,1.4502 -0.6153,1.97754 -0.293,0.52735 -0.6299,0.90821 -1.0107,1.14258 -0.3809,0.23438 -0.8057,0.35156 -1.2744,0.35156 l -54.5801,0 c -1.3477,0 -2.6221,-0.4541 -3.8232,-1.3623 -1.2012,-0.9082 -1.8018,-2.50488 -1.8018,-4.79004 l 0,-101.42578 c 0,-2.28505 0.6006,-3.88173 1.8018,-4.79004 1.2011,-0.90809 2.4755,-1.36219 3.8232,-1.3623 l 53.9649,0 c 0.4686,1.1e-4 0.8934,0.1173 1.2744,0.35156 0.3807,0.23449 0.6884,0.61535 0.9228,1.14258 0.2343,0.52745 0.4247,1.18663 0.5713,1.97754 0.1464,0.79112 0.2197,1.77256 0.2197,2.94433 0,1.0548 -0.073,1.97765 -0.2197,2.76856 -0.1466,0.79112 -0.337,1.43565 -0.5713,1.93359 -0.2344,0.49815 -0.5421,0.86436 -0.9228,1.09863 -0.381,0.23448 -0.8058,0.35167 -1.2744,0.35157 l -44.4727,0 0,35.68359 38.1445,0 c 0.4687,6e-5 0.8935,0.1319 1.2744,0.39551 0.3808,0.26373 0.7031,0.62994 0.9668,1.09863 0.2636,0.46881 0.4541,1.11334 0.5713,1.93359 0.1171,0.82038 0.1757,1.78717 0.1758,2.90039 -10e-5,1.05475 -0.059,1.96295 -0.1758,2.72461 -0.1172,0.76178 -0.3077,1.37701 -0.5713,1.84571 -0.2637,0.4688 -0.586,0.80571 -0.9668,1.01074 -0.3809,0.20513 -0.8057,0.30767 -1.2744,0.30762 l -38.1445,0 0,40.69336 45.0879,0 c 0.4687,1e-5 0.8935,0.1172 1.2744,0.35156 0.3808,0.23438 0.7177,0.6006 1.0107,1.09863 0.2929,0.49806 0.498,1.14259 0.6153,1.93359 0.1171,0.79103 0.1757,1.77247 0.1758,2.94434 z"
           style="line-height:125%;fill:#006532;stroke:#000000;font-family:Calibri;-inkscape-font-specification:Calibri"
           id="path3873"
           inkscape:connector-curvature="0" />
        <path
           d="m 1180.9222,762.43091 c 0,0.46875 -0.088,0.87891 -0.2636,1.23047 -0.1759,0.35156 -0.5568,0.64453 -1.1426,0.8789 -0.586,0.23438 -1.4063,0.41016 -2.4609,0.52735 -1.0548,0.11718 -2.4611,0.17578 -4.2188,0.17578 -1.5235,0 -2.7686,-0.0586 -3.7353,-0.17578 -0.9669,-0.11719 -1.7433,-0.30762 -2.3291,-0.57129 -0.5861,-0.26367 -1.0402,-0.62988 -1.3624,-1.09863 -0.3223,-0.46875 -0.6006,-1.05469 -0.8349,-1.75782 l -10.459,-26.80664 c -1.2305,-3.04684 -2.5049,-5.84469 -3.8232,-8.39355 -1.3185,-2.54879 -2.8858,-4.74605 -4.7022,-6.5918 -1.8165,-1.84566 -3.9551,-3.2812 -6.416,-4.30664 -2.461,-1.02534 -5.42,-1.53804 -8.877,-1.53809 l -10.1074,0 0,48.42774 c 0,0.46875 -0.1318,0.87891 -0.3955,1.23047 -0.2637,0.35156 -0.6738,0.62988 -1.2305,0.83496 -0.5566,0.20508 -1.3183,0.38086 -2.2851,0.52734 -0.9668,0.14649 -2.1827,0.21973 -3.6475,0.21973 -1.4648,0 -2.6807,-0.0732 -3.6474,-0.21973 -0.9669,-0.14648 -1.7432,-0.32226 -2.3291,-0.52734 -0.586,-0.20508 -0.9961,-0.4834 -1.2305,-0.83496 -0.2344,-0.35156 -0.3516,-0.76172 -0.3516,-1.23047 l 0,-105.29297 c 0,-2.28505 0.6006,-3.88173 1.8018,-4.79004 1.2011,-0.90809 2.4756,-1.36219 3.8232,-1.3623 l 24.17,0 c 2.871,1.1e-4 5.2587,0.0734 7.163,0.21972 1.9043,0.1466 3.6181,0.30773 5.1416,0.4834 4.3945,0.76183 8.2763,1.963 11.6455,3.60352 3.3691,1.64073 6.1963,3.72081 8.4815,6.24023 2.2851,2.51963 3.9989,5.40537 5.1416,8.65723 1.1425,3.25204 1.7138,6.84091 1.7139,10.7666 -10e-5,3.80867 -0.5128,7.22176 -1.5381,10.23926 -1.0255,3.01765 -2.505,5.68366 -4.4385,7.99804 -1.9337,2.31452 -4.2481,4.32135 -6.9434,6.02051 -2.6953,1.69928 -5.7129,3.13482 -9.0527,4.30664 1.8749,0.82037 3.5742,1.86041 5.0977,3.12012 1.5233,1.25982 2.9442,2.7686 4.2627,4.52637 1.3182,1.75785 2.5634,3.77934 3.7353,6.06445 1.1718,2.28519 2.3437,4.86332 3.5156,7.73437 l 10.1953,25.04883 c 0.8203,2.10938 1.3476,3.58887 1.5821,4.43848 0.2343,0.84961 0.3515,1.50879 0.3515,1.97754 z m -22.7636,-79.89258 c -10e-5,-4.45304 -0.9962,-8.21768 -2.9883,-11.29395 -1.9923,-3.07607 -5.3321,-5.28798 -10.0195,-6.63574 -1.4649,-0.41005 -3.1202,-0.70302 -4.9659,-0.8789 -1.8457,-0.17568 -4.2627,-0.26357 -7.2509,-0.26368 l -12.7442,0 0,38.32032 14.7656,0 c 3.9844,6e-5 7.4267,-0.48334 10.3272,-1.4502 2.9003,-0.96673 5.3173,-2.31438 7.251,-4.04297 1.9335,-1.72844 3.3544,-3.76457 4.2627,-6.1084 0.9081,-2.34367 1.3622,-4.89249 1.3623,-7.64648 z"
           style="line-height:125%;fill:#006532;stroke:#000000;font-family:Calibri;-inkscape-font-specification:Calibri"
           id="path3875"
           inkscape:connector-curvature="0" />
      </g>
      <g
         style="font-size:40px;font-style:normal;font-variant:normal;font-weight:normal;font-stretch:normal;line-height:125%;letter-spacing:0px;word-spacing:0px;fill:#84b816;fill-opacity:0.99607843;stroke:#000000;stroke-width:0.30000001;stroke-miterlimit:4;stroke-opacity:1;font-family:Calibri;-inkscape-font-specification:Calibri"
         id="text3835">
        <path
           d="m 597.67108,839.927 c -2e-5,1.27377 -0.23447,2.40756 -0.70337,3.40137 -0.46893,0.99382 -1.11981,1.83716 -1.95263,2.53003 -0.83286,0.69287 -1.81268,1.21427 -2.93946,1.56421 -1.1268,0.34993 -2.34107,0.5249 -3.64282,0.5249 -0.90984,0 -1.75318,-0.077 -2.53003,-0.23096 -0.77686,-0.15397 -1.46973,-0.34293 -2.07861,-0.56689 -0.60889,-0.22396 -1.1198,-0.45492 -1.53272,-0.69287 -0.41292,-0.23796 -0.69987,-0.44092 -0.86084,-0.60889 -0.16097,-0.16797 -0.27995,-0.38143 -0.35693,-0.64038 -0.077,-0.25895 -0.11548,-0.60538 -0.11548,-1.03931 0,-0.30794 0.014,-0.56339 0.042,-0.76635 0.028,-0.20296 0.07,-0.36743 0.12598,-0.49341 0.056,-0.12597 0.12597,-0.21346 0.20996,-0.26245 0.084,-0.049 0.18196,-0.0735 0.29395,-0.0735 0.19596,0 0.47241,0.11898 0.82934,0.35693 0.35693,0.23796 0.81535,0.49692 1.37525,0.77686 0.55989,0.27995 1.23526,0.5424 2.02612,0.78735 0.79084,0.24496 1.70417,0.36744 2.73999,0.36743 0.78384,10e-6 1.50121,-0.10497 2.1521,-0.31494 0.65087,-0.20996 1.21076,-0.5074 1.67969,-0.89233 0.4689,-0.38493 0.82933,-0.85734 1.08129,-1.41724 0.25194,-0.55989 0.37792,-1.19677 0.37793,-1.91064 -10e-6,-0.76985 -0.17498,-1.42773 -0.5249,-1.97364 -0.34995,-0.54588 -0.81186,-1.02529 -1.38574,-1.43823 -0.57391,-0.41291 -1.22828,-0.79084 -1.96313,-1.13379 -0.73488,-0.34292 -1.48724,-0.69286 -2.25708,-1.0498 -0.76987,-0.35692 -1.51873,-0.75235 -2.24659,-1.18628 -0.72787,-0.43391 -1.37874,-0.94481 -1.95263,-1.53272 -0.5739,-0.58787 -1.03931,-1.27724 -1.39624,-2.06811 -0.35694,-0.79084 -0.53541,-1.73916 -0.5354,-2.84497 -10e-6,-1.13377 0.20646,-2.14508 0.61938,-3.03394 0.41292,-0.88881 0.98681,-1.63417 1.72168,-2.23608 0.73486,-0.60186 1.60969,-1.06028 2.62451,-1.37525 1.01481,-0.31491 2.1101,-0.47238 3.28589,-0.47241 0.60188,3e-5 1.20726,0.0525 1.81616,0.15747 0.60888,0.10501 1.18277,0.24499 1.72168,0.41993 0.53889,0.17499 1.0183,0.37095 1.43823,0.58789 0.41991,0.21698 0.69636,0.39195 0.82935,0.5249 0.13296,0.133 0.22044,0.23798 0.26245,0.31494 0.042,0.077 0.077,0.17499 0.10498,0.29395 0.028,0.119 0.049,0.26247 0.063,0.43042 0.014,0.16799 0.021,0.38495 0.021,0.65087 -2e-5,0.25198 -0.0105,0.47594 -0.0315,0.67188 -0.021,0.19599 -0.0525,0.36046 -0.0945,0.49341 -0.042,0.133 -0.1015,0.23098 -0.17847,0.29394 -0.077,0.063 -0.16448,0.0945 -0.26245,0.0945 -0.15399,3e-5 -0.39544,-0.098 -0.72436,-0.29394 -0.32896,-0.19594 -0.73138,-0.4164 -1.20728,-0.66138 -0.47592,-0.24493 -1.03932,-0.46889 -1.69018,-0.67187 -0.65089,-0.20294 -1.38226,-0.30442 -2.1941,-0.30445 -0.75586,3e-5 -1.41374,0.10151 -1.97363,0.30445 -0.5599,0.20298 -1.02182,0.47243 -1.38574,0.80835 -0.36394,0.33596 -0.63689,0.73488 -0.81885,1.19677 -0.18197,0.46194 -0.27295,0.95185 -0.27295,1.46973 0,0.75588 0.17496,1.40676 0.5249,1.95264 0.34993,0.54591 0.81535,1.02882 1.39624,1.44873 0.58089,0.41994 1.24226,0.80487 1.98414,1.15478 0.74185,0.34995 1.49771,0.70339 2.26757,1.06031 0.76985,0.35694 1.52571,0.74887 2.26758,1.17578 0.74185,0.42693 1.40323,0.93084 1.98413,1.51172 0.58088,0.5809 1.04979,1.26677 1.40674,2.05761 0.35692,0.79087 0.53538,1.72519 0.5354,2.80298 z"
           style="font-size:43px"
           id="path3878"
           inkscape:connector-curvature="0" />
        <path
           d="m 618.5412,836.75659 c -2e-5,0.54591 -0.1365,0.93434 -0.40943,1.16528 -0.27296,0.23097 -0.5844,0.34645 -0.93432,0.34644 l -12.3877,0 c 0,1.04981 0.10498,1.99464 0.31494,2.83447 0.20996,0.83985 0.55989,1.56072 1.04981,2.1626 0.4899,0.60189 1.12678,1.06381 1.91064,1.38574 0.78385,0.32195 1.74267,0.48292 2.87647,0.48291 0.89582,10e-6 1.69367,-0.0735 2.39355,-0.22046 0.69986,-0.14697 1.30525,-0.31143 1.81617,-0.4934 0.51088,-0.18197 0.93081,-0.34644 1.25976,-0.49341 0.32892,-0.14697 0.57738,-0.22046 0.74536,-0.22046 0.098,0 0.18545,0.0245 0.26245,0.0735 0.077,0.049 0.13646,0.12248 0.17847,0.22045 0.042,0.098 0.0735,0.23446 0.0945,0.40943 0.021,0.17497 0.0315,0.38843 0.0315,0.64038 -2e-5,0.18197 -0.007,0.33944 -0.021,0.47241 -0.014,0.13298 -0.0315,0.25196 -0.0525,0.35693 -0.021,0.10499 -0.056,0.19947 -0.10498,0.28345 -0.049,0.084 -0.112,0.16447 -0.18896,0.24146 -0.077,0.077 -0.30447,0.20296 -0.68238,0.37793 -0.37794,0.17496 -0.86785,0.34643 -1.46972,0.5144 -0.60191,0.16797 -1.29828,0.31844 -2.08912,0.45142 -0.79086,0.13297 -1.6342,0.19946 -2.53002,0.19946 -1.55373,0 -2.91497,-0.21696 -4.08374,-0.65088 -1.16879,-0.43392 -2.15211,-1.0778 -2.94996,-1.93164 -0.79785,-0.85384 -1.39974,-1.92464 -1.80566,-3.2124 -0.40593,-1.28776 -0.60889,-2.78548 -0.60889,-4.49317 0,-1.62368 0.20996,-3.08291 0.62989,-4.37768 0.41991,-1.29475 1.0253,-2.39354 1.81616,-3.29639 0.79085,-0.90281 1.74617,-1.59568 2.86596,-2.07861 1.11979,-0.48289 2.37255,-0.72435 3.75831,-0.72437 1.48371,2e-5 2.74697,0.23798 3.78979,0.71387 1.04279,0.47593 1.90013,1.11631 2.57202,1.92114 0.67186,0.80487 1.16527,1.74969 1.48023,2.83448 0.31492,1.08481 0.47239,2.24309 0.47241,3.47485 z m -3.48535,-1.02881 c 0.042,-1.81964 -0.36045,-3.24738 -1.20728,-4.2832 -0.84685,-1.03579 -2.10312,-1.55369 -3.7688,-1.55371 -0.85385,2e-5 -1.60271,0.16099 -2.24658,0.48291 -0.64389,0.32196 -1.18279,0.74888 -1.6167,1.28076 -0.43392,0.53192 -0.76986,1.1513 -1.00781,1.85816 -0.23796,0.70688 -0.37094,1.44524 -0.39893,2.21508 z"
           style="font-size:43px"
           id="path3880"
           inkscape:connector-curvature="0" />
        <path
           d="m 651.862,847.02368 c -3e-5,0.11198 -0.028,0.20646 -0.084,0.28345 -0.056,0.077 -0.14701,0.14347 -0.27295,0.19946 -0.12601,0.056 -0.30098,0.098 -0.52491,0.12598 -0.22398,0.028 -0.50393,0.042 -0.83984,0.042 -0.34996,0 -0.63691,-0.014 -0.86084,-0.042 -0.22399,-0.028 -0.40245,-0.07 -0.5354,-0.12598 -0.133,-0.056 -0.22749,-0.12248 -0.28345,-0.19946 -0.056,-0.077 -0.084,-0.17147 -0.084,-0.28345 l 0,-11.48486 c -3e-5,-0.79784 -0.07,-1.5257 -0.20996,-2.1836 -0.14,-0.65786 -0.36396,-1.22475 -0.67188,-1.70068 -0.30797,-0.47589 -0.69989,-0.83983 -1.17578,-1.0918 -0.47594,-0.25193 -1.03583,-0.37791 -1.67969,-0.37793 -0.79787,2e-5 -1.59922,0.30796 -2.40405,0.92383 -0.80487,0.6159 -1.6902,1.51873 -2.65601,2.7085 l 0,13.20654 c -10e-6,0.11198 -0.028,0.20646 -0.084,0.28345 -0.056,0.077 -0.15049,0.14347 -0.28345,0.19946 -0.13299,0.056 -0.31146,0.098 -0.5354,0.12598 -0.22397,0.028 -0.50392,0.042 -0.83984,0.042 -0.32196,0 -0.59841,-0.014 -0.82935,-0.042 -0.23097,-0.028 -0.41294,-0.07 -0.5459,-0.12598 -0.13299,-0.056 -0.22397,-0.12248 -0.27294,-0.19946 -0.049,-0.077 -0.0735,-0.17147 -0.0735,-0.28345 l 0,-11.48486 c -2e-5,-0.79784 -0.077,-1.5257 -0.23096,-2.1836 -0.15398,-0.65786 -0.38494,-1.22475 -0.69287,-1.70068 -0.30796,-0.47589 -0.69638,-0.83983 -1.16528,-1.0918 -0.46893,-0.25193 -1.02532,-0.37791 -1.66919,-0.37793 -0.79786,2e-5 -1.60271,0.30796 -2.41455,0.92383 -0.81186,0.6159 -1.69369,1.51873 -2.64551,2.7085 l 0,13.20654 c -1e-5,0.11198 -0.028,0.20646 -0.084,0.28345 -0.056,0.077 -0.14698,0.14347 -0.27295,0.19946 -0.12599,0.056 -0.30095,0.098 -0.52491,0.12598 -0.22396,0.028 -0.51091,0.042 -0.86084,0.042 -0.33594,0 -0.61589,-0.014 -0.83984,-0.042 -0.22396,-0.028 -0.40243,-0.07 -0.5354,-0.12598 -0.13298,-0.056 -0.22396,-0.12248 -0.27295,-0.19946 -0.049,-0.077 -0.0735,-0.17147 -0.0735,-0.28345 l 0,-18.89648 c 0,-0.11196 0.021,-0.20644 0.063,-0.28345 0.042,-0.077 0.12598,-0.14695 0.25196,-0.20996 0.12597,-0.063 0.28694,-0.10496 0.48291,-0.12598 0.19596,-0.021 0.45491,-0.0315 0.77685,-0.0315 0.30794,2e-5 0.56339,0.0105 0.76636,0.0315 0.20296,0.021 0.36043,0.063 0.47241,0.12598 0.11197,0.063 0.19246,0.13299 0.24146,0.20996 0.049,0.077 0.0735,0.17149 0.0735,0.28345 l 0,2.49853 c 1.0638,-1.18976 2.0961,-2.0611 3.09693,-2.61401 1.0008,-0.55288 2.01211,-0.82933 3.03393,-0.82935 0.78384,2e-5 1.48721,0.091 2.11011,0.27295 0.62287,0.18199 1.17227,0.43744 1.64819,0.76636 0.4759,0.32896 0.88182,0.72088 1.21778,1.17578 0.33592,0.45493 0.61586,0.96234 0.83984,1.52222 0.62986,-0.68586 1.22825,-1.26675 1.79517,-1.74268 0.56687,-0.47589 1.11277,-0.86082 1.63769,-1.15478 0.52488,-0.29393 1.03579,-0.50739 1.53272,-0.64038 0.49688,-0.13296 0.99729,-0.19945 1.50122,-0.19947 1.21774,2e-5 2.23955,0.21348 3.06543,0.64038 0.82581,0.42694 1.49419,0.99734 2.00512,1.71119 0.51088,0.71388 0.87481,1.55022 1.0918,2.50903 0.21693,0.95883 0.32541,1.97015 0.32544,3.03393 z"
           style="font-size:43px"
           id="path3882"
           inkscape:connector-curvature="0" />
        <path
           d="m 672.41718,847.04468 c -2e-5,0.16797 -0.056,0.29394 -0.16797,0.37793 -0.112,0.084 -0.26597,0.14697 -0.46192,0.18896 -0.19598,0.042 -0.48292,0.063 -0.86084,0.063 -0.36395,0 -0.65439,-0.021 -0.87134,-0.063 -0.21697,-0.042 -0.37444,-0.10498 -0.47241,-0.18896 -0.098,-0.084 -0.14698,-0.20996 -0.14697,-0.37793 l 0,-1.88965 c -0.82586,0.88184 -1.74619,1.56771 -2.76099,2.05762 -1.01482,0.48991 -2.08912,0.73486 -3.2229,0.73486 -0.99382,0 -1.89315,-0.12948 -2.69799,-0.38843 -0.80486,-0.25895 -1.49073,-0.63338 -2.05762,-1.12329 -0.5669,-0.48991 -1.00782,-1.09179 -1.32276,-1.80566 -0.31494,-0.71387 -0.47241,-1.52571 -0.47241,-2.43555 0,-1.0638 0.21696,-1.98762 0.65088,-2.77148 0.43392,-0.78385 1.0568,-1.43473 1.86865,-1.95264 0.81185,-0.51789 1.80566,-0.90632 2.98145,-1.16528 1.17577,-0.25894 2.49852,-0.38842 3.96826,-0.38843 l 2.60352,0 0,-1.46973 c -2e-5,-0.72785 -0.077,-1.37173 -0.23096,-1.93164 -0.15399,-0.55988 -0.40244,-1.02529 -0.74536,-1.39624 -0.34295,-0.37091 -0.78737,-0.65086 -1.33325,-0.83984 -0.54591,-0.18895 -1.21779,-0.28343 -2.01563,-0.28345 -0.85385,2e-5 -1.62021,0.1015 -2.29907,0.30444 -0.67888,0.20298 -1.27377,0.42694 -1.78467,0.67188 -0.51091,0.24497 -0.93783,0.46893 -1.28076,0.67187 -0.34294,0.20298 -0.59839,0.30446 -0.76636,0.30445 -0.11198,10e-6 -0.20996,-0.028 -0.29394,-0.084 -0.084,-0.056 -0.15748,-0.13996 -0.22046,-0.25195 -0.063,-0.11196 -0.10849,-0.25544 -0.13648,-0.43042 -0.028,-0.17495 -0.042,-0.36742 -0.042,-0.57739 0,-0.34992 0.0245,-0.62637 0.0735,-0.82935 0.049,-0.20294 0.16796,-0.39541 0.35693,-0.57739 0.18896,-0.18195 0.5144,-0.39541 0.97632,-0.64038 0.46191,-0.24494 0.99381,-0.4689 1.5957,-0.67188 0.60188,-0.20294 1.25976,-0.37091 1.97363,-0.5039 0.71386,-0.13296 1.43473,-0.19945 2.1626,-0.19947 1.35774,2e-5 2.51252,0.15399 3.46436,0.46192 0.95181,0.30796 1.72166,0.75937 2.30957,1.35425 0.58787,0.5949 1.01479,1.33326 1.28076,2.21508 0.26593,0.88185 0.39891,1.91066 0.39893,3.08643 z m -3.44336,-8.6294 -2.96045,0 c -0.95184,10e-6 -1.77768,0.0805 -2.47754,0.24146 -0.69988,0.16098 -1.28077,0.39893 -1.74268,0.71387 -0.46192,0.31494 -0.80136,0.69287 -1.01831,1.13378 -0.21696,0.44093 -0.32544,0.94833 -0.32544,1.52222 0,0.97982 0.31144,1.76018 0.93433,2.34107 0.62288,0.58089 1.49421,0.87134 2.61401,0.87133 0.90982,10e-6 1.75316,-0.23095 2.53003,-0.69287 0.77684,-0.46191 1.59219,-1.16878 2.44605,-2.1206 z"
           style="font-size:43px"
           id="path3884"
           inkscape:connector-curvature="0" />
        <path
           d="m 695.02997,847.02368 c -2e-5,0.11198 -0.028,0.20646 -0.084,0.28345 -0.056,0.077 -0.14699,0.14347 -0.27295,0.19946 -0.12599,0.056 -0.30096,0.098 -0.5249,0.12598 -0.22397,0.028 -0.50392,0.042 -0.83984,0.042 -0.34995,0 -0.6369,-0.014 -0.86084,-0.042 -0.22398,-0.028 -0.39894,-0.07 -0.5249,-0.12598 -0.126,-0.056 -0.21698,-0.12248 -0.27295,-0.19946 -0.056,-0.077 -0.084,-0.17147 -0.084,-0.28345 l 0,-11.06494 c -1e-5,-1.07779 -0.084,-1.94562 -0.25195,-2.60352 -0.16798,-0.65786 -0.41294,-1.22475 -0.73486,-1.70068 -0.32196,-0.47589 -0.73838,-0.83983 -1.24927,-1.0918 -0.51092,-0.25193 -1.10231,-0.37791 -1.77417,-0.37793 -0.86785,2e-5 -1.73569,0.30796 -2.60352,0.92383 -0.86784,0.6159 -1.77767,1.51873 -2.72949,2.7085 l 0,13.20654 c -1e-5,0.11198 -0.028,0.20646 -0.084,0.28345 -0.056,0.077 -0.14698,0.14347 -0.27295,0.19946 -0.12599,0.056 -0.30095,0.098 -0.5249,0.12598 -0.22397,0.028 -0.51092,0.042 -0.86084,0.042 -0.33595,0 -0.61589,-0.014 -0.83985,-0.042 -0.22396,-0.028 -0.40243,-0.07 -0.5354,-0.12598 -0.13298,-0.056 -0.22396,-0.12248 -0.27295,-0.19946 -0.049,-0.077 -0.0735,-0.17147 -0.0735,-0.28345 l 0,-18.89648 c -10e-6,-0.11196 0.021,-0.20644 0.063,-0.28345 0.042,-0.077 0.12598,-0.14695 0.25196,-0.20996 0.12597,-0.063 0.28694,-0.10496 0.48291,-0.12598 0.19596,-0.021 0.45491,-0.0315 0.77685,-0.0315 0.30794,2e-5 0.56339,0.0105 0.76636,0.0315 0.20296,0.021 0.36043,0.063 0.47241,0.12598 0.11198,0.063 0.19246,0.13299 0.24146,0.20996 0.049,0.077 0.0735,0.17149 0.0735,0.28345 l 0,2.49853 c 1.0638,-1.18976 2.1241,-2.0611 3.18091,-2.61401 1.05679,-0.55288 2.12409,-0.82933 3.20191,-0.82935 1.25975,2e-5 2.32005,0.21348 3.1809,0.64038 0.86083,0.42694 1.5572,0.99734 2.08912,1.71119 0.53188,0.71388 0.91331,1.55022 1.14428,2.50903 0.23094,0.95883 0.34642,2.11012 0.34644,3.45386 z"
           style="font-size:43px"
           id="path3886"
           inkscape:connector-curvature="0" />
        <path
           d="m 711.17596,845.63794 c -1e-5,0.40593 -0.028,0.72787 -0.084,0.96582 -0.056,0.23796 -0.13999,0.41292 -0.25195,0.5249 -0.11199,0.11198 -0.27996,0.21696 -0.50391,0.31494 -0.22397,0.098 -0.47942,0.17847 -0.76636,0.24146 -0.28695,0.063 -0.5914,0.11548 -0.91333,0.15747 -0.32195,0.042 -0.64389,0.063 -0.96582,0.063 -0.97982,0 -1.81967,-0.12948 -2.51953,-0.38843 -0.69987,-0.25895 -1.27377,-0.65088 -1.72168,-1.17578 -0.44792,-0.5249 -0.77336,-1.18978 -0.97632,-1.99463 -0.20296,-0.80485 -0.30444,-1.75317 -0.30444,-2.84497 l 0,-11.04395 -2.64551,0 c -0.20996,2e-5 -0.37793,-0.11196 -0.5039,-0.33593 -0.12598,-0.22394 -0.18897,-0.58788 -0.18897,-1.0918 0,-0.26593 0.0175,-0.48989 0.0525,-0.67188 0.035,-0.18194 0.0805,-0.33241 0.13648,-0.45141 0.056,-0.11896 0.12947,-0.20294 0.22046,-0.25195 0.091,-0.049 0.19246,-0.0735 0.30444,-0.0735 l 2.62451,0 0,-4.49317 c 0,-0.0979 0.0245,-0.18894 0.0735,-0.27294 0.049,-0.084 0.13997,-0.15745 0.27295,-0.22046 0.13297,-0.063 0.31143,-0.10846 0.5354,-0.13648 0.22395,-0.028 0.5039,-0.042 0.83984,-0.042 0.34993,2e-5 0.63687,0.014 0.86084,0.042 0.22395,0.028 0.39892,0.0735 0.5249,0.13648 0.12597,0.063 0.21695,0.1365 0.27295,0.22046 0.056,0.084 0.084,0.17499 0.084,0.27294 l 0,4.49317 4.85009,0 c 0.11197,2e-5 0.20995,0.0245 0.29395,0.0735 0.084,0.049 0.15746,0.13299 0.22046,0.25195 0.063,0.119 0.10846,0.26947 0.13647,0.45141 0.028,0.18199 0.042,0.40595 0.042,0.67188 -10e-6,0.50392 -0.063,0.86786 -0.18896,1.0918 -0.12599,0.22397 -0.29396,0.33595 -0.50391,0.33593 l -4.85009,0 0,10.54004 c -10e-6,1.30177 0.19245,2.28508 0.57739,2.94995 0.38492,0.66488 1.07429,0.99732 2.06811,0.99732 0.32193,0 0.60888,-0.0315 0.86084,-0.0945 0.25195,-0.063 0.4759,-0.12948 0.67188,-0.19947 0.19595,-0.07 0.36392,-0.13647 0.5039,-0.19946 0.13997,-0.063 0.26594,-0.0945 0.37793,-0.0945 0.07,0 0.13647,0.0175 0.19947,0.0525 0.063,0.035 0.11196,0.10148 0.14697,0.19946 0.035,0.098 0.0665,0.23096 0.0945,0.39893 0.028,0.16797 0.042,0.37793 0.042,0.62988 z"
           style="font-size:43px"
           id="path3888"
           inkscape:connector-curvature="0" />
        <path
           d="m 719.25946,847.02368 c -10e-6,0.11198 -0.028,0.20646 -0.084,0.28345 -0.056,0.077 -0.14698,0.14347 -0.27295,0.19946 -0.12599,0.056 -0.30095,0.098 -0.52491,0.12598 -0.22396,0.028 -0.51091,0.042 -0.86084,0.042 -0.33594,0 -0.61589,-0.014 -0.83984,-0.042 -0.22396,-0.028 -0.40243,-0.07 -0.5354,-0.12598 -0.13298,-0.056 -0.22396,-0.12248 -0.27295,-0.19946 -0.049,-0.077 -0.0735,-0.17147 -0.0735,-0.28345 l 0,-18.89648 c 0,-0.098 0.0245,-0.18895 0.0735,-0.27295 0.049,-0.084 0.13997,-0.15395 0.27295,-0.20996 0.13297,-0.056 0.31144,-0.098 0.5354,-0.12598 0.22395,-0.028 0.5039,-0.042 0.83984,-0.042 0.34993,2e-5 0.63688,0.014 0.86084,0.042 0.22396,0.028 0.39892,0.07 0.52491,0.12598 0.12597,0.056 0.21695,0.12599 0.27295,0.20996 0.056,0.084 0.084,0.17499 0.084,0.27295 z m 0.39893,-25.2793 c -1e-5,0.81188 -0.15398,1.36478 -0.46192,1.6587 -0.30795,0.29397 -0.87484,0.44094 -1.70068,0.44091 -0.81185,3e-5 -1.36825,-0.14345 -1.66919,-0.43042 -0.30095,-0.28692 -0.45142,-0.82932 -0.45142,-1.62719 0,-0.81183 0.15397,-1.36472 0.46192,-1.65869 0.30794,-0.29392 0.87483,-0.44089 1.70068,-0.44092 0.81184,3e-5 1.36824,0.1435 1.66919,0.43042 0.30094,0.28697 0.45141,0.82937 0.45142,1.62719 z"
           style="font-size:43px"
           id="path3890"
           inkscape:connector-curvature="0" />
        <path
           d="m 739.28973,844.14722 c -10e-6,0.23796 -0.007,0.44442 -0.021,0.61938 -0.014,0.17497 -0.0385,0.32194 -0.0735,0.44092 -0.035,0.11898 -0.077,0.22396 -0.12598,0.31494 -0.049,0.091 -0.16098,0.22396 -0.33593,0.39893 -0.17499,0.17497 -0.47243,0.39193 -0.89234,0.65088 -0.41993,0.25895 -0.89235,0.4899 -1.41723,0.69287 -0.52492,0.20296 -1.09531,0.36743 -1.71118,0.4934 -0.6159,0.12598 -1.25278,0.18897 -1.91065,0.18897 -1.35776,0 -2.56153,-0.22396 -3.61133,-0.67188 -1.04981,-0.44791 -1.92814,-1.10229 -2.63501,-1.96313 -0.70687,-0.86084 -1.24577,-1.91764 -1.6167,-3.17041 -0.37093,-1.25276 -0.55639,-2.69799 -0.55639,-4.33569 0,-1.86165 0.22745,-3.46085 0.68237,-4.79761 0.45491,-1.33674 1.0778,-2.43203 1.86865,-3.28589 0.79085,-0.85382 1.72168,-1.4872 2.79248,-1.90015 1.0708,-0.4129 2.22908,-0.61936 3.47486,-0.61938 0.60187,2e-5 1.18626,0.056 1.75317,0.16797 0.56688,0.112 1.08828,0.25897 1.56421,0.44092 0.4759,0.18198 0.89932,0.39194 1.27026,0.62988 0.37092,0.23797 0.64037,0.44094 0.80835,0.60889 0.16796,0.16798 0.28343,0.30096 0.34644,0.39892 0.063,0.098 0.11546,0.21348 0.15747,0.34644 0.042,0.13299 0.07,0.28346 0.084,0.45141 0.014,0.16799 0.021,0.37795 0.021,0.62989 -2e-5,0.54591 -0.063,0.92734 -0.18897,1.14428 -0.12599,0.21698 -0.27996,0.32546 -0.46191,0.32544 -0.20998,2e-5 -0.45143,-0.11546 -0.72436,-0.34643 -0.27297,-0.23094 -0.6194,-0.4864 -1.03931,-0.76636 -0.41994,-0.27993 -0.92734,-0.53538 -1.52222,-0.76636 -0.5949,-0.23094 -1.29827,-0.34642 -2.11011,-0.34643 -1.66569,10e-6 -2.94296,0.64039 -3.83178,1.92114 -0.88884,1.28077 -1.33326,3.13893 -1.33325,5.57446 -10e-6,1.21778 0.11547,2.28508 0.34643,3.20191 0.23095,0.91683 0.57039,1.68319 1.01831,2.29907 0.44791,0.61589 0.99731,1.0743 1.64819,1.37524 0.65087,0.30095 1.39624,0.45142 2.23609,0.45142 0.79784,0 1.49771,-0.12598 2.09961,-0.37793 0.60187,-0.25195 1.12328,-0.5284 1.56421,-0.82935 0.4409,-0.30094 0.81183,-0.57389 1.11279,-0.81884 0.30093,-0.24495 0.53538,-0.36743 0.70337,-0.36744 0.098,10e-6 0.18195,0.028 0.25195,0.084 0.07,0.056 0.12946,0.15047 0.17847,0.28345 0.049,0.13298 0.084,0.30094 0.10498,0.5039 0.021,0.20297 0.0315,0.44442 0.0315,0.72437 z"
           style="font-size:43px"
           id="path3892"
           inkscape:connector-curvature="0" />
        <path
           d="m 765.05194,846.9187 c -0.056,0.15397 -0.13299,0.27995 -0.23096,0.37793 -0.098,0.098 -0.23447,0.17497 -0.40942,0.23096 -0.17498,0.056 -0.39894,0.0945 -0.67187,0.11548 -0.27297,0.021 -0.6124,0.0315 -1.01832,0.0315 -0.30795,0 -0.5774,-0.004 -0.80835,-0.0105 -0.23096,-0.007 -0.43043,-0.0245 -0.59838,-0.0525 -0.16798,-0.028 -0.31146,-0.0595 -0.43042,-0.0945 -0.11899,-0.035 -0.22047,-0.0805 -0.30445,-0.13647 -0.084,-0.056 -0.15048,-0.12248 -0.19946,-0.19947 -0.049,-0.077 -0.0945,-0.17147 -0.13647,-0.28344 l -8.88135,-25.23731 c -0.11198,-0.30792 -0.17147,-0.55637 -0.17847,-0.74536 -0.007,-0.18894 0.0525,-0.33241 0.17847,-0.43042 0.12597,-0.098 0.32894,-0.16094 0.60888,-0.18897 0.27995,-0.028 0.65788,-0.042 1.13379,-0.042 0.39193,3e-5 0.70337,0.0105 0.93433,0.0315 0.23095,0.021 0.40942,0.0595 0.5354,0.11547 0.12597,0.056 0.22045,0.12951 0.28345,0.22046 0.063,0.091 0.12247,0.20649 0.17846,0.34644 l 7.78955,22.86475 0.021,0 7.57959,-22.82276 c 0.042,-0.15394 0.091,-0.27992 0.14697,-0.37793 0.056,-0.0979 0.15395,-0.17494 0.29395,-0.23096 0.13995,-0.056 0.33592,-0.0944 0.58789,-0.11547 0.25193,-0.021 0.58787,-0.0315 1.00781,-0.0315 0.4339,3e-5 0.77683,0.0175 1.02881,0.0525 0.25193,0.035 0.4234,0.10151 0.5144,0.19947 0.091,0.098 0.12596,0.24148 0.10499,0.43042 -0.021,0.18899 -0.0875,0.43744 -0.19947,0.74536 z"
           style="font-size:43px"
           id="path3894"
           inkscape:connector-curvature="0" />
        <path
           d="m 794.23651,836.75659 c -2e-5,0.54591 -0.13649,0.93434 -0.40942,1.16528 -0.27297,0.23097 -0.58441,0.34645 -0.93433,0.34644 l -12.38769,0 c -1e-5,1.04981 0.10497,1.99464 0.31494,2.83447 0.20995,0.83985 0.55989,1.56072 1.0498,2.1626 0.4899,0.60189 1.12678,1.06381 1.91065,1.38574 0.78384,0.32195 1.74266,0.48292 2.87646,0.48291 0.89582,10e-6 1.69367,-0.0735 2.39356,-0.22046 0.69985,-0.14697 1.30524,-0.31143 1.81616,-0.4934 0.51089,-0.18197 0.93081,-0.34644 1.25976,-0.49341 0.32893,-0.14697 0.57738,-0.22046 0.74537,-0.22046 0.098,0 0.18544,0.0245 0.26245,0.0735 0.077,0.049 0.13645,0.12248 0.17846,0.22045 0.042,0.098 0.0735,0.23446 0.0945,0.40943 0.021,0.17497 0.0315,0.38843 0.0315,0.64038 -2e-5,0.18197 -0.007,0.33944 -0.021,0.47241 -0.014,0.13298 -0.0315,0.25196 -0.0525,0.35693 -0.021,0.10499 -0.056,0.19947 -0.10498,0.28345 -0.049,0.084 -0.11199,0.16447 -0.18896,0.24146 -0.077,0.077 -0.30446,0.20296 -0.68238,0.37793 -0.37794,0.17496 -0.86785,0.34643 -1.46972,0.5144 -0.60191,0.16797 -1.29827,0.31844 -2.08911,0.45142 -0.79087,0.13297 -1.63421,0.19946 -2.53003,0.19946 -1.55372,0 -2.91497,-0.21696 -4.08374,-0.65088 -1.16879,-0.43392 -2.15211,-1.0778 -2.94995,-1.93164 -0.79786,-0.85384 -1.39975,-1.92464 -1.80567,-3.2124 -0.40592,-1.28776 -0.60889,-2.78548 -0.60888,-4.49317 -10e-6,-1.62368 0.20995,-3.08291 0.62988,-4.37768 0.41992,-1.29475 1.0253,-2.39354 1.81616,-3.29639 0.79085,-0.90281 1.74617,-1.59568 2.86597,-2.07861 1.11978,-0.48289 2.37255,-0.72435 3.7583,-0.72437 1.48371,2e-5 2.74697,0.23798 3.78979,0.71387 1.04279,0.47593 1.90013,1.11631 2.57202,1.92114 0.67186,0.80487 1.16527,1.74969 1.48023,2.83448 0.31492,1.08481 0.47239,2.24309 0.47241,3.47485 z m -3.48535,-1.02881 c 0.042,-1.81964 -0.36045,-3.24738 -1.20728,-4.2832 -0.84685,-1.03579 -2.10312,-1.55369 -3.76879,-1.55371 -0.85386,2e-5 -1.60272,0.16099 -2.24659,0.48291 -0.64388,0.32196 -1.18278,0.74888 -1.6167,1.28076 -0.43392,0.53192 -0.76986,1.1513 -1.00781,1.85816 -0.23796,0.70688 -0.37093,1.44524 -0.39892,2.21508 z"
           style="font-size:43px"
           id="path3896"
           inkscape:connector-curvature="0" />
        <path
           d="m 810.57147,829.36597 c -10e-6,0.30796 -0.007,0.56691 -0.021,0.77685 -0.014,0.20998 -0.042,0.37445 -0.084,0.49341 -0.042,0.119 -0.0945,0.20998 -0.15747,0.27295 -0.063,0.063 -0.15048,0.0945 -0.26245,0.0945 -0.11199,2e-5 -0.24847,-0.0315 -0.40942,-0.0945 -0.16099,-0.063 -0.34295,-0.12596 -0.5459,-0.18897 -0.20298,-0.063 -0.43043,-0.12246 -0.68238,-0.17846 -0.25196,-0.056 -0.52491,-0.084 -0.81884,-0.084 -0.34995,2e-5 -0.69288,0.07 -1.02881,0.20996 -0.33595,0.14 -0.68938,0.37095 -1.0603,0.69288 -0.37094,0.32195 -0.75937,0.74887 -1.16529,1.28076 -0.40593,0.53191 -0.85385,1.18279 -1.34375,1.95263 l 0,12.42969 c 0,0.11198 -0.028,0.20646 -0.084,0.28345 -0.056,0.077 -0.14698,0.14347 -0.27295,0.19946 -0.12598,0.056 -0.30095,0.098 -0.5249,0.12598 -0.22397,0.028 -0.51091,0.042 -0.86084,0.042 -0.33595,0 -0.61589,-0.014 -0.83985,-0.042 -0.22396,-0.028 -0.40243,-0.07 -0.5354,-0.12598 -0.13298,-0.056 -0.22396,-0.12248 -0.27295,-0.19946 -0.049,-0.077 -0.0735,-0.17147 -0.0735,-0.28345 l 0,-18.89648 c -10e-6,-0.11196 0.021,-0.20644 0.063,-0.28345 0.042,-0.077 0.12597,-0.14695 0.25195,-0.20996 0.12597,-0.063 0.28694,-0.10496 0.48291,-0.12598 0.19596,-0.021 0.45491,-0.0315 0.77685,-0.0315 0.30794,2e-5 0.56339,0.0105 0.76636,0.0315 0.20296,0.021 0.36043,0.063 0.47241,0.12598 0.11198,0.063 0.19246,0.13299 0.24146,0.20996 0.049,0.077 0.0735,0.17149 0.0735,0.28345 l 0,2.75049 c 0.5179,-0.75585 1.00431,-1.37173 1.45923,-1.84766 0.45491,-0.47589 0.88533,-0.85032 1.29126,-1.12329 0.40592,-0.27293 0.80834,-0.4619 1.20728,-0.5669 0.39891,-0.10496 0.80134,-0.15745 1.20727,-0.15747 0.18196,2e-5 0.38842,0.0105 0.61939,0.0315 0.23094,0.021 0.4724,0.0595 0.72436,0.11548 0.25194,0.056 0.4794,0.11899 0.68238,0.18896 0.20295,0.07 0.34642,0.13999 0.43042,0.20996 0.084,0.07 0.13996,0.1365 0.16797,0.19946 0.028,0.063 0.0525,0.1435 0.0735,0.24146 0.021,0.098 0.035,0.24147 0.042,0.43042 0.007,0.18898 0.0105,0.44444 0.0105,0.76636 z"
           style="font-size:43px"
           id="path3898"
           inkscape:connector-curvature="0" />
        <path
           d="m 826.42352,841.87964 c -1e-5,0.96582 -0.17848,1.82666 -0.5354,2.58252 -0.35695,0.75586 -0.86435,1.39274 -1.52221,1.91064 -0.65789,0.51791 -1.44175,0.90983 -2.35157,1.17578 -0.90984,0.26595 -1.91065,0.39893 -3.00244,0.39893 -0.67188,0 -1.31226,-0.0525 -1.92114,-0.15747 -0.60889,-0.10498 -1.15479,-0.23796 -1.6377,-0.39893 -0.48291,-0.16097 -0.89233,-0.32894 -1.22827,-0.5039 -0.33594,-0.17497 -0.58089,-0.33244 -0.73486,-0.47242 -0.15397,-0.13997 -0.26595,-0.33593 -0.33594,-0.58789 -0.07,-0.25195 -0.10498,-0.59488 -0.10498,-1.0288 0,-0.26595 0.014,-0.48991 0.042,-0.67188 0.028,-0.18196 0.063,-0.32893 0.10498,-0.44092 0.042,-0.11197 0.10148,-0.19246 0.17847,-0.24145 0.077,-0.049 0.16447,-0.0735 0.26245,-0.0735 0.15397,10e-6 0.38143,0.0945 0.68237,0.28345 0.30095,0.18897 0.67188,0.39543 1.1128,0.61938 0.44091,0.22396 0.96231,0.43043 1.56421,0.61939 0.60188,0.18897 1.29475,0.28345 2.07861,0.28345 0.58788,0 1.11978,-0.063 1.5957,-0.18897 0.4759,-0.12597 0.88883,-0.31144 1.23877,-0.5564 0.34993,-0.24495 0.61938,-0.55639 0.80835,-0.93432 0.18896,-0.37793 0.28344,-0.82584 0.28345,-1.34375 -10e-6,-0.5319 -0.13649,-0.97981 -0.40942,-1.34375 -0.27296,-0.36393 -0.6334,-0.68587 -1.0813,-0.96582 -0.44793,-0.27994 -0.95184,-0.5284 -1.51172,-0.74536 -0.55991,-0.21695 -1.1373,-0.44441 -1.73218,-0.68238 -0.5949,-0.23794 -1.17579,-0.50739 -1.74268,-0.80835 -0.56689,-0.30093 -1.0743,-0.66836 -1.52221,-1.10229 -0.44792,-0.43391 -0.80835,-0.95181 -1.0813,-1.55371 -0.27295,-0.60188 -0.40943,-1.32274 -0.40942,-2.1626 -10e-6,-0.74185 0.14347,-1.45221 0.43042,-2.1311 0.28694,-0.67886 0.71736,-1.27375 1.29125,-1.78467 0.57389,-0.51089 1.29126,-0.92031 2.1521,-1.22827 0.86084,-0.30793 1.86515,-0.4619 3.01294,-0.46192 0.5039,2e-5 1.00781,0.042 1.51172,0.12598 0.5039,0.084 0.95881,0.18898 1.36475,0.31494 0.40591,0.126 0.75235,0.26247 1.03931,0.40942 0.28693,0.147 0.50389,0.27647 0.65087,0.38843 0.14696,0.112 0.24494,0.20998 0.29395,0.29395 0.049,0.084 0.084,0.17848 0.10498,0.28345 0.021,0.10499 0.042,0.23447 0.063,0.38842 0.021,0.15399 0.0315,0.34296 0.0315,0.5669 -10e-6,0.23797 -0.0105,0.44443 -0.0315,0.61938 -0.021,0.17499 -0.056,0.31846 -0.10498,0.43042 -0.049,0.112 -0.1085,0.19248 -0.17847,0.24146 -0.07,0.049 -0.14699,0.0735 -0.23096,0.0735 -0.12599,2e-5 -0.30795,-0.077 -0.54589,-0.23095 -0.23797,-0.15396 -0.54592,-0.31843 -0.92383,-0.49341 -0.37794,-0.17495 -0.82236,-0.33942 -1.33325,-0.49341 -0.51092,-0.15395 -1.09531,-0.23094 -1.75318,-0.23096 -0.5879,2e-5 -1.1058,0.0665 -1.55371,0.19947 -0.44792,0.13299 -0.81535,0.32195 -1.10229,0.56689 -0.28696,0.24497 -0.50392,0.53542 -0.65088,0.87134 -0.14698,0.33595 -0.22047,0.69988 -0.22046,1.0918 -1e-5,0.54591 0.13997,1.00432 0.41992,1.37524 0.27994,0.37094 0.64387,0.69638 1.0918,0.97632 0.44791,0.27996 0.95881,0.53191 1.53271,0.75586 0.57389,0.22397 1.15828,0.45492 1.75318,0.69287 0.59487,0.23796 1.18276,0.50392 1.76367,0.79785 0.58088,0.29396 1.09528,0.65089 1.54321,1.0708 0.4479,0.41993 0.80834,0.92384 1.0813,1.51172 0.27293,0.5879 0.40941,1.28777 0.40942,2.09961 z"
           style="font-size:43px"
           id="path3900"
           inkscape:connector-curvature="0" />
        <path
           d="m 834.82196,847.02368 c -10e-6,0.11198 -0.028,0.20646 -0.084,0.28345 -0.056,0.077 -0.14698,0.14347 -0.27295,0.19946 -0.12599,0.056 -0.30095,0.098 -0.52491,0.12598 -0.22396,0.028 -0.51091,0.042 -0.86084,0.042 -0.33594,0 -0.61589,-0.014 -0.83984,-0.042 -0.22396,-0.028 -0.40243,-0.07 -0.5354,-0.12598 -0.13298,-0.056 -0.22396,-0.12248 -0.27295,-0.19946 -0.049,-0.077 -0.0735,-0.17147 -0.0735,-0.28345 l 0,-18.89648 c 0,-0.098 0.0245,-0.18895 0.0735,-0.27295 0.049,-0.084 0.13997,-0.15395 0.27295,-0.20996 0.13297,-0.056 0.31144,-0.098 0.5354,-0.12598 0.22395,-0.028 0.5039,-0.042 0.83984,-0.042 0.34993,2e-5 0.63688,0.014 0.86084,0.042 0.22396,0.028 0.39892,0.07 0.52491,0.12598 0.12597,0.056 0.21695,0.12599 0.27295,0.20996 0.056,0.084 0.084,0.17499 0.084,0.27295 z m 0.39893,-25.2793 c -1e-5,0.81188 -0.15398,1.36478 -0.46192,1.6587 -0.30795,0.29397 -0.87484,0.44094 -1.70068,0.44091 -0.81185,3e-5 -1.36825,-0.14345 -1.66919,-0.43042 -0.30095,-0.28692 -0.45142,-0.82932 -0.45142,-1.62719 0,-0.81183 0.15397,-1.36472 0.46192,-1.65869 0.30794,-0.29392 0.87483,-0.44089 1.70068,-0.44092 0.81184,3e-5 1.36824,0.1435 1.66919,0.43042 0.30094,0.28697 0.45141,0.82937 0.45142,1.62719 z"
           style="font-size:43px"
           id="path3902"
           inkscape:connector-curvature="0" />
        <path
           d="m 858.84149,837.36548 c -2e-5,1.53972 -0.20298,2.95696 -0.60889,4.25171 -0.40594,1.29476 -1.01133,2.41105 -1.81616,3.34887 -0.80486,0.93783 -1.81268,1.66919 -3.02343,2.1941 -1.21079,0.5249 -2.61403,0.78735 -4.20972,0.78735 -1.55372,0 -2.90797,-0.23096 -4.06275,-0.69287 -1.15479,-0.46191 -2.11711,-1.13379 -2.88696,-2.01563 -0.76986,-0.88183 -1.34375,-1.95263 -1.72168,-3.2124 -0.37793,-1.25976 -0.56689,-2.68749 -0.56689,-4.2832 0,-1.5397 0.19946,-2.95694 0.59839,-4.25171 0.39892,-1.29474 1.00081,-2.41104 1.80566,-3.34888 0.80485,-0.9378 1.80916,-1.66567 3.01294,-2.18359 1.20377,-0.51789 2.6105,-0.77684 4.22021,-0.77686 1.5537,2e-5 2.90795,0.23098 4.06275,0.69287 1.15477,0.46194 2.11709,1.13381 2.88696,2.01563 0.76984,0.88185 1.34723,1.95265 1.73218,3.2124 0.38491,1.25978 0.57737,2.68051 0.57739,4.26221 z m -3.65332,0.23096 c -2e-5,-1.0218 -0.0945,-1.98762 -0.28345,-2.89747 -0.18898,-0.90981 -0.50042,-1.70766 -0.93432,-2.39355 -0.43394,-0.68586 -1.02183,-1.22826 -1.76367,-1.6272 -0.74188,-0.39891 -1.66571,-0.59837 -2.77149,-0.59839 -1.02182,2e-5 -1.90015,0.18199 -2.63501,0.5459 -0.73487,0.36395 -1.34026,0.87836 -1.81616,1.54322 -0.47592,0.66489 -0.82935,1.45224 -1.0603,2.36206 -0.23097,0.90984 -0.34644,1.90365 -0.34644,2.98144 0,1.03582 0.0945,2.00864 0.28345,2.91846 0.18896,0.90984 0.5039,1.70419 0.94482,2.38305 0.44091,0.67888 1.0323,1.21778 1.77417,1.6167 0.74186,0.39893 1.66568,0.5984 2.77149,0.59839 1.0078,10e-6 1.88263,-0.18196 2.62451,-0.5459 0.74185,-0.36392 1.35073,-0.87483 1.82666,-1.53271 0.47589,-0.65787 0.82583,-1.44173 1.0498,-2.35156 0.22395,-0.90983 0.33592,-1.91064 0.33594,-3.00244 z"
           style="font-size:43px"
           id="path3904"
           inkscape:connector-curvature="0" />
        <path
           d="m 880.21552,847.02368 c -2e-5,0.11198 -0.028,0.20646 -0.084,0.28345 -0.056,0.077 -0.14699,0.14347 -0.27295,0.19946 -0.12599,0.056 -0.30096,0.098 -0.5249,0.12598 -0.22398,0.028 -0.50393,0.042 -0.83984,0.042 -0.34996,0 -0.6369,-0.014 -0.86084,-0.042 -0.22398,-0.028 -0.39895,-0.07 -0.52491,-0.12598 -0.12599,-0.056 -0.21697,-0.12248 -0.27295,-0.19946 -0.056,-0.077 -0.084,-0.17147 -0.084,-0.28345 l 0,-11.06494 c -2e-5,-1.07779 -0.084,-1.94562 -0.25195,-2.60352 -0.16799,-0.65786 -0.41294,-1.22475 -0.73487,-1.70068 -0.32195,-0.47589 -0.73837,-0.83983 -1.24926,-1.0918 -0.51092,-0.25193 -1.10231,-0.37791 -1.77417,-0.37793 -0.86785,2e-5 -1.73569,0.30796 -2.60352,0.92383 -0.86785,0.6159 -1.77768,1.51873 -2.72949,2.7085 l 0,13.20654 c -10e-6,0.11198 -0.028,0.20646 -0.084,0.28345 -0.056,0.077 -0.14698,0.14347 -0.27295,0.19946 -0.12598,0.056 -0.30095,0.098 -0.5249,0.12598 -0.22396,0.028 -0.51091,0.042 -0.86084,0.042 -0.33594,0 -0.61589,-0.014 -0.83984,-0.042 -0.22396,-0.028 -0.40243,-0.07 -0.5354,-0.12598 -0.13298,-0.056 -0.22396,-0.12248 -0.27295,-0.19946 -0.049,-0.077 -0.0735,-0.17147 -0.0735,-0.28345 l 0,-18.89648 c 0,-0.11196 0.021,-0.20644 0.063,-0.28345 0.042,-0.077 0.12597,-0.14695 0.25195,-0.20996 0.12598,-0.063 0.28695,-0.10496 0.48291,-0.12598 0.19596,-0.021 0.45491,-0.0315 0.77686,-0.0315 0.30794,2e-5 0.56339,0.0105 0.76636,0.0315 0.20295,0.021 0.36042,0.063 0.47241,0.12598 0.11197,0.063 0.19246,0.13299 0.24145,0.20996 0.049,0.077 0.0735,0.17149 0.0735,0.28345 l 0,2.49853 c 1.0638,-1.18976 2.1241,-2.0611 3.18091,-2.61401 1.05679,-0.55288 2.12409,-0.82933 3.2019,-0.82935 1.25975,2e-5 2.32006,0.21348 3.18091,0.64038 0.86082,0.42694 1.55719,0.99734 2.08911,1.71119 0.53188,0.71388 0.91331,1.55022 1.14429,2.50903 0.23094,0.95883 0.34642,2.11012 0.34644,3.45386 z"
           style="font-size:43px"
           id="path3906"
           inkscape:connector-curvature="0" />
        <path
           d="m 889.99969,847.02368 c 0,0.11198 -0.028,0.20646 -0.084,0.28345 -0.056,0.077 -0.14698,0.14347 -0.27295,0.19946 -0.12598,0.056 -0.30095,0.098 -0.5249,0.12598 -0.22397,0.028 -0.51091,0.042 -0.86084,0.042 -0.33594,0 -0.61589,-0.014 -0.83984,-0.042 -0.22397,-0.028 -0.40243,-0.07 -0.53541,-0.12598 -0.13297,-0.056 -0.22396,-0.12248 -0.27294,-0.19946 -0.049,-0.077 -0.0735,-0.17147 -0.0735,-0.28345 l 0,-18.89648 c 0,-0.098 0.0245,-0.18895 0.0735,-0.27295 0.049,-0.084 0.13997,-0.15395 0.27294,-0.20996 0.13298,-0.056 0.31144,-0.098 0.53541,-0.12598 0.22395,-0.028 0.5039,-0.042 0.83984,-0.042 0.34993,2e-5 0.63687,0.014 0.86084,0.042 0.22395,0.028 0.39892,0.07 0.5249,0.12598 0.12597,0.056 0.21695,0.12599 0.27295,0.20996 0.056,0.084 0.084,0.17499 0.084,0.27295 z m 0.39893,-25.2793 c -1e-5,0.81188 -0.15398,1.36478 -0.46191,1.6587 -0.30795,0.29397 -0.87485,0.44094 -1.70069,0.44091 -0.81185,3e-5 -1.36825,-0.14345 -1.66919,-0.43042 -0.30094,-0.28692 -0.45142,-0.82932 -0.45141,-1.62719 -10e-6,-0.81183 0.15397,-1.36472 0.46191,-1.65869 0.30794,-0.29392 0.87483,-0.44089 1.70069,-0.44092 0.81184,3e-5 1.36823,0.1435 1.66918,0.43042 0.30094,0.28697 0.45141,0.82937 0.45142,1.62719 z"
           style="font-size:43px"
           id="path3908"
           inkscape:connector-curvature="0" />
        <path
           d="m 912.71747,847.02368 c -2e-5,0.11198 -0.028,0.20646 -0.084,0.28345 -0.056,0.077 -0.14699,0.14347 -0.27295,0.19946 -0.12599,0.056 -0.30096,0.098 -0.5249,0.12598 -0.22397,0.028 -0.50392,0.042 -0.83984,0.042 -0.34995,0 -0.6369,-0.014 -0.86084,-0.042 -0.22398,-0.028 -0.39894,-0.07 -0.5249,-0.12598 -0.126,-0.056 -0.21698,-0.12248 -0.27295,-0.19946 -0.056,-0.077 -0.084,-0.17147 -0.084,-0.28345 l 0,-11.06494 c -1e-5,-1.07779 -0.084,-1.94562 -0.25195,-2.60352 -0.16798,-0.65786 -0.41294,-1.22475 -0.73486,-1.70068 -0.32196,-0.47589 -0.73838,-0.83983 -1.24927,-1.0918 -0.51092,-0.25193 -1.10231,-0.37791 -1.77417,-0.37793 -0.86785,2e-5 -1.73569,0.30796 -2.60352,0.92383 -0.86784,0.6159 -1.77767,1.51873 -2.72949,2.7085 l 0,13.20654 c -1e-5,0.11198 -0.028,0.20646 -0.084,0.28345 -0.056,0.077 -0.14698,0.14347 -0.27295,0.19946 -0.12599,0.056 -0.30095,0.098 -0.5249,0.12598 -0.22397,0.028 -0.51092,0.042 -0.86084,0.042 -0.33595,0 -0.61589,-0.014 -0.83985,-0.042 -0.22396,-0.028 -0.40243,-0.07 -0.5354,-0.12598 -0.13298,-0.056 -0.22396,-0.12248 -0.27295,-0.19946 -0.049,-0.077 -0.0735,-0.17147 -0.0735,-0.28345 l 0,-18.89648 c -10e-6,-0.11196 0.021,-0.20644 0.063,-0.28345 0.042,-0.077 0.12598,-0.14695 0.25196,-0.20996 0.12597,-0.063 0.28694,-0.10496 0.48291,-0.12598 0.19596,-0.021 0.45491,-0.0315 0.77685,-0.0315 0.30794,2e-5 0.56339,0.0105 0.76636,0.0315 0.20296,0.021 0.36043,0.063 0.47241,0.12598 0.11198,0.063 0.19246,0.13299 0.24146,0.20996 0.049,0.077 0.0735,0.17149 0.0735,0.28345 l 0,2.49853 c 1.0638,-1.18976 2.1241,-2.0611 3.18091,-2.61401 1.05679,-0.55288 2.12409,-0.82933 3.20191,-0.82935 1.25975,2e-5 2.32005,0.21348 3.1809,0.64038 0.86083,0.42694 1.5572,0.99734 2.08912,1.71119 0.53188,0.71388 0.91331,1.55022 1.14428,2.50903 0.23094,0.95883 0.34642,2.11012 0.34644,3.45386 z"
           style="font-size:43px"
           id="path3910"
           inkscape:connector-curvature="0" />
        <path
           d="m 934.82635,828.98804 c -1e-5,0.48992 -0.0665,0.84336 -0.19946,1.0603 -0.13299,0.21698 -0.30446,0.32546 -0.5144,0.32544 l -2.7085,0 c 0.48989,0.50392 0.83283,1.06032 1.02881,1.66919 0.19595,0.6089 0.29393,1.24228 0.29395,1.90015 -2e-5,1.0918 -0.17499,2.05762 -0.52491,2.89746 -0.34995,0.83985 -0.85035,1.55022 -1.50122,2.1311 -0.65089,0.5809 -1.42425,1.02532 -2.32007,1.33325 -0.89584,0.30795 -1.88965,0.46192 -2.98144,0.46192 -0.76987,0 -1.50123,-0.10148 -2.19409,-0.30445 -0.69288,-0.20295 -1.22828,-0.4584 -1.6062,-0.76636 -0.25196,0.25197 -0.45842,0.53891 -0.61939,0.86084 -0.16097,0.32195 -0.24146,0.69288 -0.24145,1.1128 -10e-6,0.48991 0.22745,0.89584 0.68237,1.21777 0.45491,0.32195 1.0603,0.49691 1.81616,0.5249 l 4.93408,0.20996 c 0.93782,0.028 1.79865,0.15748 2.58252,0.38843 0.78384,0.23096 1.46271,0.5599 2.03662,0.98682 0.57388,0.42692 1.0218,0.95182 1.34375,1.57471 0.32193,0.62288 0.4829,1.34724 0.48291,2.17309 -10e-6,0.86784 -0.18198,1.69368 -0.54589,2.47754 -0.36395,0.78385 -0.92035,1.47322 -1.66919,2.06812 -0.74888,0.59488 -1.7042,1.06379 -2.86597,1.40673 -1.1618,0.34293 -2.53354,0.5144 -4.11524,0.51441 -1.52572,-1e-5 -2.82398,-0.12949 -3.89477,-0.38843 -1.07081,-0.25896 -1.94914,-0.61239 -2.63501,-1.0603 -0.68587,-0.44792 -1.18278,-0.98332 -1.49072,-1.6062 -0.30795,-0.62289 -0.46192,-1.29827 -0.46192,-2.02613 0,-0.46191 0.056,-0.90983 0.16797,-1.34375 0.11198,-0.43392 0.28345,-0.84684 0.51441,-1.23877 0.23095,-0.39192 0.5179,-0.76635 0.86084,-1.12329 0.34293,-0.35693 0.73836,-0.71036 1.18628,-1.0603 -0.68588,-0.34993 -1.19329,-0.79085 -1.52222,-1.32275 -0.32894,-0.5319 -0.49341,-1.10579 -0.49341,-1.72168 0,-0.85384 0.17497,-1.6167 0.5249,-2.28858 0.34993,-0.67186 0.78385,-1.27375 1.30176,-1.80566 -0.43392,-0.5179 -0.77686,-1.10229 -1.02881,-1.75318 -0.25195,-0.65086 -0.37793,-1.43822 -0.37793,-2.36206 0,-1.07778 0.18197,-2.0436 0.5459,-2.89746 0.36393,-0.85382 0.86784,-1.57469 1.51172,-2.16259 0.64387,-0.58788 1.41723,-1.03929 2.32007,-1.35425 0.90282,-0.31492 1.88614,-0.47239 2.94995,-0.47241 0.57388,2e-5 1.10928,0.0315 1.6062,0.0945 0.4969,0.063 0.96231,0.15049 1.39624,0.26245 l 5.71094,0 c 0.23793,2e-5 0.4164,0.1155 0.5354,0.34643 0.11896,0.23098 0.17845,0.58441 0.17846,1.06031 z m -5.41699,4.97607 c -10e-6,-1.28774 -0.35344,-2.29206 -1.0603,-3.01294 -0.70688,-0.72085 -1.71119,-1.08128 -3.01294,-1.0813 -0.67188,2e-5 -1.25627,0.112 -1.75317,0.33594 -0.49692,0.22398 -0.90984,0.53192 -1.23877,0.92383 -0.32895,0.39194 -0.5739,0.84336 -0.73487,1.35425 -0.16097,0.51092 -0.24146,1.04632 -0.24145,1.6062 -10e-6,1.24578 0.35343,2.2256 1.0603,2.93945 0.70686,0.71388 1.69718,1.07081 2.97095,1.0708 0.68586,1e-5 1.28075,-0.10847 1.78467,-0.32544 0.50389,-0.21695 0.92031,-0.51789 1.24926,-0.90283 0.32893,-0.38492 0.57388,-0.82933 0.73487,-1.33325 0.16095,-0.5039 0.24144,-1.0288 0.24145,-1.57471 z m 1.74268,14.97022 c -2e-5,-0.81185 -0.33245,-1.43824 -0.99732,-1.87915 -0.66489,-0.44092 -1.56422,-0.67538 -2.69799,-0.70337 l -4.89209,-0.16797 c -0.44793,0.34993 -0.81536,0.68237 -1.1023,0.99731 -0.28695,0.31494 -0.51441,0.61589 -0.68237,0.90283 -0.16798,0.28695 -0.28345,0.5704 -0.34644,0.85035 -0.063,0.27994 -0.0945,0.56689 -0.0945,0.86084 0,0.90982 0.46191,1.59919 1.38574,2.06811 0.92382,0.46891 2.21158,0.70337 3.86328,0.70337 1.0498,0 1.92813,-0.10149 2.63501,-0.30444 0.70686,-0.20297 1.27725,-0.47242 1.71119,-0.80835 0.4339,-0.33594 0.74534,-0.72087 0.93432,-1.15479 0.18895,-0.43392 0.28343,-0.88883 0.28345,-1.36474 z"
           style="font-size:43px"
           id="path3912"
           inkscape:connector-curvature="0" />
        <path
           d="m 969.82684,824.07495 c -2e-5,0.26597 -0.014,0.50043 -0.042,0.70337 -0.028,0.20299 -0.07,0.37095 -0.12598,0.50391 -0.056,0.13299 -0.126,0.22748 -0.20996,0.28344 -0.084,0.056 -0.17499,0.084 -0.27295,0.084 -0.16799,2e-5 -0.44794,-0.13296 -0.83984,-0.39893 -0.39195,-0.26593 -0.91685,-0.55987 -1.57471,-0.88183 -0.65789,-0.32192 -1.44525,-0.61587 -2.36206,-0.88184 -0.91684,-0.26593 -2.00514,-0.3989 -3.26489,-0.39893 -1.49773,3e-5 -2.84148,0.27298 -4.03125,0.81885 -1.18979,0.54592 -2.1976,1.30178 -3.02344,2.26758 -0.82585,0.96584 -1.45923,2.11363 -1.90014,3.44336 -0.44093,1.32977 -0.66139,2.7715 -0.66138,4.3252 -10e-6,1.73568 0.24145,3.2754 0.72436,4.61914 0.48291,1.34375 1.15128,2.47754 2.00513,3.40136 0.85383,0.92384 1.87214,1.6237 3.05493,2.09961 1.18277,0.47592 2.48103,0.71387 3.89478,0.71387 0.83983,0 1.69017,-0.10148 2.55102,-0.30444 0.86083,-0.20296 1.66218,-0.50741 2.40406,-0.91333 l 0,-7.91553 -6.29883,0 c -0.23797,10e-6 -0.41644,-0.11897 -0.5354,-0.35693 -0.11899,-0.23795 -0.17848,-0.60888 -0.17847,-1.1128 -10e-6,-0.26593 0.014,-0.49339 0.042,-0.68237 0.028,-0.18895 0.0735,-0.34292 0.13648,-0.46191 0.063,-0.11897 0.13646,-0.20645 0.22046,-0.26246 0.084,-0.056 0.18895,-0.084 0.31494,-0.084 l 8.62939,0 c 0.15395,10e-6 0.30792,0.028 0.46192,0.084 0.15395,0.056 0.29392,0.13999 0.41992,0.25196 0.12595,0.11199 0.22393,0.26596 0.29394,0.46191 0.07,0.19598 0.10496,0.41994 0.10498,0.67188 l 0,10.35107 c -2e-5,0.36394 -0.063,0.67888 -0.18896,0.94482 -0.126,0.26596 -0.39195,0.50041 -0.79785,0.70337 -0.40595,0.20297 -0.93085,0.42343 -1.57471,0.66138 -0.6439,0.23796 -1.30878,0.44092 -1.99463,0.60889 -0.68589,0.16797 -1.37876,0.29394 -2.07861,0.37793 -0.69989,0.084 -1.39276,0.12597 -2.07861,0.12597 -2.09963,0 -3.97528,-0.32544 -5.62696,-0.97631 -1.6517,-0.65088 -3.04794,-1.57821 -4.18872,-2.78199 -1.14079,-1.20377 -2.01213,-2.6455 -2.61401,-4.32519 -0.60189,-1.67968 -0.90284,-3.55533 -0.90283,-5.62696 -10e-6,-2.15558 0.32543,-4.10821 0.97631,-5.85791 0.65088,-1.74965 1.56771,-3.24037 2.75049,-4.47216 1.18278,-1.23175 2.60351,-2.18707 4.26221,-2.86597 1.65868,-0.67885 3.49584,-1.01828 5.51147,-1.01831 1.0358,3e-5 2.00861,0.091 2.91846,0.27295 0.90981,0.18199 1.71816,0.39545 2.42505,0.64038 0.70685,0.24498 1.30174,0.51093 1.78467,0.79785 0.48289,0.28697 0.81532,0.52143 0.99731,0.70337 0.18195,0.18199 0.30792,0.39195 0.37793,0.62988 0.07,0.23798 0.10496,0.58092 0.10498,1.02881 z"
           style="font-size:43px"
           id="path3914"
           inkscape:connector-curvature="0" />
        <path
           d="m 987.19061,829.36597 c -10e-6,0.30796 -0.007,0.56691 -0.021,0.77685 -0.014,0.20998 -0.042,0.37445 -0.084,0.49341 -0.042,0.119 -0.0945,0.20998 -0.15747,0.27295 -0.063,0.063 -0.15048,0.0945 -0.26245,0.0945 -0.11199,2e-5 -0.24847,-0.0315 -0.40942,-0.0945 -0.16099,-0.063 -0.34295,-0.12596 -0.5459,-0.18897 -0.20298,-0.063 -0.43043,-0.12246 -0.68237,-0.17846 -0.25197,-0.056 -0.52492,-0.084 -0.81885,-0.084 -0.34995,2e-5 -0.69288,0.07 -1.02881,0.20996 -0.33595,0.14 -0.68938,0.37095 -1.0603,0.69288 -0.37094,0.32195 -0.75937,0.74887 -1.16529,1.28076 -0.40593,0.53191 -0.85385,1.18279 -1.34375,1.95263 l 0,12.42969 c 0,0.11198 -0.028,0.20646 -0.084,0.28345 -0.056,0.077 -0.14698,0.14347 -0.27295,0.19946 -0.12598,0.056 -0.30095,0.098 -0.5249,0.12598 -0.22397,0.028 -0.51091,0.042 -0.86084,0.042 -0.33594,0 -0.61589,-0.014 -0.83985,-0.042 -0.22396,-0.028 -0.40243,-0.07 -0.5354,-0.12598 -0.13298,-0.056 -0.22396,-0.12248 -0.27295,-0.19946 -0.049,-0.077 -0.0735,-0.17147 -0.0735,-0.28345 l 0,-18.89648 c -10e-6,-0.11196 0.021,-0.20644 0.063,-0.28345 0.042,-0.077 0.12597,-0.14695 0.25195,-0.20996 0.12597,-0.063 0.28694,-0.10496 0.48291,-0.12598 0.19596,-0.021 0.45491,-0.0315 0.77685,-0.0315 0.30794,2e-5 0.56339,0.0105 0.76636,0.0315 0.20296,0.021 0.36043,0.063 0.47241,0.12598 0.11198,0.063 0.19246,0.13299 0.24146,0.20996 0.049,0.077 0.0735,0.17149 0.0735,0.28345 l 0,2.75049 c 0.51789,-0.75585 1.0043,-1.37173 1.45922,-1.84766 0.45491,-0.47589 0.88533,-0.85032 1.29126,-1.12329 0.40592,-0.27293 0.80834,-0.4619 1.20728,-0.5669 0.39891,-0.10496 0.80134,-0.15745 1.20727,-0.15747 0.18196,2e-5 0.38842,0.0105 0.61939,0.0315 0.23094,0.021 0.4724,0.0595 0.72436,0.11548 0.25194,0.056 0.4794,0.11899 0.68238,0.18896 0.20295,0.07 0.34642,0.13999 0.43042,0.20996 0.084,0.07 0.13996,0.1365 0.16797,0.19946 0.028,0.063 0.0525,0.1435 0.0735,0.24146 0.021,0.098 0.035,0.24147 0.042,0.43042 0.007,0.18898 0.0105,0.44444 0.0105,0.76636 z"
           style="font-size:43px"
           id="path3916"
           inkscape:connector-curvature="0" />
        <path
           d="m 1005.4152,847.04468 c 0,0.16797 -0.056,0.29394 -0.1679,0.37793 -0.112,0.084 -0.266,0.14697 -0.462,0.18896 -0.1959,0.042 -0.4829,0.063 -0.8608,0.063 -0.3639,0 -0.6544,-0.021 -0.8713,-0.063 -0.217,-0.042 -0.3745,-0.10498 -0.4725,-0.18896 -0.098,-0.084 -0.1469,-0.20996 -0.1469,-0.37793 l 0,-1.88965 c -0.8259,0.88184 -1.7462,1.56771 -2.76101,2.05762 -1.01482,0.48991 -2.08912,0.73486 -3.2229,0.73486 -0.99382,0 -1.89315,-0.12948 -2.698,-0.38843 -0.80485,-0.25895 -1.49072,-0.63338 -2.05762,-1.12329 -0.56689,-0.48991 -1.00781,-1.09179 -1.32275,-1.80566 -0.31494,-0.71387 -0.47241,-1.52571 -0.47241,-2.43555 0,-1.0638 0.21696,-1.98762 0.65088,-2.77148 0.43391,-0.78385 1.0568,-1.43473 1.86865,-1.95264 0.81184,-0.51789 1.80566,-0.90632 2.98145,-1.16528 1.17577,-0.25894 2.49852,-0.38842 3.96826,-0.38843 l 2.60355,0 0,-1.46973 c -10e-5,-0.72785 -0.077,-1.37173 -0.231,-1.93164 -0.154,-0.55988 -0.4024,-1.02529 -0.7454,-1.39624 -0.3429,-0.37091 -0.7873,-0.65086 -1.33321,-0.83984 -0.54591,-0.18895 -1.21778,-0.28343 -2.01562,-0.28345 -0.85385,2e-5 -1.62021,0.1015 -2.29907,0.30444 -0.67889,0.20298 -1.27377,0.42694 -1.78467,0.67188 -0.51091,0.24497 -0.93783,0.46893 -1.28076,0.67187 -0.34294,0.20298 -0.5984,0.30446 -0.76636,0.30445 -0.11198,10e-6 -0.20997,-0.028 -0.29395,-0.084 -0.084,-0.056 -0.15747,-0.13996 -0.22046,-0.25195 -0.063,-0.11196 -0.10848,-0.25544 -0.13647,-0.43042 -0.028,-0.17495 -0.042,-0.36742 -0.042,-0.57739 -1e-5,-0.34992 0.0245,-0.62637 0.0735,-0.82935 0.049,-0.20294 0.16797,-0.39541 0.35694,-0.57739 0.18896,-0.18195 0.5144,-0.39541 0.97632,-0.64038 0.4619,-0.24494 0.99381,-0.4689 1.5957,-0.67188 0.60188,-0.20294 1.25976,-0.37091 1.97363,-0.5039 0.71386,-0.13296 1.43473,-0.19945 2.1626,-0.19947 1.35773,2e-5 2.51248,0.15399 3.46438,0.46192 0.9518,0.30796 1.7216,0.75937 2.3095,1.35425 0.5879,0.5949 1.0148,1.33326 1.2808,2.21508 0.2659,0.88185 0.3989,1.91066 0.3989,3.08643 z m -3.4433,-8.6294 -2.96049,0 c -0.95183,10e-6 -1.77767,0.0805 -2.47754,0.24146 -0.69987,0.16098 -1.28076,0.39893 -1.74267,0.71387 -0.46192,0.31494 -0.80136,0.69287 -1.01831,1.13378 -0.21697,0.44093 -0.32545,0.94833 -0.32544,1.52222 -10e-6,0.97982 0.31143,1.76018 0.93432,2.34107 0.62288,0.58089 1.49422,0.87134 2.61402,0.87133 0.90982,10e-6 1.75316,-0.23095 2.53003,-0.69287 0.77688,-0.46191 1.59218,-1.16878 2.44608,-2.1206 z"
           style="font-size:43px"
           id="path3918"
           inkscape:connector-curvature="0" />
        <path
           d="m 1027.944,847.02368 c 0,0.11198 -0.024,0.20996 -0.073,0.29395 -0.049,0.084 -0.133,0.15047 -0.2519,0.19946 -0.119,0.049 -0.2765,0.0875 -0.4724,0.11548 -0.196,0.028 -0.434,0.042 -0.7139,0.042 -0.294,0 -0.5389,-0.014 -0.7349,-0.042 -0.1959,-0.028 -0.3569,-0.0665 -0.4829,-0.11548 -0.126,-0.049 -0.2169,-0.11548 -0.2729,-0.19946 -0.056,-0.084 -0.084,-0.18197 -0.084,-0.29395 l 0,-2.49853 c -0.9938,1.0778 -2.0261,1.91764 -3.0969,2.51953 -1.0708,0.60189 -2.2431,0.90283 -3.5169,0.90283 -1.3857,0 -2.5685,-0.26945 -3.5483,-0.80835 -0.9798,-0.5389 -1.7742,-1.26676 -2.3831,-2.18359 -0.6089,-0.91683 -1.0533,-1.99463 -1.3332,-3.2334 -0.28,-1.23876 -0.4199,-2.54402 -0.4199,-3.91577 0,-1.62369 0.1749,-3.08992 0.5249,-4.39869 0.3499,-1.30874 0.8678,-2.42503 1.5537,-3.34887 0.6858,-0.92381 1.5362,-1.63418 2.551,-2.13111 1.0148,-0.49688 2.1871,-0.74534 3.5168,-0.74536 1.1058,2e-5 2.1171,0.24148 3.034,0.72437 0.9168,0.48293 1.8231,1.19329 2.719,2.1311 l 0,-10.98096 c 0,-0.0979 0.024,-0.19243 0.074,-0.28344 0.049,-0.091 0.1434,-0.16094 0.2834,-0.20996 0.14,-0.049 0.3184,-0.091 0.5354,-0.12598 0.217,-0.035 0.4934,-0.0525 0.8294,-0.0525 0.3499,3e-5 0.6368,0.0175 0.8608,0.0525 0.2239,0.035 0.3989,0.077 0.5249,0.12598 0.126,0.049 0.2204,0.119 0.2834,0.20996 0.063,0.091 0.094,0.18549 0.094,0.28344 z m -3.4853,-13.29053 c -0.9379,-1.16176 -1.8442,-2.0471 -2.719,-2.656 -0.8749,-0.60887 -1.7882,-0.91331 -2.74,-0.91333 -0.8819,2e-5 -1.6307,0.20998 -2.2466,0.62988 -0.6159,0.41994 -1.1163,0.97284 -1.5012,1.65869 -0.3849,0.68589 -0.6649,1.46274 -0.8399,2.33057 -0.1749,0.86785 -0.2624,1.74968 -0.2624,2.64551 0,0.95183 0.074,1.88265 0.2205,2.79248 0.1469,0.90983 0.4024,1.71818 0.7663,2.42505 0.3639,0.70687 0.8468,1.27376 1.4487,1.70068 0.6019,0.42692 1.3578,0.64038 2.2676,0.64038 0.4619,0 0.9063,-0.063 1.3333,-0.18896 0.4269,-0.12598 0.8643,-0.33594 1.3122,-0.62989 0.4479,-0.29394 0.9168,-0.67537 1.4068,-1.14428 0.4899,-0.46891 1.0078,-1.0463 1.5537,-1.73218 z"
           style="font-size:43px"
           id="path3920"
           inkscape:connector-curvature="0" />
        <path
           d="m 1037.8122,847.02368 c 0,0.11198 -0.028,0.20646 -0.084,0.28345 -0.056,0.077 -0.147,0.14347 -0.2729,0.19946 -0.126,0.056 -0.301,0.098 -0.5249,0.12598 -0.224,0.028 -0.511,0.042 -0.8609,0.042 -0.3359,0 -0.6159,-0.014 -0.8398,-0.042 -0.224,-0.028 -0.4025,-0.07 -0.5354,-0.12598 -0.133,-0.056 -0.224,-0.12248 -0.273,-0.19946 -0.049,-0.077 -0.073,-0.17147 -0.073,-0.28345 l 0,-28.05078 c 0,-0.11195 0.024,-0.20993 0.073,-0.29394 0.049,-0.084 0.14,-0.15395 0.273,-0.20997 0.1329,-0.056 0.3114,-0.0979 0.5354,-0.12597 0.2239,-0.028 0.5039,-0.042 0.8398,-0.042 0.3499,2e-5 0.6369,0.014 0.8609,0.042 0.2239,0.028 0.3989,0.07 0.5249,0.12597 0.1259,0.056 0.2169,0.12601 0.2729,0.20997 0.056,0.084 0.084,0.18199 0.084,0.29394 z"
           style="font-size:43px"
           id="path3922"
           inkscape:connector-curvature="0" />
        <path
           d="m 1060.383,836.75659 c 0,0.54591 -0.1365,0.93434 -0.4094,1.16528 -0.273,0.23097 -0.5844,0.34645 -0.9344,0.34644 l -12.3876,0 c -10e-5,1.04981 0.1049,1.99464 0.3149,2.83447 0.2099,0.83985 0.5599,1.56072 1.0498,2.1626 0.4899,0.60189 1.1268,1.06381 1.9106,1.38574 0.7839,0.32195 1.7427,0.48292 2.8765,0.48291 0.8958,10e-6 1.6937,-0.0735 2.3936,-0.22046 0.6998,-0.14697 1.3052,-0.31143 1.8161,-0.4934 0.5109,-0.18197 0.9308,-0.34644 1.2598,-0.49341 0.3289,-0.14697 0.5774,-0.22046 0.7453,-0.22046 0.098,0 0.1855,0.0245 0.2625,0.0735 0.077,0.049 0.1365,0.12248 0.1785,0.22045 0.042,0.098 0.073,0.23446 0.094,0.40943 0.021,0.17497 0.032,0.38843 0.032,0.64038 0,0.18197 -0.01,0.33944 -0.021,0.47241 -0.014,0.13298 -0.032,0.25196 -0.052,0.35693 -0.021,0.10499 -0.056,0.19947 -0.105,0.28345 -0.049,0.084 -0.112,0.16447 -0.189,0.24146 -0.077,0.077 -0.3044,0.20296 -0.6824,0.37793 -0.3779,0.17496 -0.8678,0.34643 -1.4697,0.5144 -0.6019,0.16797 -1.2983,0.31844 -2.0891,0.45142 -0.7909,0.13297 -1.6342,0.19946 -2.53,0.19946 -1.5537,0 -2.915,-0.21696 -4.0838,-0.65088 -1.1688,-0.43392 -2.1521,-1.0778 -2.9499,-1.93164 -0.7979,-0.85384 -1.3998,-1.92464 -1.8057,-3.2124 -0.4059,-1.28776 -0.6089,-2.78548 -0.6089,-4.49317 0,-1.62368 0.21,-3.08291 0.6299,-4.37768 0.4199,-1.29475 1.0253,-2.39354 1.8162,-3.29639 0.7908,-0.90281 1.7461,-1.59568 2.8659,-2.07861 1.1198,-0.48289 2.3726,-0.72435 3.7583,-0.72437 1.4838,2e-5 2.747,0.23798 3.7898,0.71387 1.0428,0.47593 1.9002,1.11631 2.5721,1.92114 0.6718,0.80487 1.1652,1.74969 1.4802,2.83448 0.3149,1.08481 0.4724,2.24309 0.4724,3.47485 z m -3.4854,-1.02881 c 0.042,-1.81964 -0.3604,-3.24738 -1.2072,-4.2832 -0.8469,-1.03579 -2.1032,-1.55369 -3.7688,-1.55371 -0.8539,2e-5 -1.6027,0.16099 -2.2466,0.48291 -0.6439,0.32196 -1.1828,0.74888 -1.6167,1.28076 -0.4339,0.53192 -0.7699,1.1513 -1.0078,1.85816 -0.238,0.70688 -0.371,1.44524 -0.3989,2.21508 z"
           style="font-size:43px"
           id="path3924"
           inkscape:connector-curvature="0" />
        <path
           d="m 1092.507,828.33716 c 0,1.35776 -0.224,2.58253 -0.6719,3.67431 -0.4479,1.09182 -1.0883,2.02264 -1.9211,2.79249 -0.8329,0.76986 -1.8547,1.36475 -3.0654,1.78466 -1.2108,0.41994 -2.656,0.6299 -4.3357,0.62989 l -3.0864,0 0,9.78418 c -10e-5,0.11198 -0.032,0.20996 -0.094,0.29394 -0.063,0.084 -0.161,0.15047 -0.294,0.19946 -0.133,0.049 -0.3149,0.091 -0.5459,0.12598 -0.2309,0.035 -0.5214,0.0525 -0.8713,0.0525 -0.35,0 -0.6404,-0.0175 -0.8713,-0.0525 -0.231,-0.035 -0.4165,-0.077 -0.5564,-0.12598 -0.14,-0.049 -0.238,-0.11547 -0.294,-0.19946 -0.056,-0.084 -0.084,-0.18196 -0.084,-0.29394 l 0,-25.06934 c 0,-0.55987 0.147,-0.9588 0.4409,-1.19678 0.294,-0.23793 0.6229,-0.3569 0.9869,-0.35693 l 5.8159,0 c 0.5879,3e-5 1.1513,0.0245 1.6902,0.0735 0.5388,0.049 1.1757,0.154 1.9106,0.31495 0.7349,0.16099 1.4837,0.46194 2.2466,0.90283 0.7628,0.44094 1.4102,0.98334 1.9421,1.6272 0.5319,0.6439 0.9413,1.38926 1.2283,2.23608 0.2869,0.84686 0.4304,1.78119 0.4304,2.80298 z m -3.8003,0.29394 c 0,-1.10577 -0.2065,-2.0296 -0.6194,-2.77148 -0.4129,-0.74184 -0.9238,-1.29474 -1.5327,-1.65869 -0.6089,-0.36391 -1.2388,-0.59487 -1.8896,-0.69287 -0.6509,-0.098 -1.2843,-0.14695 -1.9002,-0.14698 l -3.3383,0 0,10.89698 3.2543,0 c 1.0918,10e-6 1.9982,-0.13996 2.719,-0.41993 0.7209,-0.27993 1.3263,-0.66836 1.8162,-1.16528 0.4899,-0.49689 0.8608,-1.09178 1.1128,-1.78467 0.2519,-0.69285 0.3779,-1.44521 0.3779,-2.25708 z"
           style="font-size:43px"
           id="path3926"
           inkscape:connector-curvature="0" />
        <path
           d="m 1101.1364,847.02368 c 0,0.11198 -0.028,0.20646 -0.084,0.28345 -0.056,0.077 -0.1469,0.14347 -0.2729,0.19946 -0.126,0.056 -0.301,0.098 -0.5249,0.12598 -0.224,0.028 -0.5109,0.042 -0.8609,0.042 -0.3359,0 -0.6159,-0.014 -0.8398,-0.042 -0.224,-0.028 -0.4024,-0.07 -0.5354,-0.12598 -0.133,-0.056 -0.224,-0.12248 -0.273,-0.19946 -0.049,-0.077 -0.073,-0.17147 -0.073,-0.28345 l 0,-28.05078 c 0,-0.11195 0.024,-0.20993 0.073,-0.29394 0.049,-0.084 0.14,-0.15395 0.273,-0.20997 0.133,-0.056 0.3114,-0.0979 0.5354,-0.12597 0.2239,-0.028 0.5039,-0.042 0.8398,-0.042 0.35,2e-5 0.6369,0.014 0.8609,0.042 0.2239,0.028 0.3989,0.07 0.5249,0.12597 0.126,0.056 0.2169,0.12601 0.2729,0.20997 0.056,0.084 0.084,0.18199 0.084,0.29394 z"
           style="font-size:43px"
           id="path3928"
           inkscape:connector-curvature="0" />
        <path
           d="m 1123.7702,847.02368 c 0,0.11198 -0.024,0.20646 -0.073,0.28345 -0.049,0.077 -0.1365,0.14347 -0.2624,0.19946 -0.126,0.056 -0.2905,0.098 -0.4934,0.12598 -0.203,0.028 -0.4515,0.042 -0.7454,0.042 -0.322,0 -0.5844,-0.014 -0.7874,-0.042 -0.2029,-0.028 -0.3639,-0.07 -0.4829,-0.12598 -0.119,-0.056 -0.1994,-0.12248 -0.2414,-0.19946 -0.042,-0.077 -0.063,-0.17147 -0.063,-0.28345 l 0,-2.49853 c -1.0778,1.18978 -2.1416,2.05761 -3.1914,2.60351 -1.0498,0.5459 -2.1136,0.81885 -3.1914,0.81885 -1.2598,0 -2.3201,-0.20996 -3.1809,-0.62988 -0.8609,-0.41992 -1.5572,-0.99032 -2.0891,-1.71118 -0.5319,-0.72087 -0.9134,-1.56071 -1.1443,-2.51954 -0.231,-0.95881 -0.3465,-2.12409 -0.3465,-3.49585 l 0,-11.46386 c 0,-0.11196 0.024,-0.20644 0.073,-0.28345 0.049,-0.077 0.1435,-0.14695 0.2835,-0.20996 0.1399,-0.063 0.3219,-0.10496 0.5459,-0.12598 0.2239,-0.021 0.5039,-0.0315 0.8398,-0.0315 0.3359,2e-5 0.6159,0.0105 0.8399,0.0315 0.2239,0.021 0.4024,0.063 0.5354,0.12598 0.1329,0.063 0.2274,0.13299 0.2834,0.20996 0.056,0.077 0.084,0.17149 0.084,0.28345 l 0,11.00195 c 0,1.1058 0.081,1.99114 0.2414,2.65601 0.161,0.66488 0.406,1.23177 0.7349,1.70068 0.3289,0.46892 0.7454,0.83285 1.2493,1.0918 0.5039,0.25895 1.0918,0.38843 1.7636,0.38842 0.8679,10e-6 1.7322,-0.30794 2.5931,-0.92382 0.8608,-0.61588 1.7741,-1.51872 2.74,-2.7085 l 0,-13.20654 c -1e-4,-0.11196 0.024,-0.20644 0.073,-0.28345 0.049,-0.077 0.1435,-0.14695 0.2835,-0.20996 0.1399,-0.063 0.3184,-0.10496 0.5354,-0.12598 0.2169,-0.021 0.5004,-0.0315 0.8503,-0.0315 0.3359,2e-5 0.6159,0.0105 0.8399,0.0315 0.2239,0.021 0.3989,0.063 0.5249,0.12598 0.1259,0.063 0.2204,0.13299 0.2834,0.20996 0.063,0.077 0.094,0.17149 0.094,0.28345 z"
           style="font-size:43px"
           id="path3930"
           inkscape:connector-curvature="0" />
        <path
           d="m 1145.9631,828.98804 c 0,0.48992 -0.066,0.84336 -0.1995,1.0603 -0.133,0.21698 -0.3045,0.32546 -0.5144,0.32544 l -2.7085,0 c 0.4899,0.50392 0.8328,1.06032 1.0288,1.66919 0.196,0.6089 0.2939,1.24228 0.294,1.90015 -10e-5,1.0918 -0.175,2.05762 -0.5249,2.89746 -0.35,0.83985 -0.8504,1.55022 -1.5013,2.1311 -0.6509,0.5809 -1.4242,1.02532 -2.32,1.33325 -0.8959,0.30795 -1.8897,0.46192 -2.9815,0.46192 -0.7698,0 -1.5012,-0.10148 -2.1941,-0.30445 -0.6928,-0.20295 -1.2282,-0.4584 -1.6062,-0.76636 -0.2519,0.25197 -0.4584,0.53891 -0.6194,0.86084 -0.1609,0.32195 -0.2414,0.69288 -0.2414,1.1128 0,0.48991 0.2274,0.89584 0.6824,1.21777 0.4549,0.32195 1.0603,0.49691 1.8161,0.5249 l 4.9341,0.20996 c 0.9378,0.028 1.7987,0.15748 2.5825,0.38843 0.7839,0.23096 1.4627,0.5599 2.0367,0.98682 0.5738,0.42692 1.0217,0.95182 1.3437,1.57471 0.3219,0.62288 0.4829,1.34724 0.4829,2.17309 0,0.86784 -0.182,1.69368 -0.5459,2.47754 -0.3639,0.78385 -0.9203,1.47322 -1.6692,2.06812 -0.7489,0.59488 -1.7042,1.06379 -2.8659,1.40673 -1.1618,0.34293 -2.5336,0.5144 -4.1153,0.51441 -1.5257,-1e-5 -2.824,-0.12949 -3.8948,-0.38843 -1.0708,-0.25896 -1.9491,-0.61239 -2.635,-1.0603 -0.6858,-0.44792 -1.1827,-0.98332 -1.4907,-1.6062 -0.3079,-0.62289 -0.4619,-1.29827 -0.4619,-2.02613 0,-0.46191 0.056,-0.90983 0.168,-1.34375 0.1119,-0.43392 0.2834,-0.84684 0.5144,-1.23877 0.2309,-0.39192 0.5179,-0.76635 0.8608,-1.12329 0.3429,-0.35693 0.7384,-0.71036 1.1863,-1.0603 -0.6859,-0.34993 -1.1933,-0.79085 -1.5222,-1.32275 -0.329,-0.5319 -0.4934,-1.10579 -0.4934,-1.72168 0,-0.85384 0.1749,-1.6167 0.5249,-2.28858 0.3499,-0.67186 0.7838,-1.27375 1.3017,-1.80566 -0.4339,-0.5179 -0.7768,-1.10229 -1.0288,-1.75318 -0.2519,-0.65086 -0.3779,-1.43822 -0.3779,-2.36206 0,-1.07778 0.182,-2.0436 0.5459,-2.89746 0.3639,-0.85382 0.8678,-1.57469 1.5117,-2.16259 0.6439,-0.58788 1.4172,-1.03929 2.3201,-1.35425 0.9028,-0.31492 1.8861,-0.47239 2.9499,-0.47241 0.5739,2e-5 1.1093,0.0315 1.6062,0.0945 0.4969,0.063 0.9623,0.15049 1.3963,0.26245 l 5.7109,0 c 0.2379,2e-5 0.4164,0.1155 0.5354,0.34643 0.119,0.23098 0.1785,0.58441 0.1785,1.06031 z m -5.417,4.97607 c 0,-1.28774 -0.3535,-2.29206 -1.0603,-3.01294 -0.7069,-0.72085 -1.7112,-1.08128 -3.013,-1.0813 -0.6718,2e-5 -1.2562,0.112 -1.7531,0.33594 -0.4969,0.22398 -0.9099,0.53192 -1.2388,0.92383 -0.3289,0.39194 -0.5739,0.84336 -0.7349,1.35425 -0.1609,0.51092 -0.2414,1.04632 -0.2414,1.6062 0,1.24578 0.3534,2.2256 1.0603,2.93945 0.7068,0.71388 1.6972,1.07081 2.9709,1.0708 0.6859,1e-5 1.2808,-0.10847 1.7847,-0.32544 0.5039,-0.21695 0.9203,-0.51789 1.2493,-0.90283 0.3289,-0.38492 0.5738,-0.82933 0.7348,-1.33325 0.161,-0.5039 0.2415,-1.0288 0.2415,-1.57471 z m 1.7427,14.97022 c -10e-5,-0.81185 -0.3325,-1.43824 -0.9974,-1.87915 -0.6648,-0.44092 -1.5642,-0.67538 -2.698,-0.70337 l -4.892,-0.16797 c -0.448,0.34993 -0.8154,0.68237 -1.1023,0.99731 -0.287,0.31494 -0.5144,0.61589 -0.6824,0.90283 -0.168,0.28695 -0.2835,0.5704 -0.3464,0.85035 -0.063,0.27994 -0.095,0.56689 -0.095,0.86084 0,0.90982 0.4619,1.59919 1.3857,2.06811 0.9238,0.46891 2.2116,0.70337 3.8633,0.70337 1.0498,0 1.9281,-0.10149 2.635,-0.30444 0.7069,-0.20297 1.2773,-0.47242 1.7112,-0.80835 0.4339,-0.33594 0.7453,-0.72087 0.9343,-1.15479 0.189,-0.43392 0.2834,-0.88883 0.2835,-1.36474 z"
           style="font-size:43px"
           id="path3932"
           inkscape:connector-curvature="0" />
        <path
           d="m 1153.8786,847.02368 c 0,0.11198 -0.028,0.20646 -0.084,0.28345 -0.056,0.077 -0.147,0.14347 -0.2729,0.19946 -0.126,0.056 -0.301,0.098 -0.5249,0.12598 -0.224,0.028 -0.5109,0.042 -0.8609,0.042 -0.3359,0 -0.6159,-0.014 -0.8398,-0.042 -0.224,-0.028 -0.4024,-0.07 -0.5354,-0.12598 -0.133,-0.056 -0.224,-0.12248 -0.273,-0.19946 -0.049,-0.077 -0.073,-0.17147 -0.073,-0.28345 l 0,-18.89648 c 0,-0.098 0.024,-0.18895 0.073,-0.27295 0.049,-0.084 0.14,-0.15395 0.273,-0.20996 0.133,-0.056 0.3114,-0.098 0.5354,-0.12598 0.2239,-0.028 0.5039,-0.042 0.8398,-0.042 0.35,2e-5 0.6369,0.014 0.8609,0.042 0.2239,0.028 0.3989,0.07 0.5249,0.12598 0.1259,0.056 0.2169,0.12599 0.2729,0.20996 0.056,0.084 0.084,0.17499 0.084,0.27295 z m 0.3989,-25.2793 c 0,0.81188 -0.154,1.36478 -0.4619,1.6587 -0.3079,0.29397 -0.8748,0.44094 -1.7007,0.44091 -0.8118,3e-5 -1.3682,-0.14345 -1.6692,-0.43042 -0.3009,-0.28692 -0.4514,-0.82932 -0.4514,-1.62719 0,-0.81183 0.154,-1.36472 0.4619,-1.65869 0.308,-0.29392 0.8749,-0.44089 1.7007,-0.44092 0.8119,3e-5 1.3683,0.1435 1.6692,0.43042 0.3009,0.28697 0.4514,0.82937 0.4514,1.62719 z"
           style="font-size:43px"
           id="path3934"
           inkscape:connector-curvature="0" />
        <path
           d="m 1176.5964,847.02368 c 0,0.11198 -0.028,0.20646 -0.084,0.28345 -0.056,0.077 -0.147,0.14347 -0.273,0.19946 -0.126,0.056 -0.3009,0.098 -0.5249,0.12598 -0.2239,0.028 -0.5039,0.042 -0.8398,0.042 -0.35,0 -0.6369,-0.014 -0.8608,-0.042 -0.224,-0.028 -0.399,-0.07 -0.5249,-0.12598 -0.126,-0.056 -0.217,-0.12248 -0.273,-0.19946 -0.056,-0.077 -0.084,-0.17147 -0.084,-0.28345 l 0,-11.06494 c 0,-1.07779 -0.084,-1.94562 -0.2519,-2.60352 -0.168,-0.65786 -0.413,-1.22475 -0.7349,-1.70068 -0.322,-0.47589 -0.7384,-0.83983 -1.2493,-1.0918 -0.5109,-0.25193 -1.1023,-0.37791 -1.7741,-0.37793 -0.8679,2e-5 -1.7357,0.30796 -2.6036,0.92383 -0.8678,0.6159 -1.7776,1.51873 -2.7294,2.7085 l 0,13.20654 c 0,0.11198 -0.028,0.20646 -0.084,0.28345 -0.056,0.077 -0.147,0.14347 -0.273,0.19946 -0.126,0.056 -0.3009,0.098 -0.5249,0.12598 -0.2239,0.028 -0.5109,0.042 -0.8608,0.042 -0.336,0 -0.6159,-0.014 -0.8399,-0.042 -0.2239,-0.028 -0.4024,-0.07 -0.5354,-0.12598 -0.1329,-0.056 -0.2239,-0.12248 -0.2729,-0.19946 -0.049,-0.077 -0.073,-0.17147 -0.073,-0.28345 l 0,-18.89648 c 0,-0.11196 0.021,-0.20644 0.063,-0.28345 0.042,-0.077 0.126,-0.14695 0.2519,-0.20996 0.126,-0.063 0.287,-0.10496 0.483,-0.12598 0.1959,-0.021 0.4549,-0.0315 0.7768,-0.0315 0.3079,2e-5 0.5634,0.0105 0.7664,0.0315 0.2029,0.021 0.3604,0.063 0.4724,0.12598 0.112,0.063 0.1924,0.13299 0.2414,0.20996 0.049,0.077 0.073,0.17149 0.073,0.28345 l 0,2.49853 c 1.0638,-1.18976 2.1241,-2.0611 3.1809,-2.61401 1.0568,-0.55288 2.1241,-0.82933 3.2019,-0.82935 1.2598,2e-5 2.3201,0.21348 3.1809,0.64038 0.8609,0.42694 1.5572,0.99734 2.0892,1.71119 0.5318,0.71388 0.9133,1.55022 1.1442,2.50903 0.231,0.95883 0.3465,2.11012 0.3465,3.45386 z"
           style="font-size:43px"
           id="path3936"
           inkscape:connector-curvature="0" />
      </g>
    </g>
  </g>
</svg>
